<svg width="125" height="49" viewBox="0 0 125 49" xmlns="http://www.w3.org/2000/svg"><title>FD0D9B9C-C5A1-4A98-B164-DA953F749F8D</title><path d="M16.956.989C5.52 1.137 0 10.037 0 18.492c0 7.17 3.5 14.735 11.978 16.861-5.225-2.769-7.887-9.543-7.887-16.86 0-8.258 3.648-16.91 12.865-17.504zm.936 0c9.218.593 12.816 9.246 12.816 17.503 0 7.368-2.662 14.142-8.034 16.96 8.576-2.423 12.125-9.79 12.125-17.009 0-8.455-5.52-17.306-16.907-17.454zm-2.661 35.6c4.633 7.615 12.766 12.609 22.969 11.027-8.626-.347-15.132-5.489-18.533-11.027H15.23zm42.586-22.25c.247 4.648.296 8.06.296 11.867 0 4.153-.098 7.812-.296 9.889h3.845c-.197-2.522-.296-6.477-.296-10.384 0-3.263.05-6.724.247-11.372h-3.796zm-15.427 0c.147 3.016.147 10.68.147 13.499 0 5.537 2.219 8.751 7.197 8.751 2.908 0 5.767-1.78 7.393-4.944-1.528 1.928-3.844 2.868-5.668 2.868-3.943 0-5.57-2.621-5.57-6.923 0-4.45.099-10.482.247-13.25H42.39zM74.625 29.37c-1.873.89-2.908 2.374-2.908 3.758 0 2.62 3.007 3.66 7.837 4.5 5.866.94 8.528 2.274 8.528 5.29 0 3.66-4.042 5.736-7.838 6.082 6.359 0 11.041-2.917 11.041-7.466 0-4.5-4.041-5.835-11.583-6.972-3.844-.593-5.964-1.384-5.964-3.164 0-.643.296-1.286.887-2.028zm-4.978-8.06c0 4.995 4.288 7.566 8.429 7.566-2.416-.297-5.077-2.868-5.077-7.516 0-4.697 2.661-7.17 5.077-7.515-4.14 0-8.429 2.57-8.429 7.466zm17.892 0c0-4.894-4.19-7.465-8.379-7.465 2.465.346 5.126 2.818 5.126 7.515 0 4.648-2.661 7.22-5.126 7.516 4.19 0 8.38-2.571 8.38-7.565zm5.077-9.443l-7.492 2.472h7.246l.246-2.472zm-20.16 27.887c-2.562.692-4.337 2.472-4.337 4.45 0 3.065 3.155 4.796 8.774 4.796-3.943-.346-6.26-2.67-6.26-5.488 0-1.335.493-2.77 1.824-3.758zM101.046 0c-1.282.445-2.711.643-3.894.692.197 2.225.296 12.806.296 18.295 0 7.12-.099 12.312-.247 17.108h3.796c-.247-5.044-.296-11.57-.296-17.652 0-7.812.148-14.932.345-18.443zm16.364 13.845c-2.859 0-6.26 1.532-7.985 4.796 1.676-2.077 4.14-3.115 6.21-3.115 4.19 0 5.916 2.67 5.916 7.17 0 4.202-.099 10.58-.197 13.399H125c-.099-3.165-.099-10.136-.099-13.598 0-5.438-2.464-8.652-7.492-8.652zm-9.217 16.91c0 3.46 2.711 5.785 6.506 5.785 2.218 0 4.436-1.088 5.57-3.016-.986.94-2.563 1.384-3.992 1.384-3.056 0-4.83-2.027-4.83-4.895 0-3.51 2.464-5.736 7.048-5.686-5.472-1.385-10.302 1.533-10.302 6.428z" fill="#000" fill-rule="evenodd"/></svg>