<svg width="48" height="34" viewBox="0 0 48 34" xmlns="http://www.w3.org/2000/svg" xmlns:xlink="http://www.w3.org/1999/xlink"><title>72DE8039-B4FD-4F00-9C81-5EC776E51528</title><defs><rect id="a" width="48" height="34" rx="3"/><mask id="b" x="0" y="0" width="48" height="34" fill="#fff"><use xlink:href="#a"/></mask></defs><g fill="none" fill-rule="evenodd"><use stroke="#559DF7" mask="url(#b)" stroke-width="4" xlink:href="#a"/><rect fill="#203F82" x="25" y="12" width="14" height="2" rx="1"/><rect fill="#203F82" x="25" y="16" width="14" height="2" rx="1"/><rect fill="#203F82" x="25" y="20" width="10" height="2" rx="1"/><path d="M18.224 11.526a4.905 4.905 0 0 0-1.386-1.694 3.66 3.66 0 0 0-1.914-.726V7.17h-1.628v1.958c-1.034.154-1.804.616-2.31 1.1-.682.66-1.122 1.65-1.122 2.838 0 .792.242 1.54.924 2.244.506.506 1.408 1.056 2.068 1.342l1.408.594c.55.242.99.396 1.474.902.462.484.638.968.638 1.606 0 .682-.154 1.232-.682 1.76-.506.528-1.034.704-1.738.704-.77 0-1.408-.242-1.914-.88a3.169 3.169 0 0 1-.616-1.87l-2.222.484c.088 1.012.44 1.98 1.232 2.86.858.968 1.804 1.364 2.86 1.452v2.156h1.628v-2.222c.902-.132 1.694-.506 2.42-1.276.946-1.012 1.276-2.134 1.276-3.344 0-.968-.264-1.936-1.012-2.772-.682-.77-1.628-1.21-2.442-1.54l-1.1-.44c-.396-.154-1.078-.484-1.386-.748-.418-.352-.572-.726-.572-1.232 0-.44.088-.77.44-1.122.308-.308.836-.594 1.628-.594.616 0 1.144.154 1.584.528.33.286.528.594.66.924l1.804-1.056z" fill="#559DF7"/></g></svg>