<svg width="55" height="55" viewBox="0 0 55 55" xmlns="http://www.w3.org/2000/svg"><title>FF3D713A-57AE-48C7-A916-DCE379CEB114</title><g fill="none" fill-rule="evenodd"><path d="M44.17 33.833s.253-1.916-.932-3.083c-.592-.5-1.438-.917-2.792-.917V25.75s-.084-2.667-2.792-2.667h-8.208s-8.208 1.25-8.208-7.833c0 0 .593 6.75-4.23 6.75-2.539 0-3.216 1.583-3.216 7.583 0 0-1.354 0-2.454.75-.846.584-1.692 1.667-1.692 3.5" stroke="#559DF7" stroke-width="1.68" stroke-linecap="round" stroke-linejoin="round"/><path d="M12.015 29.917s-2.369-2.667-2.369-9c0-6.334 7.446-14.75 17.6-14.75 10.154 0 17.008 5.5 17.008 14.75 0 0 .17 7.833-1.016 9.75M13.792 37.917S19.885 50.25 26.823 50.25c6.939 0 13.708-12.333 13.708-12.333" stroke="#559DF7" stroke-width="1.68" stroke-linecap="round" stroke-linejoin="round"/><path d="M4.062 33.833H50.43" stroke="#203F82" stroke-width="1.68" stroke-linecap="round" stroke-linejoin="round"/></g></svg>