<svg width="65" height="66" viewBox="0 0 65 66" xmlns="http://www.w3.org/2000/svg"><title>77711967-FBC4-4172-B6EC-91930CD7B7B2</title><g fill="none" fill-rule="evenodd"><path d="M14.2 12.1s15.9.6 13.3 9.3c0 0 1.4 4.5 1.3 5.4-.1.9-1.1 1.8-1.1 1.8s5.7 7.6 3.6 7.7c-2.1.1-2.5 0-2.5 0s3.8 4.5-3.1 4.3c0 0 2.8 2.4 2.8 3.1 0 .7-1 1-1 1s3.6 6-7.9 3.6c0 0-2.2 1-2.2 2.7h-3.1" stroke="#559DF7" stroke-width="1.767" stroke-linecap="round" stroke-linejoin="round"/><path stroke="#203F82" stroke-width="1.767" stroke-linecap="round" stroke-linejoin="round" d="M32.1 42.2h1.8l2.5-6.3 3.2 12.8 3.2-18.6 4 15.7 3.5-11.3 3.2 12.7"/></g></svg>