<svg width="420" height="280" viewBox="0 0 420 280" xmlns="http://www.w3.org/2000/svg"><title>D54B4605-96B2-49A3-B736-1FFBB4363A27</title><defs><linearGradient x1="100%" y1="0%" x2="0%" y2="100%" id="a"><stop stop-color="#6E8FF6" offset="0%"/><stop stop-color="#33B1F8" offset="100%"/></linearGradient></defs><g fill="none" fill-rule="evenodd"><path fill="#EBEBEB" d="M30 0h1v280h-1zM70 0h1v280h-1zM110 0h1v280h-1zM150 0h1v280h-1zM190 0h1v280h-1zM230 0h1v280h-1zM270 0h1v280h-1zM310 0h1v280h-1zM350 0h1v280h-1zM390 0h1v280h-1z"/><path fill="#EBEBEB" d="M0 240h420v1H0zM0 200h420v1H0zM0 160h420v1H0zM0 120h420v1H0zM0 80h420v1H0zM0 40h420v1H0z"/><path d="M122.3 202.49l-2.397.291 1.134-.672 1.262.38zm-92.49 40.903a3 3 0 1 1-3.62-4.786L87.75 192.07l33.288 10.038L162.04 177.8l28.12 10.984 43.35-77.923 32.034 27.859L390.11 37.67a3 3 0 0 1 3.78 4.659L265.409 146.556l-30.254-26.311-42.299 76.034-30.274-11.825-40.753 24.16-32.894-9.919-59.126 44.698z" fill="url(#a)" fill-rule="nonzero"/></g></svg>