<?xml version="1.0" encoding="utf-8"?>
<!-- Generator: Adobe Illustrator 19.1.0, SVG Export Plug-In . SVG Version: 6.00 Build 0)  -->
<svg version="1.1" id="Layer_1" xmlns="http://www.w3.org/2000/svg" xmlns:xlink="http://www.w3.org/1999/xlink" x="0px" y="0px"
	 viewBox="0 0 512 512" style="enable-background:new 0 0 512 512;" xml:space="preserve">
<style type="text/css">
	.st0{fill:#4767AA;}
</style>
<g id="XMLID_2_">
	<path id="XMLID_18_" class="st0" d="M277.6,241.8c-6.5-0.7-12.2,1.3-17,7V247l0,0v-31v-0.3v-2.1l-17.3,2.1v81.6h17.3v-4.8
		c2.3,1.7,4.6,3.7,7.3,4.6c10.1,3.6,23.4,0.7,28-12.8c3-8.7,2.9-17.5,0.7-26.3C294.1,248.2,287.6,242.8,277.6,241.8z M280.2,277.1
		c-0.8,5.4-5,8.2-10.1,7.8c-1.3-0.1-2.4-0.4-3.5-0.8c-4.1-2.4-5.3-6.3-5.7-8.8c0,0,0,0,0,0c-0.3-3.8-0.6-11.8,1.3-15.6
		c1.6-2.9,4.3-4.5,8-4.6c5.2-0.2,9.2,2.4,9.9,7.7C280.8,267.5,280.9,272.4,280.2,277.1z"/>
	<path id="XMLID_15_" class="st0" d="M338.9,242.8c-6-1.6-12.1-1.6-18.1,0c-9,2.4-15,8.1-16.9,17.1c-1.1,4.9-1.3,10.2-1,15.2
		c0.6,11.6,7.8,19.8,18.9,22.4c0.2,0,0.3,0.1,0.5,0.1h0c0,0,0,0,0.1,0c0.4,0.1,0.9,0.2,1.3,0.2c0.1,0,0.3,0,0.4,0c0,0,0,0,0,0
		c0.5,0.1,1.2,0.2,1.9,0.2c2.2,0.2,4.9,0.4,7.3,0.1c0,0,0,0,0,0c0.1,0,0.2,0,0.4,0c11.5-0.6,20.2-7.8,22.7-18.9
		c1.4-6.1,1.4-12.2,0-18.3C354.3,251.5,348.5,245.3,338.9,242.8z M339.7,276.2c-0.1,0.4-0.1,0.7-0.2,1.1c-1.1,5.1-4.9,7.9-9.8,7.6
		c-5.3-0.2-9-3.3-9.5-8.7c-0.4-3.9-0.4-7.8-0.1-11.7c0.5-6.1,4.3-9.5,10.1-9.4c4.7,0.1,8.1,2.8,9.3,7.3
		C340.6,267.1,339.8,275.2,339.7,276.2z"/>
	<path id="XMLID_14_" class="st0" d="M79.2,242.5H66.9v-8.2c0.9-7.8,13.7-6.3,13.7-6.3l0-0.5l0-0.1v-12.8h0v0h0
		c-0.4-0.1-25.5-6.1-30.5,13c0,0,0,0,0,0c0,0,0,0.1,0,0.1c-0.8,2.4-0.7,13.3-0.7,14.7H38.6v14.6H50v39.7h16.6v-39.7h12.7l1.4-14.6
		H79.2z"/>
	<path id="XMLID_11_" class="st0" d="M118.7,249.5c-0.2-0.2-0.4-0.4-0.6-0.6v0c0,0,0-0.1-0.1-0.1c-0.2-0.3-0.4-0.4-0.4-0.4l0,0
		c-3.9-4-5.4-4.9-8.4-5.8C97.5,239,86,245.2,82.4,257c-2.2,7.3-2.3,14.7-1,22.1c2.8,15.9,14.7,21.3,27.3,18.6
		c3.9-0.8,6.8-3.2,9.4-6.6c0,0,0.2-0.3,0.5-0.9v7h16.1v-54.7h-16.1L118.7,249.5L118.7,249.5z M117.3,277c-0.5,5.1-4.6,8.1-9.5,7.9
		c-5-0.2-8.2-2.8-9.3-7.6c-1.3-6.8,0.2-14.8,0.3-15.5c1.3-4.5,4.6-6.8,9.5-6.7c4.8,0.1,8.4,2.9,9,7.9
		C117.7,267.6,117.8,272.4,117.3,277z"/>
	<path id="XMLID_10_" class="st0" d="M184.2,293.4c-0.7-2.7-1.6-5.4-2.4-8.1l-0.8-2.9c0,0-20.2,9.7-23.4-8.7c-0.3-3-0.2-6.2,0.2-9.2
		c0.8-5.7,4.2-8.7,9.8-9.2c1.9-0.2,3.8-0.1,5.6,0.2c2.5,0.4,5,1.2,7.7,1.9c1-2.9,1.9-5.8,2.8-8.7c0.1-0.5,0.3-0.8,0.4-1.2h0l0.5-1.7
		c-0.1-0.2-0.4-0.5-0.8-0.7c0,0,0,0,0,0c-0.5-0.4-1.3-0.7-2.5-1.2c-0.5-0.2-1-0.3-1.5-0.5c-0.4-0.1-0.7-0.2-0.7-0.2h0
		c-5.3-1.5-10.8-1.6-16.3-1.1c-11.7,1.2-19.6,8.1-21.8,19.5c-1.2,6-1.1,12.1,0.2,18.1c2,9,7.4,14.8,16.3,17.4
		c5.8,1.7,11.7,1.8,17.6,0.9c2.5-0.4,6-1.7,8.6-2.6l1-0.3L184.2,293.4L184.2,293.4z"/>
	<path id="XMLID_7_" class="st0" d="M237.4,271.9c-0.1-3.8,0-7.6-0.6-11.3c-1.5-10.2-7.7-16.7-17.7-18.4c-3.8-0.6-7.9-0.6-11.8-0.2
		c-10.7,1-18.8,7.7-20.4,17.7c-1,6.1-1.1,12.5-0.3,18.6c1.2,9.2,5.7,15,13.4,17.8c0,0,0,0,0,0c0,0,0.1,0,0.1,0c0,0,0,0,0,0
		c3.5,1.1,20.8,5.6,36-2.1l-0.6-2.2c0,0,0,0,0,0c-0.7-3-1.6-5.9-2.3-8.9l-0.1-0.3c0,0-0.3,0.1-0.9,0.3c0,0,0,0,0,0
		c-0.7,0.2-1.3,0.4-2,0.6c-0.1,0-0.2,0.1-0.4,0.1c-2.3,0.6-5.6,1.4-9.1,1.9c-2.9,0.3-5.9,0.3-8.8,0.1c-4.8-0.8-8.5-3.4-8.3-9.5h2.8
		c9.5,0,18.9,0,28.4,0c0.2,0,0.5,0,0.7,0l0,0c0,0,2,0,2.1,0c0,0,0-0.5,0-0.6L237.4,271.9z M221.9,264.5h-18.7
		c0.1-3.7,0.6-7.2,3.9-9.3c3.5-2.2,7.4-2.3,11-0.3C221.7,256.9,222,260.5,221.9,264.5z"/>
	<polygon id="XMLID_6_" class="st0" points="473.4,243.1 455,243.1 439.1,268 439.1,216 439.1,215.7 439.1,213.6 421.8,215.7 
		421.8,297.3 439.1,297.3 439.1,272.3 455,297.3 473.4,297.3 456.1,270.2 	"/>
	<path id="XMLID_3_" class="st0" d="M398,242.8c-6-1.6-12.1-1.6-18.1,0c-9,2.4-15,8.1-16.9,17.1c-1.1,4.9-1.3,10.2-1,15.2
		c0.6,11.6,7.8,19.8,18.9,22.4c0.2,0,0.3,0.1,0.5,0.1h0c0,0,0,0,0.1,0c0.4,0.1,0.9,0.2,1.3,0.2c0.1,0,0.3,0,0.4,0c0,0,0,0,0,0
		c0.5,0.1,1.2,0.2,1.9,0.2c2.2,0.2,4.9,0.4,7.3,0.1c0,0,0,0,0,0c0.1,0,0.2,0,0.3,0c11.5-0.6,20.2-7.8,22.7-18.9
		c1.4-6.1,1.4-12.2,0-18.3C413.3,251.5,407.5,245.3,398,242.8z M398.7,276.2c-0.1,0.4-0.1,0.7-0.2,1.1c-1.2,5.1-4.9,7.9-9.8,7.6
		c-5.3-0.2-9-3.4-9.5-8.7c-0.4-3.9-0.4-7.8-0.1-11.7c0.5-6.1,4.3-9.5,10.1-9.4c4.7,0.1,8.1,2.8,9.3,7.3
		C399.6,267,398.8,275.2,398.7,276.2z"/>
</g>
</svg>
