<?xml version="1.0" encoding="utf-8"?>
<!-- Generator: Adobe Illustrator 19.1.0, SVG Export Plug-In . SVG Version: 6.00 Build 0)  -->
<svg version="1.1" id="Layer_1" xmlns="http://www.w3.org/2000/svg" xmlns:xlink="http://www.w3.org/1999/xlink" x="0px" y="0px"
	 viewBox="0 0 576 576" style="enable-background:new 0 0 576 576;" xml:space="preserve">
<style type="text/css">
	.st0{fill:#100E0F;}
</style>
<g>
	<path class="st0" d="M140.4,278.7H100c-1,0-1.9,0.8-1.9,1.9v19.7c0,1,0.8,1.9,1.9,1.9h15.7v24.5c0,0-3.5,1.2-13.3,1.2
		c-11.5,0-27.6-4.2-27.6-39.6c0-35.4,16.8-40.1,32.5-40.1c13.6,0,19.5,2.4,23.2,3.6c1.2,0.4,2.3-0.8,2.3-1.9l4.5-19.1
		c0-0.5-0.2-1.1-0.7-1.5c-1.5-1.1-10.8-6.3-34.2-6.3c-26.9,0-54.6,11.5-54.6,66.6c0,55.1,31.6,63.3,58.3,63.3
		c22.1,0,35.5-9.4,35.5-9.4c0.6-0.3,0.6-1.1,0.6-1.4v-61.5C142.3,279.5,141.4,278.7,140.4,278.7z"/>
	<path class="st0" d="M348.4,229.7c0-1-0.8-1.9-1.9-1.9h-22.7c-1,0-1.9,0.8-1.9,1.9c0,0,0,43.9,0,43.9h-35.4v-43.9
		c0-1-0.8-1.9-1.9-1.9h-22.7c-1,0-1.9,0.8-1.9,1.9v118.9c0,1,0.8,1.9,1.9,1.9h22.7c1,0,1.9-0.9,1.9-1.9v-50.9h35.4
		c0,0-0.1,50.9-0.1,50.9c0,1,0.8,1.9,1.9,1.9h22.8c1,0,1.9-0.9,1.9-1.9V229.7z"/>
	<g>
		<g>
			<path class="st0" d="M183.3,245.3c0-8.2-6.6-14.8-14.7-14.8c-8.1,0-14.6,6.6-14.6,14.8c0,8.2,6.6,14.8,14.6,14.8
				C176.7,260.1,183.3,253.4,183.3,245.3z"/>
			<path class="st0" d="M181.6,323.5c0-3,0-54.9,0-54.9c0-1-0.8-1.9-1.9-1.9h-22.7c-1,0-2,1.1-2,2.1c0,0,0,66,0,78.6
				c0,2.3,1.4,3,3.3,3c0,0,9.7,0,20.4,0c2.2,0,2.8-1.1,2.8-3C181.6,343.2,181.6,326.7,181.6,323.5z"/>
		</g>
	</g>
	<path class="st0" d="M434.7,266.9h-22.5c-1,0-1.9,0.9-1.9,1.9v58.3c0,0-5.7,4.2-13.9,4.2c-8.1,0-10.3-3.7-10.3-11.7
		c0-8,0-50.8,0-50.8c0-1-0.8-1.9-1.9-1.9h-22.9c-1,0-1.9,0.9-1.9,1.9c0,0,0,31,0,54.7c0,23.6,13.2,29.4,31.3,29.4
		c14.9,0,26.9-8.2,26.9-8.2s0.6,4.3,0.8,4.8c0.3,0.5,0.9,1,1.7,1l14.6-0.1c1,0,1.9-0.9,1.9-1.9l0-79.8
		C436.6,267.7,435.7,266.9,434.7,266.9z"/>
	<path class="st0" d="M496.3,264.2c-12.8,0-21.5,5.7-21.5,5.7v-40.3c0-1-0.8-1.9-1.9-1.9h-22.8c-1,0-1.9,0.8-1.9,1.9v118.9
		c0,1,0.8,1.9,1.9,1.9c0,0,15.8,0,15.8,0c0.7,0,1.3-0.4,1.6-1c0.4-0.6,1-5.5,1-5.5s9.3,8.8,27,8.8c20.7,0,32.6-10.5,32.6-47.2
		C528.1,269,509.2,264.2,496.3,264.2z M487.4,331.2c-7.8-0.2-13.1-3.8-13.1-3.8v-37.7c0,0,5.2-3.2,11.7-3.8
		c8.1-0.7,15.9,1.7,15.9,21.1C501.9,327.5,498.4,331.5,487.4,331.2z"/>
	<path class="st0" d="M246.9,266.7h-17c0,0,0-22.5,0-22.5c0-0.9-0.4-1.3-1.4-1.3h-23.2c-0.9,0-1.4,0.4-1.4,1.3v23.3
		c0,0-11.6,2.8-12.4,3c-0.8,0.2-1.4,1-1.4,1.8v14.6c0,1.1,0.8,1.9,1.9,1.9h11.9c0,0,0,15.3,0,35.2c0,26.1,18.3,28.7,30.7,28.7
		c5.7,0,12.4-1.8,13.5-2.2c0.7-0.2,1.1-0.9,1.1-1.7l0-16.1c0-1-0.9-1.9-1.9-1.9c-1,0-3.5,0.4-6.2,0.4c-8.4,0-11.2-3.9-11.2-8.9
		c0-5,0-33.4,0-33.4h17c1,0,1.9-0.8,1.9-1.9v-18.3C248.8,267.5,248,266.7,246.9,266.7z"/>
</g>
</svg>
