<?xml version="1.0" encoding="utf-8"?>
<!-- Generator: Adobe Illustrator 19.1.0, SVG Export Plug-In . SVG Version: 6.00 Build 0)  -->
<svg version="1.1" id="Layer_1" xmlns="http://www.w3.org/2000/svg" xmlns:xlink="http://www.w3.org/1999/xlink" x="0px" y="0px"
	 viewBox="0 0 56.7 56.7" style="enable-background:new 0 0 56.7 56.7;" xml:space="preserve">
<style type="text/css">
	.st0{fill:#0A1B36;}
	.st1{fill:#FFFFFF;}
</style>
<path class="st0" d="M53.9,56.7h-51c-1.6,0-2.8-1.3-2.8-2.8v-51C0,1.3,1.3,0,2.8,0h51c1.6,0,2.8,1.3,2.8,2.8v51
	C56.7,55.4,55.4,56.7,53.9,56.7z"/>
<path class="st1" d="M17.1,47c-1.2,0-2.8,0-4.2,0c0-12.7,0-25.3,0-38.1c1.3,0,2.6,0,4.2,0c0,4.3,0,8.6,0,13.6
	c4-3.1,7.9-4.6,12.4-4.3c6.8,0.5,13.1,5.7,13.8,12.5C44,36,43.7,41.5,43.7,47c-1.1,0-2.5,0-4.2,0c0-1.6,0-3.2,0-4.8
	c-0.1-3.6,0.2-7.2-0.4-10.7c-0.9-5.8-6.1-9.3-12-8.8c-5.4,0.5-9.7,5-9.8,10.7"/>
</svg>
