<?xml version="1.0" encoding="utf-8"?>
<!-- Generator: Adobe Illustrator 19.1.0, SVG Export Plug-In . SVG Version: 6.00 Build 0)  -->
<svg version="1.0" id="Layer_1" xmlns="http://www.w3.org/2000/svg" xmlns:xlink="http://www.w3.org/1999/xlink" x="0px" y="0px"
	 viewBox="0 0 56.7 56.7" style="enable-background:new 0 0 56.7 56.7;" xml:space="preserve">
<style type="text/css">
	.st0{fill:#C0A862;}
	.st1{fill:#010101;}
</style>
<g>
	<g>
		<g>
			<g>
				<g>
					<polygon class="st0" points="28.7,34.8 24.9,31 25.4,30.5 28.7,33.8 32,30.5 32.5,31 					"/>
				</g>
				<g>
					<path class="st0" d="M21,38.1c-0.1-0.5-0.1-1-0.1-1.4c0-3.8,2.1-6.1,6-6.7v-1.1h0.7v1.7l-0.3,0c-2.6,0.3-5.7,1.6-5.7,6
						c0,0.4,0,0.9,0.1,1.4L21,38.1z"/>
				</g>
				<g>
					<path class="st0" d="M36.4,38.1L35.7,38c0-0.5,0.1-0.9,0.1-1.4c0-4.4-3.1-5.7-5.7-6l-0.3,0v-1.7h0.7v1.1c3.9,0.6,6,2.9,6,6.7
						C36.5,37.1,36.4,37.6,36.4,38.1z"/>
				</g>
				<g>
					<g>
						<path class="st1" d="M28.7,29.7c-2.3,0-4-3-4-5.7c0-2.7,1.7-4.6,4-4.6c2.3,0,4,1.9,4,4.6C32.6,26.7,31,29.7,28.7,29.7z
							 M28.7,20.1c-1.9,0-3.2,1.6-3.2,3.9c0,2.6,1.5,4.9,3.2,4.9c1.7,0,3.2-2.4,3.2-4.9C31.9,21.7,30.6,20.1,28.7,20.1z"/>
					</g>
					<g>
						<path class="st1" d="M25.3,25l-0.5-0.6c0.9-0.7,1.4-1.9,1.8-3l0.2-0.5l0.4,0.4c1.5,1.4,3.1,2.1,5,2.3l-0.1,0.7
							c-1.9-0.2-3.5-0.9-5-2.1C26.8,23.2,26.2,24.2,25.3,25z"/>
					</g>
				</g>
				<g>
					<rect x="28.3" y="34.3" class="st0" width="0.7" height="6.2"/>
				</g>
			</g>
			<g>
				<path class="st1" d="M28.7,40.9c-6.9,0-12.5-5.6-12.5-12.5c0-6.9,5.6-12.5,12.5-12.5s12.5,5.6,12.5,12.5
					C41.1,35.3,35.6,40.9,28.7,40.9z M28.7,16.7c-6.5,0-11.7,5.3-11.7,11.7c0,6.5,5.3,11.7,11.7,11.7c6.5,0,11.7-5.3,11.7-11.7
					C40.4,21.9,35.2,16.7,28.7,16.7z"/>
			</g>
		</g>
		<g>
			<path class="st0" d="M38.2,28.4h-0.7c0-1.7-0.5-3.3-1.3-4.7l0.6-0.4C37.7,24.9,38.2,26.6,38.2,28.4z"/>
		</g>
		<g>
			<path class="st0" d="M19.6,31.2c-0.3-0.9-0.4-1.9-0.4-2.8c0-2.2,0.8-4.3,2.1-6l0.6,0.5c-1.3,1.6-2,3.6-2,5.6
				c0,0.9,0.1,1.8,0.4,2.6L19.6,31.2z"/>
		</g>
	</g>
	<g>
		<g>
			<g>
				<path class="st1" d="M44.7,45.9c-0.4,0-0.9-0.2-1.3-0.6c-0.3-0.3-0.6-0.8-0.7-1.2c-0.1-0.5,0-1,0.3-1.3c0.2-0.2,0.5-0.3,0.9-0.3
					c0.6,0,1.2,0.3,1.6,0.7c0.3,0.3,0.5,0.8,0.6,1.2c0,0.4-0.1,0.8-0.4,1.1C45.5,45.7,45.1,45.9,44.7,45.9z M44,43.2
					c-0.1,0-0.3,0-0.4,0.1c-0.1,0.1-0.2,0.3-0.1,0.6c0.1,0.3,0.2,0.6,0.5,0.9c0.2,0.2,0.5,0.4,0.8,0.4c0.2,0,0.4-0.1,0.5-0.2
					c0.2-0.2,0.2-0.3,0.2-0.6c0-0.2-0.1-0.5-0.4-0.7C44.8,43.4,44.3,43.2,44,43.2z"/>
			</g>
			<g>
				<path class="st1" d="M41.6,44.3c-0.6,0-1.2-0.3-1.9-0.9c-0.1-0.1-1-1-1.2-1.3l-0.2-0.2l3.9-3.9l0.2,0.2c0.2,0.2,1.2,1.1,1.3,1.2
					c1.5,1.5,1,2.7,0.3,3.7l-0.6-0.4c0.6-1,0.8-1.8-0.2-2.8c-0.2-0.2-0.6-0.6-0.9-0.9l-2.9,2.9c0.3,0.3,0.7,0.8,0.9,0.9
					c1,1,1.8,0.9,2.8,0.2l0.4,0.6C42.8,44,42.2,44.3,41.6,44.3z"/>
			</g>
		</g>
		<g>
			<g>
				<path class="st1" d="M13.4,14.4c-0.6,0-1.2-0.3-1.6-0.7c-0.3-0.3-0.5-0.8-0.6-1.2c0-0.4,0.1-0.8,0.4-1.1c0.3-0.3,0.6-0.4,1-0.4
					c0.4,0,0.9,0.2,1.3,0.6c0.7,0.7,1,1.9,0.4,2.5C14.1,14.2,13.8,14.4,13.4,14.4z M12.6,11.6c-0.2,0-0.4,0.1-0.5,0.2
					c-0.2,0.2-0.2,0.3-0.2,0.6c0,0.2,0.1,0.5,0.4,0.7c0.3,0.3,0.7,0.5,1.1,0.5c0.1,0,0.3,0,0.4-0.1c0.3-0.3,0.1-1-0.4-1.5
					C13.2,11.8,12.9,11.6,12.6,11.6z"/>
			</g>
			<g>
				<path class="st1" d="M15.2,18.8L15,18.6c-0.2-0.2-1.2-1.1-1.3-1.2c-1.5-1.5-1-2.7-0.3-3.7l0.6,0.4c-0.6,1-0.8,1.8,0.2,2.8
					c0.2,0.2,0.6,0.6,0.9,0.9l2.9-2.9c-0.3-0.3-0.7-0.8-0.9-0.9c-1-1-1.8-0.9-2.8-0.2L14,13.1c1-0.7,2.2-1.2,3.7,0.3
					c0.1,0.1,1,1,1.2,1.3l0.2,0.2L15.2,18.8z"/>
			</g>
		</g>
	</g>
	<g>
		<g>
			<g>
				<path class="st1" d="M12.6,45.9c-0.4,0-0.7-0.1-1-0.4c-0.3-0.3-0.4-0.7-0.4-1.1c0-0.4,0.2-0.8,0.6-1.2c0.4-0.4,1.1-0.7,1.6-0.7
					c0.4,0,0.7,0.1,0.9,0.3c0.3,0.3,0.4,0.8,0.3,1.3c-0.1,0.4-0.3,0.9-0.7,1.2C13.5,45.7,13.1,45.9,12.6,45.9z M13.4,43.2
					c-0.4,0-0.8,0.2-1.1,0.5c-0.2,0.2-0.3,0.5-0.4,0.7c0,0.2,0.1,0.4,0.2,0.6c0.1,0.1,0.3,0.2,0.5,0.2c0.3,0,0.5-0.1,0.8-0.4
					c0.2-0.2,0.4-0.6,0.5-0.9c0.1-0.3,0-0.5-0.1-0.6C13.7,43.2,13.5,43.2,13.4,43.2z"/>
			</g>
			<g>
				<path class="st1" d="M15.8,44.3c-0.6,0-1.2-0.3-1.8-0.6l0.4-0.6c1,0.6,1.8,0.8,2.8-0.2c0.2-0.2,0.6-0.6,0.9-0.9L15.2,39
					c-0.3,0.3-0.8,0.7-0.9,0.9c-1,1-0.9,1.8-0.2,2.8l-0.6,0.4c-0.7-1-1.2-2.2,0.3-3.7c0.1-0.1,1-1,1.3-1.2l0.2-0.2l3.9,3.9l-0.2,0.2
					c-0.2,0.2-1.1,1.2-1.2,1.3C17,44.1,16.4,44.3,15.8,44.3z"/>
			</g>
		</g>
		<g>
			<g>
				<path class="st1" d="M44,14.4c-0.4,0-0.7-0.1-0.9-0.3c-0.6-0.6-0.3-1.8,0.4-2.5c0.4-0.4,0.8-0.6,1.3-0.6c0.4,0,0.7,0.1,1,0.4
					c0.3,0.3,0.4,0.7,0.4,1.1c0,0.4-0.2,0.8-0.6,1.2C45.1,14.1,44.5,14.4,44,14.4z M44.7,11.6c-0.3,0-0.5,0.1-0.8,0.4
					c-0.5,0.5-0.7,1.2-0.4,1.5c0.1,0.1,0.3,0.1,0.4,0.1c0.4,0,0.8-0.2,1.1-0.5c0.2-0.2,0.3-0.5,0.4-0.7c0-0.2-0.1-0.4-0.2-0.6
					C45.1,11.7,44.9,11.6,44.7,11.6z"/>
			</g>
			<g>
				<path class="st1" d="M42.1,18.8l-3.9-3.9l0.2-0.2c0.2-0.2,1.1-1.2,1.2-1.3c1.5-1.5,2.7-1,3.7-0.3l-0.4,0.6
					c-1-0.6-1.8-0.8-2.8,0.2c-0.2,0.2-0.6,0.6-0.9,0.9l2.9,2.9c0.3-0.3,0.8-0.7,0.9-0.9c1-1,0.9-1.8,0.2-2.8l0.6-0.4
					c0.7,1,1.2,2.2-0.3,3.7c-0.1,0.1-1,1-1.3,1.2L42.1,18.8z"/>
			</g>
		</g>
	</g>
	<g>
		<g>
			<path class="st0" d="M28.7,11.7c-1.1,0-1.9-0.9-1.9-1.9c0-1.1,0.9-1.9,1.9-1.9c1.1,0,1.9,0.9,1.9,1.9
				C30.6,10.9,29.7,11.7,28.7,11.7z M28.7,8.6c-0.7,0-1.2,0.5-1.2,1.2c0,0.7,0.5,1.2,1.2,1.2c0.7,0,1.2-0.5,1.2-1.2
				C29.9,9.1,29.3,8.6,28.7,8.6z"/>
		</g>
		<g>
			<path class="st0" d="M28.7,48.9c-1.1,0-1.9-0.9-1.9-1.9c0-1.1,0.9-1.9,1.9-1.9c1.1,0,1.9,0.9,1.9,1.9
				C30.6,48.1,29.7,48.9,28.7,48.9z M28.7,45.8c-0.7,0-1.2,0.5-1.2,1.2c0,0.7,0.5,1.2,1.2,1.2c0.7,0,1.2-0.5,1.2-1.2
				C29.9,46.3,29.3,45.8,28.7,45.8z"/>
		</g>
	</g>
	<g>
		<g>
			<path class="st0" d="M47.3,30.3c-1.1,0-1.9-0.9-1.9-1.9c0-1.1,0.9-1.9,1.9-1.9c1.1,0,1.9,0.9,1.9,1.9
				C49.2,29.5,48.3,30.3,47.3,30.3z M47.3,27.2c-0.7,0-1.2,0.5-1.2,1.2c0,0.7,0.5,1.2,1.2,1.2c0.7,0,1.2-0.5,1.2-1.2
				C48.5,27.7,47.9,27.2,47.3,27.2z"/>
		</g>
		<g>
			<path class="st0" d="M10.1,30.3c-1.1,0-1.9-0.9-1.9-1.9c0-1.1,0.9-1.9,1.9-1.9s1.9,0.9,1.9,1.9C12,29.5,11.2,30.3,10.1,30.3z
				 M10.1,27.2c-0.7,0-1.2,0.5-1.2,1.2c0,0.7,0.5,1.2,1.2,1.2c0.7,0,1.2-0.5,1.2-1.2C11.3,27.7,10.8,27.2,10.1,27.2z"/>
		</g>
	</g>
	<g>
		
			<rect x="16.2" y="17.9" transform="matrix(0.7071 0.7071 -0.7071 0.7071 18.3058 -7.7396)" class="st1" width="4.6" height="0.7"/>
	</g>
	<g>
		
			<rect x="36.6" y="38.2" transform="matrix(0.7071 0.7071 -0.7071 0.7071 38.6661 -16.1726)" class="st1" width="4.6" height="0.7"/>
	</g>
	<g>
		<rect x="38.5" y="15.9" transform="matrix(0.707 0.7072 -0.7072 0.707 24.2769 -22.1387)" class="st1" width="0.7" height="4.6"/>
	</g>
	<g>
		<rect x="18.1" y="36.3" transform="matrix(0.7072 0.707 -0.707 0.7072 32.6982 -1.7778)" class="st1" width="0.7" height="4.6"/>
	</g>
	<g>
		<rect x="28.3" y="11.4" class="st0" width="0.7" height="3.2"/>
	</g>
	<g>
		<rect x="28.3" y="42.2" class="st0" width="0.7" height="3.2"/>
	</g>
	<g>
		<rect x="42.5" y="28" class="st0" width="3.2" height="0.7"/>
	</g>
	<g>
		<rect x="11.7" y="28" class="st0" width="3.2" height="0.7"/>
	</g>
</g>
</svg>
