<?xml version="1.0" encoding="utf-8"?>
<!-- Generator: Adobe Illustrator 19.1.0, SVG Export Plug-In . SVG Version: 6.00 Build 0)  -->
<svg version="1.1" id="Layer_1" xmlns="http://www.w3.org/2000/svg" xmlns:xlink="http://www.w3.org/1999/xlink" x="0px" y="0px"
	 viewBox="0 0 85 85" style="enable-background:new 0 0 85 85;" xml:space="preserve">
<style type="text/css">
	.st0{fill-rule:evenodd;clip-rule:evenodd;fill:#FFFFFF;}
	.st1{fill-rule:evenodd;clip-rule:evenodd;fill:#005D9F;}
</style>
<g>
	<polygon class="st0" points="0,0 85,0 85,85 0,85 0,0 	"/>
	<path class="st1" d="M17.9,30.7v22.6c0,0.6-0.1,0.9,0.1,1.2c0.1,0.2,0.3,0.3,0.5,0.3c0.2,0,0.4-0.1,0.6-0.3
		c0.2-0.3,0.2-0.6,0.2-1.3V30.7h1.1v23.1c0,1.6-0.6,2.4-1.8,2.4c-0.5,0-1-0.2-1.3-0.5c-0.3-0.4-0.5-1-0.5-1.8V30.7H17.9L17.9,30.7z"
		/>
	<polygon class="st1" points="27.8,30.7 29.5,45.3 29.5,30.7 30.3,30.7 30.3,56 29.2,56 27.4,40.5 27.4,56 26.5,56 26.5,30.7 
		27.8,30.7 	"/>
	<polygon class="st1" points="39.5,31.8 37.8,31.8 37.8,42.1 39.5,42.1 39.5,43 37.8,43 37.8,55 39.7,55 39.7,56 36.3,56 36.3,30.7 
		39.5,30.7 39.5,31.8 	"/>
	<polygon class="st1" points="13,27.2 72.6,27.2 72.6,29.3 13,29.3 13,27.2 	"/>
	<polygon class="st1" points="13,57.9 72.6,57.9 72.6,60 13,60 13,57.9 	"/>
	<polygon class="st1" points="9.2,62.2 75.9,62.2 75.9,64.3 9.2,64.3 9.2,62.2 	"/>
	<polygon class="st1" points="5.8,66.3 79.2,66.3 79.2,68.5 5.8,68.5 5.8,66.3 	"/>
	<polygon class="st1" points="12.9,24.8 12.9,22.5 42.5,13.9 72.5,22.4 72.5,24.6 42.2,16.4 12.9,24.8 	"/>
	<polygon class="st1" points="19.7,24.8 42.8,18.1 65.7,24.8 59.5,24.8 42.8,20.2 26.1,24.6 19.7,24.8 	"/>
	<path class="st1" d="M48,38h1.3v-4.9c0,0,0-1.4-0.4-1.8c-0.3-0.4-0.8-0.7-1.6-0.7c-0.9,0-1.1,0.3-1.4,0.6c-0.3,0.4-0.5,1-0.5,1.7
		c0,0.7,0,3.7,0.1,4.7c0.1,1,1.1,5,1.6,7c0.5,2,0.7,3,0.8,3.5c0,0.6,0.1,2.5,0,3.5c0,1,0,2.3,0,2.3s0.1,1.1-0.5,1.1
		c-0.6,0-0.6-1.1-0.6-1.1v-6h-1.3v6c0,0-0.3,2.2,1.7,2.2c2.1,0,2.1-1.9,2.1-1.9v-5.5c0,0-0.1-1.8-0.4-3.1c-0.3-1.2-1.4-5.1-1.7-6.2
		c-0.3-1.2-0.4-2.9-0.4-4.4c0-1.5,0-2.5,0-2.5s0-0.7,0.5-0.7c0.5,0,0.5,0.8,0.5,0.8L48,38L48,38z"/>
	<path class="st1" d="M57.9,38.1H59v-5.9c0-0.9-0.5-1.8-1.8-1.8c-1.2,0-1.8,0.9-1.8,1.9v22.2c0,1,0.7,1.8,1.8,1.8
		c1.3,0,1.8-0.9,1.8-1.8v-6.6h-1.1v6.6c0,0.3,0,0.7-0.6,0.7c-0.7,0-0.6-0.6-0.6-0.9v-22c0-0.2-0.1-0.9,0.6-0.9
		c0.7,0,0.6,0.4,0.6,0.8V38.1L57.9,38.1z"/>
	<path class="st1" d="M67.3,30.4c-1.2,0-2,0.9-2,1.9v22.2c0,1,0.8,1.8,2,1.8c1.3,0,1.9-0.9,1.9-1.8V32.2
		C69.2,31.3,68.6,30.4,67.3,30.4L67.3,30.4z M68.1,54.4c0,0.3-0.1,0.7-0.8,0.7c-0.7,0-0.8-0.6-0.8-0.9v-22c0-0.2,0.1-0.9,0.8-0.9
		c0.7,0,0.8,0.4,0.8,0.8V54.4L68.1,54.4z"/>
</g>
</svg>
