<?xml version="1.0" encoding="utf-8"?>
<!-- Generator: Adobe Illustrator 19.1.0, SVG Export Plug-In . SVG Version: 6.00 Build 0)  -->
<svg version="1.1" xmlns="http://www.w3.org/2000/svg" xmlns:xlink="http://www.w3.org/1999/xlink" x="0px" y="0px"
	 viewBox="-269 392.2 56.7 56.7" style="enable-background:new -269 392.2 56.7 56.7;" xml:space="preserve">
<style type="text/css">
	.st0{fill:#C0A862;}
	.st1{fill:#FFFFFF;}
</style>
<g id="Layer_1">
	<g>
		<g>
			<g>
				<path d="M-247.7,438.4c-0.1,0-0.3-0.1-0.4-0.2l-5.4-5.4h-0.9c-1.5,0-2.8-1.2-2.8-2.8v-17.8c0-1.5,1.2-2.8,2.8-2.8h9.5v1.1h-9.5
					c-0.9,0-1.7,0.7-1.7,1.7v17.8c0,0.9,0.7,1.7,1.7,1.7h1.1c0.1,0,0.3,0.1,0.4,0.2l4.6,4.6v-4.2c0-0.3,0.2-0.6,0.6-0.6h10
					c0.9,0,1.7-0.7,1.7-1.7v-5.6c0-0.3,0.2-0.6,0.6-0.6h2.7l-3.2-7.6c0-0.1,0-0.1,0-0.2v-3.9c0-0.9-0.7-1.7-1.7-1.7h-3.9v-1.1h3.9
					c1.5,0,2.8,1.2,2.8,2.8v3.8l3.3,7.7c0,0.1,0,0.1,0,0.2v0.6c0,0.3-0.2,0.6-0.6,0.6h-2.8v5c0,1.5-1.2,2.8-2.8,2.8h-9.5v5
					c0,0.2-0.1,0.4-0.3,0.5C-247.6,438.4-247.7,438.4-247.7,438.4z"/>
			</g>
			<g>
				<path d="M-231,434c-0.1,0-0.1,0-0.2,0c-0.2-0.1-0.3-0.3-0.3-0.5v-5h-2.2v-1.1h2.8c0.3,0,0.6,0.2,0.6,0.6v4.2l4.6-4.6
					c0.1-0.1,0.2-0.2,0.4-0.2h1.1c0.9,0,1.7-0.7,1.7-1.7v-17.8c0-0.9-0.7-1.7-1.7-1.7H-241c-0.9,0-1.7,0.7-1.7,1.7v5
					c0,0.1,0,0.2,0,0.2l-3.2,7.6h2.7c0.3,0,0.6,0.2,0.6,0.6v4.5c0,0.9,0.7,1.7,1.7,1.7h3.9v1.1h-3.9c-1.5,0-2.8-1.2-2.8-2.8v-3.9
					h-2.8c-0.3,0-0.6-0.2-0.6-0.6v-0.6c0-0.1,0-0.2,0-0.2l3.3-7.7v-4.9c0-1.5,1.2-2.8,2.8-2.8h16.7c1.5,0,2.8,1.2,2.8,2.8v17.8
					c0,1.5-1.2,2.8-2.8,2.8h-0.9l-5.4,5.4C-230.7,433.9-230.9,434-231,434z"/>
			</g>
			<g>
				<rect x="-232.7" y="409.5" width="7.8" height="1.1"/>
			</g>
			<g>
				<rect x="-232.7" y="411.7" width="7.8" height="1.1"/>
			</g>
			<g>
				<rect x="-232.7" y="413.9" width="5.6" height="1.1"/>
			</g>
			<g>
				<rect x="-253.9" y="412.8" width="6.7" height="1.1"/>
			</g>
			<g>
				<rect x="-253.9" y="415" width="6.7" height="1.1"/>
			</g>
			<g>
				<rect x="-253.9" y="417.3" width="4.5" height="1.1"/>
			</g>
		</g>
	</g>
</g>
<g id="Layer_2">
	<circle class="st0" cx="-227.3" cy="434.1" r="10"/>
	<g>
		<path class="st1" d="M-228.5,436.7l0-0.5c-0.1-1,0.2-2,1.1-3.1c0.8-1,1.3-1.7,1.3-2.5c0-0.9-0.6-1.5-1.7-1.6
			c-0.6,0-1.4,0.2-1.8,0.6l-0.4-1.1c0.6-0.4,1.6-0.7,2.6-0.7c2.1,0,3,1.3,3,2.7c0,1.2-0.7,2.1-1.6,3.1c-0.8,0.9-1.1,1.7-1,2.7l0,0.5
			H-228.5z M-228.9,439.3c0-0.7,0.5-1.1,1.1-1.1c0.6,0,1.1,0.5,1.1,1.1c0,0.6-0.4,1.1-1.1,1.1C-228.4,440.4-228.9,439.9-228.9,439.3
			z"/>
	</g>
</g>
</svg>
