<?xml version="1.0" encoding="utf-8"?>
<!-- Generator: Adobe Illustrator 19.1.0, SVG Export Plug-In . SVG Version: 6.00 Build 0)  -->
<svg version="1.1" id="Layer_1" xmlns="http://www.w3.org/2000/svg" xmlns:xlink="http://www.w3.org/1999/xlink" x="0px" y="0px"
	 viewBox="0 0 85 85" style="enable-background:new 0 0 85 85;" xml:space="preserve">
<style type="text/css">
	.st0{fill:#4B92DB;}
</style>
<g>
	<path class="st0" d="M53.8,76.7c-0.5,0.6-1.1,1.1-1.7,1.5c-3.8-3.9-8.3-8.3-12.5-8.3c-2.6,0-4.5,2-6.7,3.4c-3.1,2-7.3,3.1-10.9,1.6
		c-1.9-0.7-3.8-1.8-5.2-3.6c2.8,2,7.1,2.2,10.3,0.9c3.5-1.5,7.1-3.4,11.2-3.4C44.2,68.9,49.9,72.9,53.8,76.7L53.8,76.7z M9.9,64.4
		c3.9,4.5,10.4,3,15.6,4.2c0.7,0.2,1.4,0.4,2.2,0.3c-0.6-0.4-1.5-0.4-2.2-0.7c-4.1-1.5-4.7-5.9-7-8.9c2.9,1.9,5.2,4.5,7.9,6.9
		c1.9,1.7,4.2,2.4,6.6,2.9c-0.6,0.2-1.3,0.2-2,0.3c-4.3,1.1-9.1,2.8-13.7,1.2C14.4,69.6,11.3,67.3,9.9,64.4L9.9,64.4z M3.5,54
		c2.5,5.6,8.6,6,12.7,9.4c0.8,0.6,1.6,1.2,2.4,1.6l0,0c-0.9-0.9-2-1.9-2.7-2.9c-2.3-3.4-1.6-8.1-3.4-11.7c1.6,2,3.2,4,4.1,6.2
		c1.5,3.6,2,7.8,5.5,10.5c-3.7-1.2-8-1-11.3-3.2C7.4,61.7,4.2,58.1,3.5,54L3.5,54z M0.9,42.7c0.4,4.9,5.6,7.5,8.1,11.6
		c0.5,0.9,1.1,1.7,1.8,2.4c-0.1-0.5-0.5-1-0.8-1.5c-0.8-1.7-1.2-3.7-1-5.8c0.2-2.5,1.3-4.8,0.9-7.5c2.1,4.6,1.5,10.4,2.7,15.4
		c0.3,1.1,0.9,2.1,1.4,3.1c-2.1-1.6-4.9-3-7.2-4.9c-2.2-1.8-4.2-3.8-5.2-6.5C0.9,47.2,0.7,44.9,0.9,42.7L0.9,42.7z M1,33.7
		c0.3-1.1,0.4-2.2,0.9-3.2c-0.9,4.6,2.2,8,3.2,12c0.4,1.5,0.5,3.1,1.1,4.5c0.1,0,0.1,0,0.1-0.1C5,42.6,7.2,38.7,9.4,35.3
		c0.6-0.9,0.8-1.9,1.1-2.9c0.2,1.9-0.2,4.2-0.5,6.1c-0.5,2.6-1.3,5-2,7.4c-0.5,1.5-0.3,3.3-0.1,4.9l-0.2-0.2c-1.6-3-4.8-5.3-5.8-8.6
		C1,39.5,0.5,36.5,1,33.7L1,33.7z M2.8,28.7c0-3.5,1.4-6.4,3.4-9c0.1,0,0.1-0.1,0.2-0.1c-2.3,3.4-0.2,7.7-0.5,11.6l-0.3,4
		c0,0,0,0.1,0.1,0.1C5.8,35,5.9,34.5,5.9,34c0.5-3.2,3.4-5.4,5.8-7.7c0.6-0.5,1-1.2,1.2-1.9c-0.2,1.6-0.6,3.2-1.4,4.7
		c-1.8,3.7-5.4,6.7-6,11C5.2,36.1,2.8,33,2.8,28.7L2.8,28.7z M8.7,16.9c1.1-1.3,2.4-2.2,3.9-2.6c-2.9,2-2.8,5.6-3.7,8.6
		c-0.3,1.1-0.8,2.1-1.1,3.3l0.1,0.1c0.5-1.3,1.3-2.5,2.4-3.6c2.1-1.9,5.2-3.1,6.2-6c0,4-3.4,7-6.5,9.3c-1.4,1-2.6,2.4-3.3,3.9
		c0.1-1.1,0.2-2,0.1-3.1C6.5,23.4,6.3,19.5,8.7,16.9L8.7,16.9z M20.6,10.3c-2.2,1.9-3.6,4.4-5.3,6.6c-1.4,1.8-3.3,3-4.9,4.5
		c0.9-1.8,1-3.9,2.2-5.7C14.4,12.6,17.6,11.4,20.6,10.3L20.6,10.3z"/>
	<path class="st0" d="M31.4,76.7c0.5,0.6,1.1,1.1,1.7,1.5c3.8-3.9,8.3-8.3,12.5-8.3c2.6,0,4.5,2,6.7,3.4c3.1,2,7.3,3.1,10.9,1.6
		c1.9-0.7,3.8-1.8,5.2-3.6c-2.8,2-7.1,2.2-10.3,0.9c-3.5-1.5-7.1-3.4-11.2-3.4C41,68.9,35.3,72.9,31.4,76.7L31.4,76.7z M75.3,64.4
		c-3.9,4.5-10.4,3-15.6,4.2c-0.7,0.2-1.4,0.4-2.2,0.3c0.6-0.4,1.5-0.4,2.2-0.7c4.1-1.5,4.7-5.9,7-8.9c-2.9,1.9-5.2,4.5-7.9,6.9
		c-1.9,1.7-4.2,2.4-6.6,2.9c0.6,0.2,1.3,0.2,2,0.3c4.3,1.1,9.1,2.8,13.7,1.2C70.8,69.6,73.8,67.3,75.3,64.4L75.3,64.4z M81.7,54
		c-2.5,5.6-8.6,6-12.7,9.4c-0.8,0.6-1.6,1.2-2.4,1.6l0,0c0.9-0.9,2-1.9,2.7-2.9c2.3-3.4,1.6-8.1,3.4-11.7c-1.6,2-3.2,4-4.1,6.2
		c-1.5,3.6-2,7.8-5.5,10.5c3.7-1.2,8-1,11.3-3.2C77.7,61.7,81,58.1,81.7,54L81.7,54z M84.3,42.7c-0.4,4.9-5.6,7.5-8.1,11.6
		c-0.5,0.9-1.1,1.7-1.9,2.4c0.1-0.5,0.6-1,0.8-1.5c0.8-1.7,1.2-3.7,1-5.8c-0.2-2.5-1.3-4.8-0.9-7.5c-2.1,4.6-1.5,10.4-2.7,15.4
		c-0.3,1.1-0.9,2.1-1.4,3.1c2.1-1.6,4.9-3,7.2-4.9c2.2-1.8,4.2-3.8,5.2-6.5C84.3,47.2,84.5,44.9,84.3,42.7L84.3,42.7z M84.1,33.7
		c-0.3-1.1-0.4-2.2-0.9-3.2c0.9,4.6-2.2,8-3.2,12c-0.4,1.5-0.5,3.1-1.1,4.5c-0.1,0-0.1,0-0.1-0.1c1.5-4.3-0.7-8.2-2.9-11.5
		c-0.6-0.9-0.8-1.9-1.1-2.9c-0.2,1.9,0.2,4.2,0.5,6.1c0.5,2.6,1.3,5,2,7.4c0.5,1.5,0.3,3.3,0.1,4.9l0.2-0.2c1.6-3,4.8-5.3,5.8-8.6
		C84.1,39.5,84.7,36.5,84.1,33.7L84.1,33.7z M82.4,28.7c0-3.5-1.4-6.4-3.4-9c-0.1,0-0.1-0.1-0.2-0.1c2.2,3.4,0.2,7.7,0.5,11.6l0.3,4
		c0,0,0,0.1-0.1,0.1c-0.1-0.4-0.2-0.9-0.3-1.4c-0.5-3.2-3.4-5.4-5.8-7.7c-0.6-0.5-1-1.2-1.2-1.9c0.2,1.6,0.6,3.2,1.4,4.7
		c1.8,3.7,5.4,6.7,6,11C79.9,36.1,82.4,33,82.4,28.7L82.4,28.7z M76.5,16.9c-1.1-1.3-2.4-2.2-3.9-2.6c2.9,2,2.8,5.6,3.7,8.6
		c0.3,1.1,0.8,2.1,1.1,3.3l-0.1,0.1c-0.5-1.3-1.3-2.5-2.4-3.6c-2.1-1.9-5.2-3.1-6.2-6c0,4,3.4,7,6.5,9.3c1.4,1,2.6,2.4,3.3,3.9
		c-0.1-1.1-0.2-2-0.1-3.1C78.7,23.4,78.9,19.5,76.5,16.9L76.5,16.9z M64.6,10.3c2.2,1.9,3.6,4.4,5.3,6.6c1.4,1.8,3.3,3,4.9,4.5
		c-0.9-1.8-1-3.9-2.2-5.7C70.7,12.6,67.6,11.4,64.6,10.3L64.6,10.3z"/>
	<path class="st0" d="M69.2,49.8l-0.6-0.4c-1.4,2.8-3.2,5.4-5.3,7.6l-3.8-3.8c1.8-1.9,3.3-4,4.4-6.4l-0.6-0.3
		c-1.1,2.3-2.5,4.4-4.3,6.2l-3.4-3.4c1.5-1.5,2.6-3.2,3.5-5.1l-0.6-0.3c-0.8,1.8-1.9,3.5-3.3,5l-3.8-3.8c1-1.1,1.9-2.4,2.4-3.8
		L53,41c-0.5,1.3-1.3,2.6-2.3,3.6l-3.4-3.4c1-1.1,1.5-2.4,1.6-3.9h4.8c0,1.3-0.3,2.6-0.8,3.7l0.6,0.3c0.5-1.3,0.8-2.6,0.8-4.1h5.3
		c0,2.4-0.6,4.6-1.5,6.6l0.6,0.3c1-2.2,1.5-4.5,1.5-7h4.8c-0.1,3.3-0.8,6.4-2.1,9.3l0.6,0.3c1.4-3,2.2-6.2,2.2-9.6h5.3
		c-0.1,4.4-1.1,8.5-2.9,12.2L69.2,49.8c1.9-4,2.9-8.3,2.9-12.9c0-3.9-0.7-7.6-2.1-11.1l-0.7,0.3c1.3,3.3,2,6.8,2.1,10.4h-5.3
		c0-2.9-0.6-5.7-1.7-8.3l-0.7,0.3c1,2.5,1.6,5.2,1.6,8h-4.8c0-2.1-0.5-4.2-1.2-6.1l-0.7,0.3c0.7,1.8,1.1,3.8,1.2,5.9h-5.3
		c0-1.3-0.3-2.6-0.7-3.8l-0.7,0.3c0.4,1.1,0.6,2.3,0.7,3.5H49c-0.1-1.5-0.6-2.8-1.6-3.9l3.4-3.4c1.1,1.1,1.9,2.4,2.4,3.8l0.7-0.3
		c-0.5-1.5-1.4-2.9-2.5-4.1L55,25c1.6,1.7,2.8,3.6,3.6,5.7l0.7-0.3c-0.8-2.2-2.1-4.2-3.8-5.9l3.4-3.4c2.1,2.2,3.7,4.7,4.8,7.4
		l0.7-0.3c-1.1-2.8-2.8-5.4-5-7.7l3.8-3.8c2.7,2.7,4.7,5.9,6.1,9.3l0.7-0.3c-1.5-3.6-3.7-7-6.5-9.8c-2.9-2.9-6.2-5.1-9.8-6.5
		l-0.3,0.7c3.4,1.4,6.6,3.4,9.3,6.1l-3.8,3.8c-2.2-2.1-4.8-3.8-7.5-4.9l-0.3,0.7c2.7,1.1,5.1,2.7,7.3,4.8L55,24
		c-1.7-1.6-3.6-2.8-5.6-3.7L49.1,21c2,0.8,3.8,2,5.4,3.5l-3.8,3.8c-1.1-1-2.3-1.8-3.6-2.3l-0.3,0.7c1.2,0.5,2.3,1.2,3.3,2.2
		l-3.4,3.4c-1.1-1-2.4-1.5-3.9-1.6v-4.8c1.4,0,2.7,0.3,4,0.9l0.3-0.7c-1.3-0.6-2.8-0.9-4.2-0.9v-5.3c2.2,0,4.2,0.5,6.2,1.3l0.3-0.7
		c-2-0.8-4.2-1.3-6.4-1.3v-4.8c2.9,0,5.6,0.6,8.2,1.7l0.3-0.7c-2.7-1.1-5.5-1.7-8.5-1.7V8.1c3.6,0,7.1,0.8,10.4,2.1l0.3-0.7
		c-3.5-1.4-7.2-2.1-11-2.1c-4.7,0-9.2,1.1-13.2,3.1l0.3,0.6c3.8-1.9,8.1-3,12.5-3v5.3c-3.6,0.1-7,0.9-10.1,2.4l0.3,0.6
		c3-1.5,6.3-2.3,9.7-2.3V19c-2.7,0.1-5.2,0.7-7.5,1.8l0.3,0.6c2.2-1.1,4.6-1.7,7.2-1.7V25c-1.7,0-3.3,0.4-4.7,1.1l0.3,0.6
		c1.4-0.6,2.8-1,4.4-1v4.8c-0.7,0-1.5,0.2-2.1,0.5l0.3,0.6c0.7-0.3,1.4-0.4,2.2-0.4c1.5,0,2.9,0.6,4,1.7c1.1,1.1,1.7,2.5,1.7,4
		c0,3.1-2.5,5.7-5.7,5.7c-1.5,0-2.9-0.6-4-1.7c-1.1-1.1-1.7-2.5-1.7-4c0-1.5,0.6-2.9,1.7-4c0.5-0.5,1.2-1,1.9-1.2L40.1,31
		c-0.7,0.3-1.3,0.7-1.8,1.1l-3.4-3.4c0.9-0.8,1.9-1.5,2.9-2l-0.3-0.6c-1.2,0.5-2.2,1.3-3.1,2.1l-3.8-3.8c1.3-1.3,2.8-2.3,4.4-3.1
		l-0.3-0.6c-1.7,0.8-3.2,1.9-4.6,3.2l-3.4-3.4c1.7-1.7,3.7-3,5.8-4.1l-0.3-0.6C30,17,28,18.4,26.2,20.1l-3.8-3.8
		c2.2-2.1,4.6-3.8,7.2-5.2l-0.3-0.6c-5.7,2.9-10.4,7.6-13.3,13.4l0.6,0.3c1.3-2.7,3.1-5.2,5.2-7.4l3.8,3.8c-1.8,1.8-3.2,3.9-4.3,6.2
		l0.6,0.3c1.1-2.2,2.5-4.2,4.2-6l3.4,3.4c-1.4,1.4-2.5,3.1-3.4,4.9l0.6,0.3c0.8-1.7,1.9-3.3,3.2-4.8l3.8,3.8c-1,1-1.7,2.2-2.3,3.5
		l0.6,0.3c0.5-1.2,1.2-2.4,2.2-3.4l3.4,3.4c-0.9,1-1.5,2.4-1.6,3.9h-4.8c0-1.4,0.3-2.7,0.8-4l-0.6-0.3c-0.6,1.3-0.9,2.8-0.9,4.3
		h-5.3c0-2.4,0.6-4.7,1.6-6.8l-0.6-0.3c-1,2.2-1.6,4.6-1.7,7.2h-4.8c0-3.3,0.8-6.5,2.2-9.5l-0.6-0.3c-1.4,3-2.3,6.3-2.3,9.8h-5.3
		c0.1-4.3,1.1-8.5,2.9-12.3l-0.6-0.3c-1.9,3.9-3,8.4-3,13c0,2.9,0.4,5.7,1.2,8.3l0.7-0.2c-0.7-2.5-1.1-5.1-1.2-7.8h5.3
		c0,2.2,0.4,4.4,1,6.5l0.7-0.2c-0.6-2-1-4.1-1-6.3h4.8c0,1.8,0.3,3.5,0.9,5.1l0.7-0.2c-0.5-1.6-0.8-3.3-0.8-5h5.3
		c0,1.3,0.3,2.5,0.7,3.7l0.7-0.2c-0.4-1.1-0.6-2.3-0.7-3.5h4.8c0.1,1.5,0.6,2.8,1.6,3.9l-3.4,3.4c-1.1-1.1-1.9-2.4-2.4-3.8l-0.7,0.2
		c0.5,1.5,1.4,2.9,2.6,4.2l-3.8,3.8c-1.8-1.9-3.2-4.2-4-6.6l-0.7,0.2c0.8,2.6,2.2,4.9,4.2,6.9l-3.4,3.4c-2.5-2.6-4.4-5.8-5.4-9.2
		l-0.7,0.2c1.1,3.5,3,6.8,5.6,9.5L22,57c-3.3-3.4-5.7-7.5-7-12l-0.7,0.2c1.4,4.7,3.9,9,7.5,12.6c2.4,2.4,5.2,4.3,8.1,5.8l0.4-0.6
		c-2.8-1.3-5.4-3.2-7.7-5.4l3.8-3.8c2,1.9,4.2,3.4,6.6,4.5l0.4-0.6c-2.4-1.1-4.5-2.5-6.4-4.4l3.4-3.4c1.6,1.5,3.4,2.7,5.4,3.6
		l0.4-0.6c-1.9-0.8-3.7-2-5.3-3.5l3.8-3.8c1.2,1.1,2.6,2,4.1,2.5l0.4-0.6c-1.5-0.5-2.8-1.3-4-2.4l3.4-3.4c1.1,1,2.4,1.5,3.9,1.6v4.8
		c-1.1,0-2.3-0.2-3.3-0.6l-0.4,0.6c1.2,0.4,2.4,0.7,3.7,0.7v5.3c-2.2,0-4.3-0.5-6.3-1.3l-0.4,0.6c2.1,0.9,4.3,1.4,6.7,1.4v4.8
		c-3.2,0-6.2-0.7-9-2l-0.4,0.6c2.9,1.3,6.1,2.1,9.4,2.1v5.3c-4.2-0.1-8.3-1-12-2.8l-0.4,0.6c3.9,1.9,8.3,2.9,12.7,2.9
		c4.7,0,9.2-1.1,13.3-3.2l-0.3-0.7c-3.8,1.9-8.1,3-12.6,3.1v-5.3c3.6-0.1,7.1-0.9,10.2-2.5l-0.3-0.6c-3,1.5-6.3,2.4-9.8,2.4v-4.8
		c2.7-0.1,5.3-0.7,7.6-1.9l-0.3-0.6c-2.2,1.1-4.7,1.7-7.3,1.8v-5.3c1.7-0.1,3.4-0.5,4.9-1.2L47.5,47c-1.4,0.7-2.9,1.1-4.5,1.1v-4.8
		c1.5-0.1,2.8-0.6,3.9-1.6l3.4,3.4c-0.8,0.8-1.7,1.4-2.8,1.9l0.3,0.6c1.1-0.5,2.1-1.2,2.9-2l3.8,3.8c-1.3,1.2-2.7,2.2-4.3,3l0.3,0.6
		c1.6-0.8,3.1-1.9,4.4-3.1l3.4,3.4c-1.7,1.6-3.6,3-5.6,4l0.3,0.6c2.1-1.1,4.1-2.4,5.8-4.1l3.8,3.8c-2.1,2-4.5,3.8-7.1,5.1l0.3,0.7
		c2.8-1.4,5.3-3.2,7.6-5.5C65.8,55.4,67.7,52.7,69.2,49.8L69.2,49.8L69.2,49.8z"/>
	<polygon class="st0" points="44.1,30.1 44.1,30.3 44.3,30.3 44.3,30.1 44.1,30.1 	"/>
	<polygon class="st0" points="43.8,30 44.1,30 44.1,29.8 43.8,29.8 43.8,30 	"/>
	<polygon class="st0" points="43.6,29.8 43.6,29.6 43.4,29.6 43.4,29.7 43.6,29.8 	"/>
	<polygon class="st0" points="43.2,29.7 43,29.7 43.1,29.5 43.3,29.5 43.2,29.7 	"/>
	<polygon class="st0" points="41.5,29.6 41.8,29.6 41.8,29.4 41.5,29.4 41.5,29.6 	"/>
	<polygon class="st0" points="41.2,29.8 41.2,29.7 41,29.6 41,29.8 41.2,29.8 	"/>
	<polygon class="st0" points="41,30.1 40.8,30 40.8,29.8 41.1,29.9 41,30.1 	"/>
	<polygon class="st0" points="40.6,30.3 40.6,30.1 40.7,30.1 40.8,30.3 40.6,30.3 	"/>
	<polygon class="st0" points="17.1,48.5 17,48.5 17,48.8 17.2,48.8 17.2,49.2 17.4,49.2 17.4,48.8 17.1,48.7 17.1,48.5 	"/>
	<polygon class="st0" points="18.8,50.8 18.7,50.5 18.5,49.9 18.9,50.1 19.1,50.6 19.3,50.7 19.5,51.2 19.4,51.4 19,51.1 18.8,50.8 
			"/>
	<polygon class="st0" points="25.5,59.2 25.3,58.8 25.6,58.9 26,59.2 26.2,59.6 25.9,59.8 25.8,59.6 25.5,59.5 25.5,59.2 	"/>
	<path class="st0" d="M41.7,32h-0.3l-0.1-0.7l0.2-0.1v-0.3h-1l0-0.3l0.1-0.1l-0.2-0.1l-0.2,0.2l-0.1,0.3L39.8,31v0.2h-0.2v0.4
		l-0.8,0.7l-1.7-0.1c-0.1,0.3-0.4,0-0.4,0c-0.1-0.2-0.5,0-0.5,0c0,0.3-0.6-0.2-0.6-0.2l-1-0.8c-0.6-0.5-1.5,0.2-1.5,0.3
		c0,0.4-0.7,0.1-0.7,0.1s-0.6-0.2-0.7,0.1c-0.1,0.2-0.5,0.2-0.5,0.2L31.1,32L30.8,32l-0.1,0.2l-0.4,0.1l0.9,0c0.2,0-0.1,0.5-0.2,0.5
		l-0.4,0l-0.1,0.2h-0.4l-0.2,0.2l-0.6,0c0,0-0.3,0.3-0.3,0.4c0,0.1-0.1,0.4-0.1,0.4c-0.1,0-0.3,0.3-0.2,0.4c0.1,0.1-0.2,0.4-0.2,0.4
		l-0.1,0.3L28.3,35v0.8L27.9,36v0.4L27.4,37l0.1,0.5L27,37.9l0.1,0.5l-0.3,0.1l-0.1,0.2l-0.1,0.6l0.3,0c0.1-0.1,0.1,0.4,0,0.5
		c-0.1,0.1-0.4,0.2-0.3,0.3c0.2,0.1-0.5,0.1-0.5-0.1c0-0.2-0.4-0.3-0.4-0.3c-0.1,0.1-0.2-0.3-0.2-0.3c-0.3-0.3-1.3,0-1.3,0L24,40
		c-0.3,0.1-0.5,0.6-0.5,0.6c-0.3,0.1-0.5,0.4-0.4,0.5c0.1,0.1-0.1,0.1-0.1,0.1v0.7l-0.1,0.2l0,0.7c0.2,0,0.1,0.3,0.1,0.3
		c-0.3,0-0.2,0.4-0.2,0.4l-0.6,0.2L22,44l-0.8,0L21,44.2L20.8,44h-1.5l-0.1-0.2l-0.3-0.1l0-0.3l-0.4,0l-0.1,0.2l-0.5,0
		c0,0.3-0.5,0.8-0.5,0.6c-0.1-0.1-0.4-0.5-0.2-0.5c0.1-0.1,0.5-0.1,0.5-0.1v-0.2l-1.1,0l-0.1,0.2l-0.4,0v0.5l-0.2,0.1
		c-0.1,0.1,0,0.4,0,0.4c0.2,0.2,0,0.5,0,0.5c-0.2,0.2,0.1,0.5,0.1,0.5c0.2,0.1-0.1,0.2-0.1,0.2c0.1,0.3,0.2,0.4,0.2,0.4
		c-0.2,0.3,0.1,0.5,0.1,0.5l0,0.5l0.2,0.1v0.3l0.1,0.2H17l0-0.8c-0.4-0.5,0.4-0.6,0.4-0.4c0,0.2,0.4,0.3,0.4,0.3
		c0.1,0.5,0.6,0.7,0.7,0.3c0.1-0.5,0.3-0.2,0.4,0c0.1,0.2,0.7,0.7,0.7,0.7h0.4l0.1,0.4c0.5,0,0.7,0,0.9,0.7c0.2,0.7,0.8,0.9,0.8,0.9
		l0.4,0c0-0.4,0.4,0.1,0.4,0.2c0,0.2,0.8,0.9,0.8,0.9l0.8,0.2l0.7,0.6l0.6-0.1h0.2c0.1-0.5,0.9,0,0.9,0.2c0.1,0.2,0.5,0.5,0.6,0.3
		c0.1-0.2,0.4-0.1,0.4,0.4c0.1,0.5,0.3,0.4,0.3,0.4l1.7,0l0.6-0.5l1.5,0c0.8,0,0.3-1.1,0.1-1.1c-0.3-0.2,0.1-1.1,0.1-1.1l-2.2-2
		c-0.5,0-0.1-0.7-0.1-0.7c0.4-0.2-0.1-0.6-0.1-0.6c0.1-0.4-0.2-0.8-0.2-0.8c-0.5-0.4-0.4-1.1-0.4-1.1v-0.5c-0.4-0.4,0.2-0.5,0.2-0.5
		c0.2-0.4-0.1-0.6-0.1-0.6l0-0.4l-0.5-0.1l-0.1-1.4l-1.1-1.5c-0.2-0.1-0.1-0.4-0.1-0.4c0.3-0.2-0.1-0.5-0.1-0.5l0-0.7l0.6-0.1
		l0.1-0.2h0.3l0-0.8c0.1-0.4,0.5-0.2,0.5-0.2l0.4,0l0.2-0.5l0.1-0.4l-0.3,0c-0.4-0.2-0.2-1-0.2-1c0.6-0.8,1.2-0.4,1.2-0.4l0.4,0
		c0.6,0.4,0.1,1.2,0.1,1.2c-0.1,0.2-0.1,0.8-0.1,0.8l0.1,1l-0.4,0.3c-0.3,0.2-0.3,0.6,0,0.7c0.2,0,0.1,0.6-0.2,0.2
		c-0.5,0,0.3,0.5,0.1,0.4c0.5,0.3,0.4-0.2,0.4-0.2l0.7-0.6c0.3-0.2,0.7,0.5,0.7,0.5c0,0.1,1.2,0,1.2,0c0.3,0.2,0.4,0.8,0.4,0.8
		c0.3-0.4,1,0,0.5,0.2c0.5,0.3,0.5,0.6,0.5,0.6c0.4-0.1,0.4,0.2,0.4,0.3c0,0.1,0.1-0.5,0.1-0.5c-0.4-0.3,0.6-0.5,0.3,0.2l-0.2,0.3
		l0.3,0.2l0,0.7c0.7-0.1,0.5-0.9,0.5-0.9l0.3-0.1c0-0.3,0.2-0.1,0.2-0.1c-0.2-1,0.5-1.2,0.5-1.2c0.4-0.1,0.4-0.9,0.4-0.9
		c-0.3-0.1-0.1-0.5,0.2-0.2c0.3,0.4-0.2-0.7-0.2-0.7l-0.2-0.2l-0.3,0l0-0.3h-0.5l-0.1,0.4L36.1,38L36,37.8L36,38.2h-0.5l0-0.4
		l0.3-0.1l0.1-0.2l0.1-0.5h0.4l0.5-0.2c0-0.5,0.3-0.4,0.3-0.4l0.2,0.2l0.3,0.2l0,0.2l-0.2,0.1l0,0.2l0.1,0.3h0.2
		c0.1-0.5,0.7-0.5,0.9-0.2l0.2-0.4c-0.4-0.2,0-0.5,0.1-0.4c0.1,0.2,0.4-0.4,0.4-0.4s0.2,0.3,0-0.1c-0.2-0.4,0.1-0.5,0.1-0.5
		c-0.1-0.4,0.4-0.3,0.4-0.3l0-0.5l-0.4,0c-0.1,0.4-0.4,0.1-0.3,0c0.2-0.1,0.4-0.3,0.4-0.3v-0.3l0.2-0.1l0-0.3h0.4l0.4-0.2l0.1-0.2
		l0.4,0l0.6-0.5l-0.1-0.2c-0.4,0,0-0.3,0-0.3L41.7,32L41.7,32z"/>
	<path class="st0" d="M29.7,38L29.1,38l0,0.2h0.1c0.2,0.4,0,1.5,0,1.5s-0.4,0-0.4-0.2c-0.1-0.2-0.2,0.4-0.1,0.5
		c0.1,0.1,0.5,0,0.6,0.3c0,0.3,0.3-0.2,0.3-0.2V38L29.7,38z"/>
	<polygon class="st0" points="29.4,40.7 29.1,40.5 29.1,41.2 29.6,41.8 29.8,41.4 29.8,41.1 29.6,41.1 29.7,40.6 29.8,40.6 
		29.9,40.4 29.4,40.7 	"/>
	<polygon class="st0" points="29.9,42.2 29.7,42.2 29.7,42.5 29.9,42.5 29.9,42.2 	"/>
	<polygon class="st0" points="29.6,43.7 29.4,43.8 29.4,44 29.6,44 29.6,43.7 	"/>
	<path class="st0" d="M30,43c0.1,0,0.1-0.1,0.1-0.1c0-0.1-0.1-0.1-0.1-0.1c-0.1,0-0.1,0.1-0.1,0.1C29.9,43,29.9,43,30,43L30,43z"/>
	<path class="st0" d="M30.3,43.5c0,0.1-0.1,0.1-0.1,0.1c-0.1,0-0.1-0.1-0.1-0.1c0-0.1,0.1-0.1,0.1-0.1
		C30.3,43.4,30.3,43.5,30.3,43.5L30.3,43.5z"/>
	<path class="st0" d="M30.3,40.1c0,0.1-0.1,0.1-0.1,0.1c-0.1,0-0.1-0.1-0.1-0.1c0-0.1,0.1-0.1,0.1-0.1C30.3,39.9,30.3,40,30.3,40.1
		L30.3,40.1z"/>
	<polygon class="st0" points="40,37.4 40,37 40.1,36.7 40.2,36.5 40.5,36.4 40.5,35.8 40.4,35.8 40.3,35.6 40,35.6 39.9,35.7 
		39.8,35.7 39.8,36 39.9,36 40,36.2 39.9,36.3 39.8,36.4 39.6,36.5 39,37 39,37.2 38.8,37.5 38.7,37.9 38,37.9 37.9,38.5 38,38.9 
		38.5,39.1 38.6,38.8 38.8,38.8 38.8,38.5 38.9,38.2 39.1,38 39.2,37.8 39.5,37.6 39.8,37.5 40,37.4 	"/>
	<path class="st0" d="M41.2,37.7v-0.4l-0.1-0.4l-0.4-0.2l-0.3,0.3l-0.1,0.4v0.3L40,37.7l-0.1,0.8l-0.2,0.1l0,0.3L39.4,39L39,39.1
		L39,39.5l-0.2,0.2L38.6,40l-0.1,0.9c0,0,0.3,0.5,0.4,0.3c0.1-0.2,0.4-0.3,0.4-0.3l0.1-0.2l0.8,0c0.1-0.3,0.4-0.2,0.4-0.1
		c0,0.2,0.3,0,0.3,0l0.2-0.3h0.3l0-0.4l0.1-0.1v-0.5c0.5-0.2,0.4-0.6,0.4-0.6l0.1-0.2l-0.1-0.2c-0.2-0.1-0.1-0.3,0-0.2
		c0.1,0.1-0.2-0.3-0.2-0.3c-0.2,0.2-0.3-0.2-0.3-0.2H41.2L41.2,37.7z"/>
	<path class="st0" d="M41.6,41.3c0,0.4-0.5,0.5-0.5,0.5l-0.3-0.1l-0.2-0.2l0-0.4l0.3,0l0.1,0.2L41.6,41.3L41.6,41.3z"/>
	<path class="st0" d="M43.2,39.4c0.1,0.3,0.1-0.4,0.2-0.4c0.1,0,0-0.4,0-0.4L42.9,39C43.2,39,43.2,39.3,43.2,39.4L43.2,39.4z"/>
	<path class="st0" d="M44.8,37.8c0.1,0.3,0.1,0.7,0.5,1c0.2,0.1-0.1,0.3-0.2,0.2c-0.1-0.1-0.6-0.8-0.6-0.8v-0.4
		C44.6,37.6,44.8,37.7,44.8,37.8L44.8,37.8z"/>
	<polygon class="st0" points="45,46.9 44.8,47 44.9,47.1 45,47.2 45.2,46.9 45,46.9 	"/>
	<polygon class="st0" points="48.6,45.9 48.5,45.8 48.3,45.9 48.4,46.1 48.6,45.9 	"/>
	<path class="st0" d="M57,52.4l0.3,0.1l0,0.5c0.4,0.4,1.5,0.1,1.5,0c0-0.1-0.1-1.1-0.1-1.1l-0.1-0.2l0-0.8c0.1-0.4-0.6-1-0.6-0.8
		c-0.1,0.1-0.4,0-0.4,0.2c0,0.1-0.2,0.7-0.1,0.9c0.1,0.2-0.1,0.2-0.1,0.4C57.2,51.8,56.9,52.2,57,52.4L57,52.4z"/>
	<path class="st0" d="M56.3,51.2c-0.1,0.2-0.3,0.4-0.4,0.3c-0.1-0.1,0.1,0.2,0.2,0.3c0.1,0.1,0.2,0.1,0.3,0c0.1-0.1,0-0.4,0.1-0.5
		C56.6,51.1,56.4,51.1,56.3,51.2L56.3,51.2z"/>
	<polygon class="st0" points="55,46.2 55.2,46.2 55.2,45.6 55,45.6 55,46.2 	"/>
	<path class="st0" d="M58,39.8c-0.1-0.2,0.6-0.5,0.7-0.1c0.1,0.4,0,0.3-0.1,0.3C58.5,39.9,58.2,40.1,58,39.8L58,39.8z"/>
	<polygon class="st0" points="58.7,35.9 59,36 59,35.8 58.7,35.8 58.7,35.9 	"/>
	<polygon class="st0" points="57.9,36.3 58,36.3 58,36.1 57.9,36 57.9,36.1 57.6,36.2 57.4,36.1 57.3,36.2 57.6,36.4 57.6,36.4 
		57.7,36.4 57.8,36.3 57.9,36.3 	"/>
	<path class="st0" d="M59,28.9h-0.4c0,0,0.1,0.1-0.3-0.3c-0.4-0.4-0.7,0.1-0.7,0.1l-0.5,0.1v0.5l-0.2,0.1l0,0.3l0.3,0
		c0,0,0,0.4,0.1,0.2c0.1-0.2,0.8,0,0.8,0.4c0,0.1,0.7,0.5,0.7,1c0.4,0.1,0.3,0.5,0.3,0.5l0.5,0.1l0.1-0.3l0.1,0v-0.2l-0.3-0.1
		l-0.1-1l-0.2-0.2l0.1-0.2l-0.2-0.1l0.1-0.4L59,28.9L59,28.9z"/>
	<path class="st0" d="M60.3,32L60,32l-0.5,0.1l-0.3,0.6c0,0,0.1,0.1,0.3,0.3c0.1,0.2,0.2,1.5-0.2,1.7c-0.4,0.2,0,0.1,0,0.1l-0.1,0.7
		c0.1,0.3,0.2,0.2,0.3,0c0.1-0.2,0.2-0.2,0.3-0.3c0.1-0.2,0.3-0.4,0.3-0.6c0-0.2,0.2-0.5,0.1-0.6c-0.1-0.1,0.1-0.5,0.1-0.5
		s0.1-0.2,0-0.5c-0.1-0.2,0-0.5,0.1-0.6L60.3,32L60.3,32z"/>
	<polygon class="st0" points="60.6,33.2 60.7,33 60.8,33 60.8,33.3 60.6,33.2 	"/>
	<polygon class="st0" points="60.6,34.1 60.5,34 60.6,33.8 60.7,33.9 60.6,34.1 	"/>
	<path class="st0" d="M60.4,31.7l-0.1-0.3c0,0,0-0.2,0.1-0.4c0.1-0.1-0.1-0.2-0.2-0.3c-0.1,0-0.1-0.3-0.1-0.4c0-0.1-0.2-0.2-0.2-0.2
		s-0.1-0.5-0.1-0.5c0-0.1-0.3-0.2-0.2-0.3c0.1-0.1,0.1-0.2,0.2-0.3c0.1-0.1-0.1-0.5,0.1-0.4C60,28.8,60,28.9,60,29
		c0.1,0.1,0,0.5,0.1,0.6c0.1,0.1,0,0.4,0.2,0.4c0.2,0,0.1,0.6,0.1,0.6s-0.1,0.4,0.1,0.5c0.1,0,0.1,0.8,0.1,0.8L60.4,31.7L60.4,31.7z
		"/>
	<path class="st0" d="M58.4,26.8c0.1,0.1,0.3,0.2,0.3,0.3c0,0.1-0.1,0.2,0.1,0.2c0.2,0,0.3,0,0.4,0.1c0.1,0.2,0.1,0.4,0,0.5
		c0,0.1,0,0.3,0.2,0.3c0.1,0,0.2,0,0.2,0.1c0,0.1,0.2-0.3,0.2-0.3c-0.1-0.1-0.3-0.4-0.3-0.4s-0.1-0.4-0.1-0.5c0-0.1-0.2-0.1-0.3-0.2
		c-0.1,0-0.2-0.3-0.2-0.3L58.4,26.8L58.4,26.8z"/>
	<path class="st0" d="M58.7,26.5c-0.1-0.1-0.2-0.2-0.3-0.3c-0.1-0.1-0.2-0.1-0.3-0.1c-0.1,0-0.2-0.1-0.2-0.3
		c0.1-0.2-0.1-0.2-0.1-0.3c0-0.1,0.1-0.1,0.2,0c0.1,0.1,0.1,0.1,0.2,0.3c0.1,0.2,0.2,0.3,0.3,0.3c0.1,0,0.2,0.3,0.3,0.2
		c0.1-0.1,0.1,0.2,0.1,0.2L58.7,26.5L58.7,26.5L58.7,26.5z"/>
	<path class="st0" d="M55.2,29.9c0.2,0.2-0.9,0.1-0.9,0c0-0.1,0.1-0.5,0.4-0.5c0.3,0.1,0.3-0.5,0.3-0.5s-0.2,0,0-0.1
		c0.2-0.1,0-0.3-0.1-0.4c-0.1-0.1-0.2-0.2-0.2-0.2h0.4c0.2-0.1,0.2-0.7,0.2-0.7c0.4,0.1,0.5-0.1,0.5-0.1s0.1,0.2,0.2,0.3
		c0.1,0.2-0.3,0.2-0.1,0.3c0.1,0.1,0.2,0.4,0.1,0.5c-0.1,0.1-0.4,0-0.4-0.1c0-0.1-0.1,0.2,0,0.3c0.1,0.2-0.1,0.4-0.2,0.4
		c-0.1,0-0.4,0.1-0.1,0.2c0.3,0.2,0.7,0.1,0.7,0.1s0.3,0,0.4,0.1c0.1,0.2,0,0.2-0.2,0.2c-0.1,0-0.9-0.1-0.9-0.1S55.2,29.8,55.2,29.9
		L55.2,29.9z"/>
	<path class="st0" d="M53.3,30.2c0.1,0,0.5-0.1,0.6,0c0.1,0.1-0.2,0.2-0.2,0.2l-0.4,0.1C53.2,30.4,53.2,30.2,53.3,30.2L53.3,30.2z"
		/>
	<path class="st0" d="M57.2,27.7c0.2-0.1,0.7-0.1,0.7-0.3c0-0.2,0.3-0.2,0.3-0.2l0.1,0.4l0.3,0.2l0,0.3c0,0,0.1-0.1-0.2,0
		c-0.3,0.1-0.1,0.2-0.1,0.2l-0.7,0L57.4,28L57.2,27.7L57.2,27.7z"/>
	<path class="st0" d="M56,26c0.2,0-0.1,0.7,0.4,0.6c0.5-0.1,0,0.2,0.4,0.2c0.4,0,0.3-0.3,0.4-0.5c0.1-0.2,0.1-0.3-0.1-0.4
		c-0.2-0.1-0.2-0.1-0.3-0.3c-0.1-0.2-0.3-0.3-0.3-0.3l-0.1-0.4L56,25.3l-0.4,0.5C55.6,26.2,55.8,26,56,26L56,26z"/>
	<polygon class="st0" points="56.8,28.6 56.9,28.4 57.1,28.5 57,28.7 56.8,28.6 	"/>
	<polygon class="st0" points="56.5,28.5 56.7,28.5 56.7,28.3 56.5,28.3 56.5,28.5 	"/>
	<polygon class="st0" points="56.6,24.3 56.7,24.5 56.5,24.6 56.5,24.3 56.6,24.3 	"/>
	<polygon class="st0" points="56.1,27.2 56.3,27.2 56.3,27.1 56.1,27.1 56.1,27.2 	"/>
	<polygon class="st0" points="55.7,27.1 55.7,26.9 55.9,26.9 56,27.1 55.7,27.1 	"/>
	<polygon class="st0" points="53.2,30 53,29.9 53.1,29.7 53.3,29.8 53.2,30 	"/>
	<polygon class="st0" points="52.3,29.4 52.3,29.3 52.6,29.2 52.6,29.4 52.3,29.4 	"/>
	<polygon class="st0" points="46.5,29.4 46.5,29.6 47.1,29.6 47.1,29.4 46.5,29.4 	"/>
	<polygon class="st0" points="46,29.6 46,29.4 46.1,29.3 46.2,29.6 46,29.6 	"/>
	<polygon class="st0" points="45.9,29.8 45.8,29.7 45.9,29.6 46,29.8 45.9,29.8 	"/>
	<path class="st0" d="M47.4,29.3l0,0.2l0.3,0c0,0,0.1,0.1,0.1,0.2c0,0.1,0.2,0.2,0.3,0.2c0.1,0,0.4-0.2,0.4-0.2s0.1-0.4,0-0.4
		c-0.1,0-0.4,0.2-0.4,0c0-0.2-0.4-0.1-0.4-0.1L47.4,29.3L47.4,29.3z"/>
	<path class="st0" d="M48.9,29c0,0.1-0.1,0.2,0.1,0.2c0.2,0,0.5-0.1,0.5,0.1c0,0.2,0,0.3,0.3,0.4c0.2,0.1,0.4,0.1,0.6,0.1
		c0.2,0,0.6-0.1,0.6-0.1s0.4,0.1,0.5,0.2c0.3,0.3,0.5,0.4,0.6,0.3c0.1-0.2,0-0.5-0.1-0.6c0-0.1-0.4-0.7-0.6-0.6
		c-0.1,0.1-0.2,0-0.4,0.1c-0.3,0.1-0.8,0-0.9-0.1c0-0.1-0.4-0.2-0.4-0.3c0-0.1-0.3-0.3-0.3-0.1c0,0.2-0.2,0.3-0.3,0.2
		C49.1,28.8,48.9,29,48.9,29L48.9,29z"/>
	<path class="st0" d="M55.7,25.1l0.2-0.7c-0.3-0.1-0.2-0.4-0.2-0.4c0-0.3-0.4-0.6-0.6-0.5c-0.1,0.1-0.1-0.6-0.1-0.6s0.3-0.2,0.4-0.1
		c0.1,0.1-1-1.5-1.3-1.4c-0.2,0.2-0.8-0.2-0.7-0.4c0-0.3-1.1-1.2-1.1-1.2s-0.4-0.2-0.4-0.1c-0.1,0.2-0.2,0.3,0,0.4
		c0.2,0.1,0.1-0.2,0.4,0.1c0.2,0.2,0.6,0.5,0.4,0.7c-0.1,0.2-0.3,0.2-0.3,0.2l0.2,0.2h0.3L53,22c0,0,0.4,0.2,0.4,0.4
		c0.1,0.2,0.1,0.3,0,0.5c-0.1,0.1-0.3,0.3-0.2,0.5c0,0.2,0.3,0.3,0.3,0.3l0.2,0l0.2,0.1v0.4c0.2-0.1,0.6,0.3,0.6,0.5
		c0,0.2,0.1,0.1,0.4,0.3c0.3,0.2,0.2,0.2,0.4,0.4C55.5,25.5,55.6,25.4,55.7,25.1L55.7,25.1z"/>
	<path class="st0" d="M50.8,21c0-0.1-0.1-0.5,0.1-0.5c0.2,0,0.1,0,0.3,0.1c0.2,0.1,0.2-0.2,0.2-0.2h0.3l0.4,0.3L52.1,21l-0.3,0
		c-0.1-0.2-0.4-0.2-0.4,0.1c0.1,0.2-0.1,0.6-0.3,0.6c-0.1,0-0.5,0-0.5-0.2C50.7,21.4,50.8,21,50.8,21L50.8,21z"/>
	<path class="st0" d="M50.6,20.2V20c0,0,0-0.2-0.2-0.2c-0.1,0-0.4-0.2-0.4-0.3c0.1-0.1-0.5-0.2-0.5-0.2s-0.5-0.5-0.3-0.4
		c0.2,0.1,0.1-0.2,0.1-0.2s-0.4,0.1-0.4,0c-0.1,0-0.1-0.3-0.1-0.3s-0.4-0.1-0.4,0c0,0.1,0.1,0.1,0.2,0.3c0.1,0.2,0,0.5,0.3,0.5
		c0.3,0.1,0.3,0.1,0.4,0.2c0,0.1,0.4,0.2,0.4,0.2l0.2,0.1L50.6,20.2L50.6,20.2z"/>
	<polygon class="st0" points="47.3,16.9 47,16.8 47,17.1 47.4,17.1 47.3,16.9 	"/>
	<path class="st0" d="M47.3,15.8C47,15.6,47.7,16,47.7,16c0.2,0,0.4,0.2,0.4,0.3c0,0.1,0.3,0.1,0.3,0.1l0-0.2l-0.2-0.3L48,15.7
		c0,0-0.3,0-0.3-0.1C47.7,15.5,47.4,15.9,47.3,15.8L47.3,15.8z"/>
	<path class="st0" d="M52.7,16c-0.1,0.3-0.1,0.6-0.3,0.6c-0.1,0-0.1,0.4-0.1,0.4s0.4,0,0.5,0c0.1,0,0.1,0.3,0.1,0.3
		c0.4,0,0.6,0.6,0.6,0.7c-0.1,0.2,0.2,0.2,0.2,0.2s0,0.5-0.1,0.6c-0.1,0.1,0.4,0.2,0.5,0.4c0.1,0.2-0.1,0.8-0.1,0.8
		c-0.1,0,0.2,0.1,0.2,0.3c0,0.2,0.1,0,0.1,0.2c0,0.2,0.1,0.8,0.1,0.8l0.4,0c0.1-0.4,0.8-0.4,1-0.4c0.5,0.2,0.9,1,0.9,1.1
		c0,0.2-0.3,0.2-0.3,0.2l0.1,0.9c0.5,0.2,0.9,0.9,0.9,1c-0.1,0.1,0.4,0.1,0.4,0.1c0.1-0.5,0.6-0.4,0.6-0.2c0,0.2,0.1,0.6,0.1,0.6
		l0.1,0.3l0.2,0.2l0.3,0l0.1,0.2l0.4,0.1c0,0,0.3,0.4,0.4,0.5c0,0.1,0.5,0.1,0.6,0.1c0.1,0,0.3,0.1,0.3,0.3c0,0.2,0.2,0.4,0.2,0.4
		s0.4,0.1,0.4,0.2c0,0.1,0.2,0.4,0.2,0.4l0.3,0.2l0,0.3l0.3,0l0.1,0.4l0.5,0l0.3-0.2c0.4-0.2,0.7-0.5,0.7-0.6c0-0.1,0.1-0.6,0.4-0.5
		c0.3,0.1,0.1-0.7,0.1-0.7s-0.4-0.3-0.4-0.5c0-0.2-0.4-0.5-0.4-0.6c0-0.1-0.4-0.4-0.4-0.5c0-0.1-0.2-0.5-0.2-0.5l-0.4-0.4l-0.1-0.3
		l-0.4,0l-0.7-0.9l0-0.2l-0.2,0V22l-0.2-0.1l-0.3,0l-0.7-0.7L60,20.8h-0.3l0.1-0.6c0.2-0.3,0.1-0.8,0.1-0.8s-0.4,0.2-0.6,0.1
		c-0.2-0.1,0.1-0.3,0.1-0.3V19l-0.2-0.2c0,0-0.5,0.1-0.5,0c0-0.1-0.1-0.5-0.1-0.5l0-0.5l-0.2-0.1l0-0.2l-0.3,0v-0.4l-0.2-0.1
		L57.5,17l0-0.4l-0.7,0l-0.2-0.3l-0.2-0.4l-0.7-0.1l-0.2-0.2l-0.3-0.1l-0.2-0.1l-0.1,0.2l-0.6,0l0,0.2C54,16.1,52.8,15.9,52.7,16
		L52.7,16z"/>
	<path class="st0" d="M55.9,15.2c0-0.2,0.6-0.5,0.7-0.3c0.1,0.2,0.6,0.2,0.6,1.1c0,0.3-0.5-0.3-0.5-0.3l-0.4-0.2
		C56,15.5,55.9,15.4,55.9,15.2L55.9,15.2z"/>
	<polygon class="st0" points="47.1,15.6 47,15.5 47.1,15.3 47.3,15.3 47.1,15.6 	"/>
	<path class="st0" d="M45.6,12.6l-0.4-0.4v-0.3l-0.1-0.1L45,11.4l-0.4-0.1l-0.4,0.2l-0.4,0.3l-0.4,0.1L43.1,12l1,0.1l0.2,0.3
		l0.7,0.1l0.4,0.5C45.7,13,45.8,12.9,45.6,12.6L45.6,12.6z"/>
	<path class="st0" d="M45.5,11.2c-0.1-0.3-0.4,0.3-0.1,0.5c0.4,0.1,0.8,0,0.8,0l0.1-0.2l1.5,0c0.1-0.1,0.2-0.3,0.2-0.3
		s0.4-0.1,0.5-0.1c0.1,0.1,0-0.4-0.1-0.4c-0.1,0.1-0.4,0-0.4,0h-0.5c0-0.2-0.5-0.1-0.5,0c0,0.1-0.2,0.2-0.2,0.2L46,11
		C45.9,11.2,45.6,11.3,45.5,11.2L45.5,11.2z"/>
	<path class="st0" d="M42.6,16.3c0.5,0.1,0.6,0,0.7-0.1c0-0.1,0.1-0.2,0.2-0.2c0.2,0,0-0.4-0.2-0.4c-0.2,0-0.4-0.1-0.4-0.2
		c0-0.2-0.3-0.5-0.4-0.2c0,0.3-0.2,0.3-0.2,0.5C42.4,15.9,42.5,16.2,42.6,16.3L42.6,16.3z"/>
	<path class="st0" d="M39.2,16.6c0-0.1,0.6-0.1,0.7,0c0.1,0.1,0,0.2,0.3,0.2c0.3,0,0.1,0.2,0.1,0.3c0,0.1-0.3,0.1-0.4,0
		c0-0.1-0.5-0.1-0.5-0.1S39.2,16.8,39.2,16.6L39.2,16.6z"/>
	<polygon class="st0" points="49.1,10.3 48.9,10.2 48.8,10.3 49,10.5 49,10.6 49.1,10.5 49.4,10.3 49.3,10.1 49.1,10.3 	"/>
	<polygon class="st0" points="47.5,9.5 47.4,9.6 47.6,9.8 47.7,9.8 47.7,9.8 48,9.5 47.9,9.4 47.7,9.6 47.5,9.5 	"/>
	<polygon class="st0" points="46.6,15.8 46.4,15.8 46.3,15.9 46.6,16 46.8,16.3 46.9,16.2 46.7,15.8 46.7,15.8 46.6,15.8 	"/>
	<path class="st0" d="M36.8,24.2l0,0.3h0.4c0.2,0-0.1-0.2-0.1-0.2S36.8,24.4,36.8,24.2L36.8,24.2z"/>
	<polygon class="st0" points="37.4,24.2 37.5,24.1 37.7,24.2 37.6,24.4 37.4,24.2 	"/>
	<polygon class="st0" points="32,18.6 32.1,18.4 32.3,18.6 32.2,18.8 32,18.6 	"/>
	<polygon class="st0" points="40.3,57.3 40.3,57.5 40.4,57.6 40.4,57.6 40.5,57.8 40.7,57.6 40.7,57.5 40.6,57.5 40.3,57.3 	"/>
	<polygon class="st0" points="38.2,55.2 38,55.3 37.9,55.4 38,55.4 38.3,55.6 38.4,55.5 38.2,55.4 38.3,55.3 38.2,55.2 	"/>
	<path class="st0" d="M60.5,49.6c0-0.2-0.2-0.2-0.2-0.2l-0.1,0.2v0c0,0,0,0,0.1,0l0,0.2c0,0,0,0,0,0.1l0.1,0.1
		C60.5,49.8,60.5,49.7,60.5,49.6L60.5,49.6z"/>
	<polygon class="st0" points="60.5,49 60.5,48.7 60.8,48.7 60.7,49 60.5,49 	"/>
	<path class="st0" d="M67.6,46.6c0.1-0.1,0.3-0.2,0.3,0.1c0,0.3-0.2,0.2-0.3,0.3C67.5,47.2,67.5,46.7,67.6,46.6L67.6,46.6z"/>
	<path class="st0" d="M69.2,45.4C69.2,45.3,69.2,45.3,69.2,45.4c0-0.1,0-0.2-0.1-0.2L69,45.2c0,0,0,0.1,0,0.1c0,0.1,0,0.1,0.1,0.2
		c0,0,0.1,0,0.1,0L69.2,45.4C69.1,45.3,69.2,45.3,69.2,45.4L69.2,45.4z"/>
	<path class="st0" d="M68.8,45.5c0,0.2,0.1,0.4,0.1,0.4l0.2-0.1c0,0-0.1-0.2-0.1-0.4L68.8,45.5L68.8,45.5z"/>
	<path class="st0" d="M68.1,46.2l-0.2,0c0,0.1,0,0.3,0.2,0.3l0-0.2c0,0,0,0,0,0C68.1,46.4,68.1,46.3,68.1,46.2L68.1,46.2z"/>
	<path class="st0" d="M67.3,42.6c0-0.1,0-0.1-0.1-0.1c-0.1-0.1-0.4,0-0.5,0.1l0.1,0.2c0.1-0.1,0.3-0.1,0.3-0.1c0,0,0,0,0,0
		L67.3,42.6L67.3,42.6z"/>
	<path class="st0" d="M59.1,33c-0.1,0.1-0.4,0.2-0.4,0.2l-0.1,0.3l-0.1,0.1c0,0,0,0.1,0,0.3c0,0.2-0.3,0.3-0.3,0.3L58,34.4
		c0,0-0.7,0-0.8,0c-0.3-0.1-0.1-0.5,0.1-0.5c0.2,0,0-0.5,0-0.5l0.2,0c0,0,0-0.5,0.1-0.5c0.1,0,0-0.2-0.1-0.3
		c-0.1-0.1-0.3-0.4-0.4-0.4c-0.1,0-0.6,0-0.6,0l-0.1,0.2l-0.3,0.1c0,0,0,0.2,0,0.3c-0.2,0.2-0.9,0.7-0.6-0.1l0.1-0.2v-0.3l-0.5,0
		c0,0-0.3-0.1-0.3-0.2c0-0.1,0-0.3,0-0.3L54.1,31l-0.7-0.1l-0.1-0.2l-0.4-0.1c-0.5-0.3-1,0-0.9,0.4c0.1,0.5,0.2,0.6-0.1,0.6
		c-0.3,0-0.4-0.2-0.4-0.2s-0.2-0.1-0.2,0c0,0.1-0.1,0.4,0,0.5c0.1,0.1-0.1,0.3-0.2,0.2c-0.1-0.1-0.3-0.4-0.3-0.5
		c0.1-0.1-0.4-0.7,0.1-0.8c0.5-0.1,0-0.4,0.1-0.4l0.2-0.1h0.2l0.1-0.1l-0.4-0.1l-0.2,0l-0.4,0c-0.4,0.3-0.5,0.7-0.5,0.7
		c-0.2,0.5-0.8-0.2-0.6-0.4c0.2-0.2-0.7,0-0.8,0.1c-0.1,0.1-0.6,0.1-0.6,0.1c-0.1,0.3-0.5,0-0.4-0.2c0.1-0.2,0.1-0.3,0.1-0.3l-0.1,0
		l-0.2,0.3c-0.4,0-0.5,0.2-0.4,0.4c0.1,0.2-0.1,0-0.2,0.2c-0.1,0.2,0,0.2,0.2,0.3c0.2,0.1-0.1,0.1,0,0.2c0.1,0.2,0.5,0,0.3,0.2
		c-0.2,0.2-0.6,0.1-0.6,0.1c0,0.3-0.6,0.2-0.7,0.1c-0.1-0.1-0.5-0.6-0.5-0.6l-0.6,0c-0.1-0.4,0.3-0.2,0.4-0.5
		c0.1-0.3,0.2-0.9,0.2-0.9s-0.5,0-0.5,0.1c0,0.2-0.3,0.2-0.3,0.2s-0.2,0.1-0.1,0.2c0.1,0.1-0.2,0.2-0.2,0.2s0,0.2,0,0.3
		c-0.2,0.2-0.8,0-0.9-0.1l-0.4-0.2l-0.4-0.2l-0.4,0.2l-0.1,0.1h-0.4l0,0.4l0.8,0.1l0.1,0.7l-0.3-0.1h-0.2L42,31.7l-0.2,0v0.7
		l0.2,0.2l0.1,0.2l0.3,0l0.1,0.4l0.7,0l0.1,0.2l0.4,0l0.9,0.9l-0.1,0.3l-0.1,0.1c0.1,0.2-0.4,0.1-0.4,0.1v0.2l0.2,0l0.2,0.1l0.3-0.5
		c0.3-0.2,0.5,0.1,0.5,0.3c0,0.2-0.1,0.2-0.1,0.2v0.4l0.2,0.1c0.3,0.4-0.1,0.6-0.1,0.6l-0.1,0.3c-0.1,0.3-0.4,0.2-0.4,0.2l-0.1,0.2
		l-0.4,0.1l0.7,0.1c0.1-0.2,0.2-0.3,0.3-0.2c0.1,0.1,0.1,0.3,0.1,0.3l0.2,0l0,0.3l0.2,0.1v1l0.2,0.2c0.4-0.2,0.4,0.1,0.2,0.2
		c-0.2,0.1-0.1,0.7-0.1,0.7l-0.1,0.2v0.2l-0.2,0.1v0.3c-0.3-0.2-0.7-0.1-0.7,0c-0.3-0.2-0.8-0.1-0.8,0c0.2,0.2-0.2,0.3-0.2,0.3
		l-0.2,0.2c0.1,0.3-0.1,0.3-0.1,0.3v0.6L43.1,42l0,0.8c0,0.2,0.4,0.2,0.5,0.1c0.1-0.1,0.4,0.2,0.4,0.2h0.3l0.1-0.5l-0.2-0.1v-0.9
		l0.3-0.3c0.4-0.1,0.2,0.8,0.2,0.9c0,0.3,0.2,0.3,0.3,0.2c0.3-0.1,0.1,0.3-0.2,0.3c-0.2,0-0.1,0.3-0.1,0.3l0.1,0.1l-0.3,0.2
		l-0.2,0.3l-0.3-0.1l-0.4,0l-0.1-0.2l-0.2,0l0,0.4l-0.1,0.2L43,44.2c0.5,0-0.1,0.3-0.2,0.3c0.3,0.1,0,0.4-0.7,0.2v0.2l-0.2,0
		l0.2,0.2l0.2,0l-0.1,0.5c0,0.4-1,0.1-1.1,0l0,0.5l-0.2,0l0,0.4l0,0.5l0.3-0.1v0.2l0.8,0l1.2-1.2l0.7-0.2c0.1-0.3,0.4,0.1,0.4,0.1
		c0.3,0,0.4,0.2,0.4,0.2l0.4,0.1c0.3,0.1,0.1,0.1,0.1,0.2c0,0.2,0.2,0.1,0.2,0.1l0.1-0.4l0.2,0l-0.2-0.2l-0.3-0.2l-0.4-0.2
		c-0.2-0.3,0.1-0.3,0.3-0.2h0.4c0,0,0.4,0.6,0.4,0.8c0,0.2,0.2,0.2,0.2,0.2l0.3,0l0.1,0.2h0.3l0.1,0.2h0.5l0-0.3l-0.5-0.1l0-0.3
		l-0.4-0.1c-0.1-0.5,0.1-0.7,0.2-0.4l0.2,0l-0.1-0.5l0.2-0.1L47,44.6l-0.2-0.1v-0.2l0.7,0c-0.1-0.4,0-0.6,0-0.6h0.2l0,0.2l0.9,0.1
		l0.6-0.7c0-0.1,0.1-0.1,0-0.2c-0.1-0.1-0.2,0-0.4-0.1c-0.1-0.1,0-0.6,0-0.7c0-0.1,0.5-0.3,0.4,0c-0.1,0.3,0,0.4,0,0.4
		c0.4-0.4,0.7,0,0.7,0.1c0,0.1,0.2,0.2,0.4,0.1c0.1-0.1,0.3,0.3,0.3,0.5c-0.1,0.2-0.6,0.2-0.6,0c0-0.2-0.1-0.1-0.2,0
		c-0.1,0.1-0.3,0.2-0.5,0.1c0,0,0,0-0.1,0L48.7,44l0,0c0.4,0.2,0.2,0.5,0.1,0.5c-0.1,0.1-0.3,0.1-0.3,0.1l-0.1,0.1l-0.8,0.1
		l-0.1,0.3c-0.4-0.1-0.5,0.4-0.4,0.6c0.1,0.2,0,0.4,0,0.4l0.3,0.2l0.4-0.1c0.1-0.3,0.3-0.4,0.6-0.5c0.2-0.2,0.6,0.3,0.5,0.6
		c-0.1,0.2-0.1,0.3-0.1,0.3l0,0.3l-0.3,0.1l-0.2,0.1l0,0.2h-0.8l-0.1,0.2l-0.4,0l-0.1,0.2l-0.3,0c0,0-0.4,0.2-0.3,0.5
		c0.2,0.2-0.7,0.2-1-0.1c-0.1,0.3-0.4,0-0.4,0l-0.3-0.1l0-0.5C44.6,47,44,47,44,47.2c0,0.2-1.1,0.1-1.1,0.1l-0.4,0.2l-0.3,0.2l0,0.2
		l-0.5,0.1L41.5,48l-0.1-0.2h-0.2l-0.2,0.3c-0.6,0-1.2,0.4-1.2,0.5c0.1,0.2-0.2,0.3-0.2,0.3l-0.3,0.1L39,49.4l-0.4,0.1l-0.1,0.6
		l-0.2,0.1v0.3l-0.2,0.1v0.2l-0.3,0l0.2,0.5l0.2,0.1c0.4,0.1,0.2,0.6,0.2,0.6l0.2,0l0.1,0.3l0.2,0.5c0.1,0.4,0.4,0.3,0.5,0.2
		c0.1,0,0.2,0.4,0.2,0.4l1.2,0c0,0-0.1,0.1,0.1,0.2c0.2,0.1,1.6,0.1,1.6,0c-0.1-0.3,0.7-0.3,1.1-0.1c0.3,0.2,0.8,0.1,0.8,0.1
		l0.4,0.5l0.3,0.7L46,55l0.4,0.1l0.1,0.5l0.3,0l0.1,0.3c0.3,0.2-0.1,0.8-0.1,0.8v0.7l0.2,0.1l0,0.2l0.4,0.4l0.4,0l1.1,1.2l0.9,0.3
		l0.1,0.5l0.2,0l0.2-0.2l0.7,0l0.4-0.3l0.4-0.1l3.3-2.8l-0.3-0.2v-0.7c0.5-0.4,0.6-1.1,0.1-1.1c-0.4,0-0.2-0.5,0.1-0.5l0.2-0.1v-0.3
		l0.7-0.6v-0.5l-1.5-1.2c-0.7-0.2,0-1.7,0.4-1.7c0.4,0,0-2.2,0-2.2l-0.2-0.1l0.1-0.7h-0.3l-0.5,0.7l-0.1,0.5c-0.1,0.6-1.9,0.5-2,0.4
		c-0.1-0.1-0.7-0.4-0.7-0.4s-0.5-0.4-0.6-0.3c-0.1,0.1-0.5-0.2-0.5-0.1c0,0.1-0.4-0.2-0.4-0.2l-0.6-0.2l0.4-0.1l-0.1-0.4l0.8,0.4
		c0.1,0.1,0.5,0.1,0.5,0.1l0.1,0.2c0,0,0.2,0,0.4,0.2c0.1,0.2,0.9,0,0.9,0l0.2,0.2l0.3,0.1l0.9,0l0-0.6l0.2-0.2l0-0.4l0.2-0.2v-0.3
		l0.2-0.1l0-0.7l0.1,0v-1.4l-0.4-0.4c0,0.2-0.5,0.2-0.5,0.2S53.1,44,53,44c-0.1,0,0.1,0.3,0.1,0.5c-0.1,0.2-0.3,0.2-0.3,0.2
		l-0.4,0.1l-0.1,0.2h-0.5l-0.1-0.4l0.5-0.2l0.3-0.2l0.1-0.3c0-0.3,0.4-0.3,0.4-0.3s0.7-0.6,0.7-0.8c0-0.3,0.3-1,0.7-1h0.8
		c0.3-0.1,0.2-0.5,0.2-0.5l0.4-0.1l0.1,0.2c0,0,0.5,0.1,0.6,0c0.1-0.1,0.2-0.3,0.3-0.2c0.1,0.1,0.6-0.2,0.6-0.2
		c0-0.2,0.8-0.1,0.8-0.1l0.1-0.3c0,0-0.5-0.7-0.6-0.7c-0.1,0-0.6-0.4-0.6-0.3c-0.5-0.1-0.4-0.8-0.4-0.8l-0.2-0.4
		c0-0.2-0.4-0.8-0.5-0.7c-0.4-0.3-0.1-0.7,0-0.8c0.1,0,0.4-0.5,0.4-0.5l0.1-0.4l0.5-0.2l0.1-0.4l-0.3,0c0,0,0.3-0.5,0.4-0.5
		c0.1,0,1.1,0,1.2-0.1c0.1-0.1,0.3-0.5,0.3-0.6c0-0.1,0.2-0.1,0.3-0.2c0.1,0,0.3-0.3,0.4-0.4C59.4,33.6,59.2,32.8,59.1,33L59.1,33
		L59.1,33z"/>
	<path class="st0" d="M42.6,43.8c0,0,0.1,0.1,0.2,0.1c0.1,0,0.1,0.2,0,0.2c-0.1,0-0.1,0.1-0.1,0.2c0,0,0,0.2-0.1,0.2
		c-0.1,0.1-0.1,0-0.2,0c-0.1,0-0.1,0-0.2,0c-0.1,0,0,0.2,0,0.2s-0.5,0-0.4-0.1c0.1-0.1,0.2-0.1,0.1-0.1c-0.1,0,0-0.1,0-0.2
		c0-0.1,0.2,0,0.2-0.1c-0.1-0.1,0-0.3,0.1-0.2l0.1-0.2c-0.1-0.1,0-0.1-0.2-0.1c-0.1,0,0-0.3,0-0.3l0-0.2c0-0.2,0.5-0.2,0.5,0
		c0,0.2,0,0.3,0,0.3l0.1,0c0,0,0,0.1-0.1,0.1c-0.1,0,0,0.1-0.1,0.1L42.6,43.8L42.6,43.8z"/>
	<path class="st0" d="M41.1,44.1c0.1-0.1,0.2-0.7,0.4-0.5c0.2,0.2,0.3,0,0.3,0s0.1,0.1,0,0.3c0,0.2-0.1,0.4-0.2,0.4
		c-0.1,0-0.2,0.1-0.3,0.1C41.2,44.3,41.1,44.1,41.1,44.1L41.1,44.1L41.1,44.1z"/>
</g>
</svg>
