<?xml version="1.0" encoding="utf-8"?>
<!-- Generator: Adobe Illustrator 19.1.0, SVG Export Plug-In . SVG Version: 6.00 Build 0)  -->
<svg version="1.0" id="Layer_1" xmlns="http://www.w3.org/2000/svg" xmlns:xlink="http://www.w3.org/1999/xlink" x="0px" y="0px"
	 viewBox="0 0 56.7 56.7" style="enable-background:new 0 0 56.7 56.7;" xml:space="preserve">
<style type="text/css">
	.st0{fill:#010101;}
	.st1{fill:#C0A862;}
</style>
<g>
	<g>
		<g>
			<g>
				<path class="st0" d="M28.2,27.3H5.5v-6.4h22.7V27.3z M6.2,26.5h21.2v-4.9H6.2V26.5z"/>
			</g>
			<g>
				<path class="st1" d="M9.1,25.8c-0.9,0-1.7-0.8-1.7-1.7c0-0.9,0.8-1.7,1.7-1.7c0.9,0,1.7,0.8,1.7,1.7C10.8,25,10,25.8,9.1,25.8z
					 M9.1,23.1c-0.5,0-1,0.4-1,1c0,0.5,0.4,1,1,1c0.5,0,1-0.4,1-1C10.1,23.5,9.6,23.1,9.1,23.1z"/>
			</g>
			<g>
				<path class="st1" d="M13.6,25.4c-0.7,0-1.3-0.6-1.3-1.3c0-0.7,0.6-1.3,1.3-1.3c0.7,0,1.3,0.6,1.3,1.3
					C14.9,24.8,14.3,25.4,13.6,25.4z M13.6,23.5c-0.3,0-0.6,0.3-0.6,0.6c0,0.3,0.3,0.6,0.6,0.6c0.3,0,0.6-0.3,0.6-0.6
					C14.1,23.8,13.9,23.5,13.6,23.5z"/>
			</g>
		</g>
		<g>
			<g>
				<path class="st0" d="M28.2,35.2H5.5v-6.4h22.7V35.2z M6.2,34.5h21.2v-4.9H6.2V34.5z"/>
			</g>
			<g>
				<path class="st1" d="M9.1,33.7c-0.9,0-1.7-0.8-1.7-1.7c0-0.9,0.8-1.7,1.7-1.7c0.9,0,1.7,0.8,1.7,1.7C10.8,33,10,33.7,9.1,33.7z
					 M9.1,31c-0.5,0-1,0.4-1,1c0,0.5,0.4,1,1,1c0.5,0,1-0.4,1-1C10.1,31.5,9.6,31,9.1,31z"/>
			</g>
			<g>
				<path class="st1" d="M13.6,33.3c-0.7,0-1.3-0.6-1.3-1.3c0-0.7,0.6-1.3,1.3-1.3c0.7,0,1.3,0.6,1.3,1.3
					C14.9,32.7,14.3,33.3,13.6,33.3z M13.6,31.5c-0.3,0-0.6,0.3-0.6,0.6s0.3,0.6,0.6,0.6c0.3,0,0.6-0.3,0.6-0.6S13.9,31.5,13.6,31.5
					z"/>
			</g>
		</g>
	</g>
	<g>
		<g>
			<g>
				<g>
					<path class="st0" d="M50.6,45.1H33c-0.5,0-1-0.4-1-1V12c0-0.5,0.4-1,1-1h17.7c0.5,0,1,0.4,1,1v32.1
						C51.6,44.6,51.2,45.1,50.6,45.1z M33,11.8c-0.1,0-0.2,0.1-0.2,0.2v32.1c0,0.1,0.1,0.2,0.2,0.2h17.7c0.1,0,0.2-0.1,0.2-0.2V12
						c0-0.1-0.1-0.2-0.2-0.2H33z"/>
				</g>
			</g>
			<g>
				<rect x="32.4" y="39.3" class="st0" width="18.9" height="0.7"/>
			</g>
			<g>
				<rect x="32.4" y="16.1" class="st0" width="18.9" height="0.7"/>
			</g>
		</g>
		<g>
			<path class="st1" d="M41.8,43.3c-0.7,0-1.2-0.5-1.2-1.2c0-0.7,0.5-1.2,1.2-1.2c0.7,0,1.2,0.5,1.2,1.2
				C43,42.8,42.5,43.3,41.8,43.3z M41.8,41.7c-0.3,0-0.5,0.2-0.5,0.5c0,0.3,0.2,0.5,0.5,0.5c0.3,0,0.5-0.2,0.5-0.5
				C42.3,41.9,42.1,41.7,41.8,41.7z"/>
		</g>
		<g>
			<rect x="40" y="13.6" class="st1" width="3.6" height="0.7"/>
		</g>
	</g>
	<g>
		<g>
			<g>
				<g>
					<polygon class="st1" points="15.5,18.9 14.8,18.9 14.8,13.1 29.9,13.1 29.9,13.8 15.5,13.8 					"/>
				</g>
				<g>
					<polygon class="st1" points="15.1,19.9 13.3,18 13.8,17.5 15.1,18.9 16.5,17.5 17,18 					"/>
				</g>
			</g>
			<g>
				<g>
					<polygon class="st1" points="29.9,43 14.8,43 14.8,37.2 15.5,37.2 15.5,42.3 29.9,42.3 					"/>
				</g>
			</g>
		</g>
		<g>
			<polygon class="st1" points="28.9,44.5 28.4,44 29.7,42.6 28.4,41.3 28.9,40.8 30.8,42.6 			"/>
		</g>
	</g>
	<g>
		<g>
			
				<rect x="35.9" y="31.1" transform="matrix(0.7071 0.7071 -0.7071 0.7071 32.9878 -16.7573)" class="st1" width="1.7" height="0.7"/>
		</g>
		<g>
			
				<rect x="39.2" y="34.4" transform="matrix(0.7071 0.7071 -0.7071 0.7071 36.2849 -18.1229)" class="st1" width="1.7" height="0.7"/>
		</g>
		<g>
			
				<rect x="39.6" y="30.8" transform="matrix(0.7072 0.707 -0.707 0.7072 33.9811 -18.9916)" class="st1" width="0.7" height="1.5"/>
		</g>
		<g>
			
				<rect x="36.5" y="33.9" transform="matrix(0.7072 0.707 -0.707 0.7072 35.2675 -15.8869)" class="st1" width="0.7" height="1.5"/>
		</g>
	</g>
	<g>
		<g>
			<rect x="48.1" y="23.2" class="st1" width="0.7" height="0.9"/>
		</g>
		<g>
			<rect x="48.1" y="19.9" class="st1" width="0.7" height="0.9"/>
		</g>
	</g>
</g>
</svg>
