<?xml version="1.0" encoding="utf-8"?>
<!-- Generator: Adobe Illustrator 19.1.0, SVG Export Plug-In . SVG Version: 6.00 Build 0)  -->
<svg version="1.0" id="Layer_1" xmlns="http://www.w3.org/2000/svg" xmlns:xlink="http://www.w3.org/1999/xlink" x="0px" y="0px"
	 viewBox="0 0 56.7 56.7" style="enable-background:new 0 0 56.7 56.7;" xml:space="preserve">
<style type="text/css">
	.st0{fill:#C0A862;}
	.st1{fill:#010101;}
	.st2{fill:#FFFFFF;}
</style>
<g>
	<g>
		<g>
			<g>
				<polygon class="st0" points="20.8,38.1 15.6,32.9 16.2,32.4 20.8,37 25.4,32.4 25.9,32.9 				"/>
			</g>
			<g>
				<path class="st1" d="M11,39.8l-0.7-0.1c0.4-4.5,3.3-7.4,8.2-8.1v-1.6h0.7v2.3l-0.3,0C15.5,32.7,11.4,34.4,11,39.8z"/>
			</g>
			<g>
				<path class="st1" d="M30.6,39.8c-0.4-5.5-4.5-7.1-7.9-7.5l-0.3,0v-2.3h0.7v1.6c5,0.7,7.9,3.5,8.2,8.1L30.6,39.8z"/>
			</g>
			<g>
				<g>
					<path class="st1" d="M20.8,31.1c-3.1,0-5.3-4-5.3-7.6c0-3.7,2.2-6.2,5.3-6.2c3.1,0,5.3,2.6,5.3,6.2
						C26.1,27,23.9,31.1,20.8,31.1z M20.8,17.9c-2.7,0-4.6,2.3-4.6,5.5c0,3.6,2.2,6.9,4.6,6.9c2.4,0,4.6-3.3,4.6-6.9
						C25.3,20.2,23.5,17.9,20.8,17.9z"/>
				</g>
				<g>
					<path class="st1" d="M16.1,24.6l-0.5-0.6c1.3-1,2-2.6,2.5-4.1l0.2-0.5l0.4,0.4c2,1.9,4.3,2.9,6.9,3.2l-0.1,0.7
						c-2.6-0.3-4.9-1.3-7-3C18.1,22.2,17.4,23.6,16.1,24.6z"/>
				</g>
			</g>
			<g>
				<rect x="20.4" y="37.6" class="st0" width="0.7" height="6.1"/>
			</g>
		</g>
		<g>
			<path class="st1" d="M20.8,44.1c-8.5,0-15.4-6.9-15.4-15.4c0-8.5,6.9-15.4,15.4-15.4c3.7,0,7.3,1.3,10,3.7l-0.5,0.5
				c-2.7-2.3-6.1-3.6-9.6-3.6c-8.1,0-14.7,6.6-14.7,14.7c0,8.1,6.6,14.7,14.7,14.7c6.8,0,12.6-4.6,14.3-11.2l0.7,0.2
				C34,39.3,27.9,44.1,20.8,44.1z"/>
		</g>
	</g>
	<g>
		<g>
			<g>
				<path class="st0" d="M49.8,32.7H32.4c-1.2,0-2.1-1-2.1-2.1v-2.4l-2.7-2.7l2.7-2.7v-7.5c0-1.2,1-2.1,2.1-2.1h17.5
					c1.2,0,2.1,1,2.1,2.1v15.4C52,31.7,51,32.7,49.8,32.7z M28.5,25.4l2.4,2.4v2.7c0,0.8,0.6,1.4,1.4,1.4h17.5
					c0.8,0,1.4-0.6,1.4-1.4V15.2c0-0.8-0.6-1.4-1.4-1.4H32.4c-0.8,0-1.4,0.6-1.4,1.4V23L28.5,25.4z"/>
			</g>
		</g>
	</g>
	<g>
		<g>
			<path class="st0" d="M35.2,27c-0.8,0-1.4-0.6-1.4-1.4c0-0.8,0.6-1.4,1.4-1.4c0.8,0,1.4,0.6,1.4,1.4C36.6,26.3,36,27,35.2,27z
				 M35.2,24.9c-0.4,0-0.7,0.3-0.7,0.7c0,0.4,0.3,0.7,0.7,0.7c0.4,0,0.7-0.3,0.7-0.7C35.9,25.2,35.6,24.9,35.2,24.9z"/>
		</g>
		<g>
			<path class="st0" d="M41,27c-0.8,0-1.4-0.6-1.4-1.4c0-0.8,0.6-1.4,1.4-1.4c0.8,0,1.4,0.6,1.4,1.4C42.4,26.3,41.8,27,41,27z
				 M41,24.9c-0.4,0-0.7,0.3-0.7,0.7c0,0.4,0.3,0.7,0.7,0.7c0.4,0,0.7-0.3,0.7-0.7C41.7,25.2,41.4,24.9,41,24.9z"/>
		</g>
		<g>
			<path class="st0" d="M46.8,27c-0.8,0-1.4-0.6-1.4-1.4c0-0.8,0.6-1.4,1.4-1.4c0.8,0,1.4,0.6,1.4,1.4C48.2,26.3,47.5,27,46.8,27z
				 M46.8,24.9c-0.4,0-0.7,0.3-0.7,0.7c0,0.4,0.3,0.7,0.7,0.7c0.4,0,0.7-0.3,0.7-0.7C47.4,25.2,47.1,24.9,46.8,24.9z"/>
		</g>
	</g>
	<g>
		<g>
			<line class="st2" x1="34" y1="16.5" x2="42.1" y2="16.5"/>
			<rect x="34" y="16.1" class="st1" width="8.1" height="0.7"/>
		</g>
		<g>
			<line class="st2" x1="43.1" y1="16.5" x2="44" y2="16.5"/>
			<rect x="43.1" y="16.1" class="st1" width="0.8" height="0.7"/>
		</g>
		<g>
			<line class="st2" x1="45.2" y1="16.5" x2="48" y2="16.5"/>
			<rect x="45.2" y="16.1" class="st1" width="2.8" height="0.7"/>
		</g>
		<g>
			<line class="st2" x1="48" y1="18.8" x2="45.2" y2="18.8"/>
			<rect x="45.2" y="18.5" class="st1" width="2.8" height="0.7"/>
		</g>
		<g>
			<line class="st2" x1="44.7" y1="21.2" x2="48" y2="21.2"/>
			<rect x="44.7" y="20.8" class="st1" width="3.3" height="0.7"/>
		</g>
		<g>
			<line class="st2" x1="39.8" y1="21.2" x2="43.5" y2="21.2"/>
			<rect x="39.8" y="20.8" class="st1" width="3.7" height="0.7"/>
		</g>
		<g>
			<line class="st2" x1="43.7" y1="18.8" x2="40.5" y2="18.8"/>
			<rect x="40.5" y="18.5" class="st1" width="3.1" height="0.7"/>
		</g>
		<g>
			<line class="st2" x1="38.4" y1="18.8" x2="34" y2="18.8"/>
			<rect x="34" y="18.5" class="st1" width="4.4" height="0.7"/>
		</g>
	</g>
	<g>
		<g>
			<rect x="27.7" y="21.4" class="st0" width="0.7" height="0.9"/>
		</g>
		<g>
			<rect x="27.7" y="18.2" class="st0" width="0.7" height="0.9"/>
		</g>
	</g>
	<g>
		<rect x="38.3" y="34.4" class="st0" width="7.2" height="0.7"/>
	</g>
	<g>
		<rect x="47.3" y="34.4" class="st0" width="1.5" height="0.7"/>
	</g>
</g>
</svg>
