<?xml version="1.0" encoding="utf-8"?>
<!-- Generator: Adobe Illustrator 19.1.0, SVG Export Plug-In . SVG Version: 6.00 Build 0)  -->
<svg version="1.1" id="Layer_1" xmlns="http://www.w3.org/2000/svg" xmlns:xlink="http://www.w3.org/1999/xlink" x="0px" y="0px"
	 viewBox="0 0 85 85" style="enable-background:new 0 0 85 85;" xml:space="preserve">
<style type="text/css">
	.st0{fill:none;stroke:#010101;stroke-width:2;stroke-linecap:round;stroke-linejoin:round;stroke-miterlimit:10;}
	.st1{fill:#C0A963;}
</style>
<line class="st0" x1="15.6" y1="49.8" x2="70.5" y2="49.8"/>
<path class="st0" d="M35.4,22c0,0,13.4-1.9,20.3,3.2"/>
<path class="st0" d="M29.2,27.9c0,0,17.8-7.8,31.9,5.6"/>
<path class="st0" d="M26.1,33.5c0,0,21.2-14.2,36.7,8.2"/>
<path class="st0" d="M24.3,39.6c0,0,24.6-20.5,38.4,10.2"/>
<path class="st0" d="M24.3,46.7c0,0,8.4-15.1,23.5-9.1c10.7,4.2,11.3,20.3,11.3,20.3"/>
<path class="st0" d="M26.1,54.2c0,0,5.5-18.7,19.4-13.4s9,23.1,9,23.1"/>
<path class="st0" d="M29.2,59.6c0,0,2.6-20.6,15.2-15.9s5.3,22.7,5.3,22.7"/>
<path class="st0" d="M31.6,62.6c0,0,3.9-18.4,11.7-14.8c8.8,4.1,4.1,13.1,1.9,20.2"/>
<path class="st0" d="M41.7,67.9c0,0,3.8-8.4,3.4-12.5c-0.2-2.4-5.8-5.6-7.2-0.7c-1.8,6.3-0.5,6-3.8,9.8"/>
<path class="st0" d="M41.7,56.2c-0.3,0.3-1.4,7.8-3.7,10.3"/>
<g>
	<g>
		<rect x="10.5" y="9.7" class="st1" width="9.5" height="2.2"/>
		<rect x="10.5" y="9.7" class="st1" width="2.2" height="9.5"/>
	</g>
	<g>
		<rect x="65.5" y="9.7" class="st1" width="9.5" height="2.2"/>
		<rect x="72.8" y="9.7" class="st1" width="2.2" height="9.5"/>
	</g>
	<g>
		<rect x="10.5" y="72.5" class="st1" width="9.5" height="2.2"/>
		<rect x="10.5" y="65.2" class="st1" width="2.2" height="9.5"/>
	</g>
	<g>
		<rect x="65.5" y="72.5" class="st1" width="9.5" height="2.2"/>
		<rect x="72.8" y="65.2" class="st1" width="2.2" height="9.5"/>
	</g>
</g>
</svg>
