<?xml version="1.0" encoding="utf-8"?>
<!-- Generator: Adobe Illustrator 19.1.0, SVG Export Plug-In . SVG Version: 6.00 Build 0)  -->
<svg version="1.1" id="Layer_1" xmlns="http://www.w3.org/2000/svg" xmlns:xlink="http://www.w3.org/1999/xlink" x="0px" y="0px"
	 viewBox="0 0 85 85" style="enable-background:new 0 0 85 85;" xml:space="preserve">
<style type="text/css">
	.st0{fill:none;stroke:#010101;stroke-width:2;stroke-linecap:round;stroke-linejoin:round;stroke-miterlimit:10;}
	.st1{fill:#010101;}
	.st2{fill:#C0A963;}
</style>
<path class="st0" d="M62.2,50.6c0,0,0.3-2.3-1.1-3.7c-0.7-0.6-1.7-1.1-3.3-1.1v-4.9c0,0-0.1-3.2-3.3-3.2c-3.2,0-9.7,0-9.7,0
	s-9.7,1.5-9.7-9.4c0,0,0.7,8.1-5,8.1c-3,0-3.8,1.9-3.8,9.1c0,0-1.6,0-2.9,0.9c-1,0.7-2,2-2,4.2"/>
<path class="st0" d="M24.2,45.9c0,0-2.8-3.2-2.8-10.8s8.8-17.7,20.8-17.7s20.1,6.6,20.1,17.7c0,0,0.2,9.4-1.2,11.7"/>
<circle class="st1" cx="34.2" cy="48.4" r="2.9"/>
<circle class="st1" cx="49.8" cy="48.4" r="2.9"/>
<path class="st0" d="M26.3,55.5c0,0,7.2,14.8,15.4,14.8s16.2-14.8,16.2-14.8"/>
<line class="st0" x1="14.8" y1="50.6" x2="69.6" y2="50.6"/>
<g>
	<g>
		<rect x="10" y="10.9" class="st2" width="9.5" height="2.2"/>
		<rect x="10" y="10.9" class="st2" width="2.2" height="9.5"/>
	</g>
	<g>
		<rect x="65" y="10.9" class="st2" width="9.5" height="2.2"/>
		<rect x="72.3" y="10.9" class="st2" width="2.2" height="9.5"/>
	</g>
	<g>
		<rect x="10" y="73.7" class="st2" width="9.5" height="2.2"/>
		<rect x="10" y="66.4" class="st2" width="2.2" height="9.5"/>
	</g>
	<g>
		<rect x="65" y="73.7" class="st2" width="9.5" height="2.2"/>
		<rect x="72.3" y="66.4" class="st2" width="2.2" height="9.5"/>
	</g>
</g>
</svg>
