<?xml version="1.0" encoding="utf-8"?>
<!-- Generator: Adobe Illustrator 19.1.0, SVG Export Plug-In . SVG Version: 6.00 Build 0)  -->
<svg version="1.1" id="Layer_1" xmlns="http://www.w3.org/2000/svg" xmlns:xlink="http://www.w3.org/1999/xlink" x="0px" y="0px"
	 viewBox="-50 3.7 85 85" style="enable-background:new -50 3.7 85 85;" xml:space="preserve">
<style type="text/css">
	.st0{fill:#C0A963;}
</style>
<g>
	<g>
		<rect x="-40" y="14.6" class="st0" width="9.5" height="2.2"/>
		<rect x="-40" y="14.6" class="st0" width="2.2" height="9.5"/>
	</g>
	<g>
		<rect x="15" y="14.6" class="st0" width="9.5" height="2.2"/>
		<rect x="22.3" y="14.6" class="st0" width="2.2" height="9.5"/>
	</g>
	<g>
		<rect x="-40" y="77.4" class="st0" width="9.5" height="2.2"/>
		<rect x="-40" y="70.1" class="st0" width="2.2" height="9.5"/>
	</g>
	<g>
		<rect x="15" y="77.4" class="st0" width="9.5" height="2.2"/>
		<rect x="22.3" y="70.1" class="st0" width="2.2" height="9.5"/>
	</g>
</g>
<g>
	<path d="M13.3,60.8h-2.1V40.7c0-2-1.6-3.6-3.6-3.6H6.5v-5.6v-3.1V28c0-1.3-1-2.3-2.3-2.3H3.8h-22.7h-0.5c-1.3,0-2.3,1-2.3,2.3v0.5
		v3.1v5.6h-1c-2,0-3.6,1.6-3.6,3.6v20.1h-2.1c-0.5,0-0.9,0.4-0.9,0.9c0,4.1,3.3,5.6,7.4,5.6H6.8c4.1,0,7.4-1.5,7.4-5.6
		C14.2,61.1,13.8,60.8,13.3,60.8z M-19.8,38v-5.6H4.7V38v22.8h-24.4L-19.8,38C-19.7,38-19.8,38-19.8,38z M7.6,38.9
		c1,0,1.8,0.8,1.8,1.8v20.1H6.5V38.9H7.6z M3.9,27.5c0.5,0,0.9,0.4,0.9,0.9v2.2h-24.6v-2.2c0-0.5,0.4-0.9,0.9-0.9H3.9z M-24.4,40.7
		c0-1,0.8-1.8,1.8-1.8h1.1v21.9h-2.9V40.7z M6.8,65.5h-28.6c-2.8,0-5.1-0.3-5.5-2.9h6.7H5.7h6.7C11.8,65.2,9.6,65.5,6.8,65.5z"/>
</g>
<g>
	<path d="M-1.5,54.7h4v-20h-20v20h4H-1.5z M-11.5,52.7c0-2.2,1.8-4,4-4s4,1.8,4,4H-11.5z M-10.5,43.7c0-1.7,1.3-3,3-3s3,1.3,3,3
		s-1.3,3-3,3S-10.5,45.4-10.5,43.7z M-15.5,52.7v-16h16v16h-2c0-2.2-1.2-4.1-2.9-5.1c1.1-0.9,1.9-2.3,1.9-3.9c0-2.8-2.2-5-5-5
		s-5,2.2-5,5c0,1.6,0.7,3,1.9,3.9c-1.7,1.1-2.9,3-2.9,5.1H-15.5z"/>
</g>
</svg>
