<?xml version="1.0" encoding="utf-8"?>
<!-- Generator: Adobe Illustrator 19.1.0, SVG Export Plug-In . SVG Version: 6.00 Build 0)  -->
<svg version="1.1" xmlns="http://www.w3.org/2000/svg" xmlns:xlink="http://www.w3.org/1999/xlink" x="0px" y="0px"
	 viewBox="-269 392.2 56.7 56.7" style="enable-background:new -269 392.2 56.7 56.7;" xml:space="preserve">
<style type="text/css">
	.st0{fill:#C0A862;}
	.st1{fill:#FFFFFF;}
</style>
<g id="Layer_1">
</g>
<g id="Layer_3">
	<g>
		<g>
			<path d="M-232,424h-14.6c-0.3,0-0.6-0.3-0.6-0.6v-7.8c0-0.3,0.3-0.6,0.6-0.6h3.4v1.1h-2.8v6.7h13.4v-6.7h-2.8V415h3.4
				c0.3,0,0.6,0.3,0.6,0.6v7.8C-231.5,423.7-231.7,424-232,424z"/>
		</g>
		<g>
			<path d="M-239.3,417.8c-0.2,0-0.4-0.1-0.5-0.3c-0.5-0.8-5.1-8.1-5.1-10.9c0-3.1,2.5-5.6,5.6-5.6c3.1,0,5.6,2.5,5.6,5.6
				c0,2.9-4.6,10.1-5.1,10.9C-239,417.7-239.1,417.8-239.3,417.8z M-239.3,402.1c-2.5,0-4.5,2-4.5,4.5c0,1.9,2.9,7,4.5,9.6
				c1.6-2.6,4.5-7.7,4.5-9.6C-234.8,404.1-236.9,402.1-239.3,402.1z"/>
		</g>
		<g>
			<path d="M-239.3,410c-1.9,0-3.4-1.5-3.4-3.4s1.5-3.4,3.4-3.4c1.9,0,3.4,1.5,3.4,3.4S-237.5,410-239.3,410z M-239.3,404.4
				c-1.2,0-2.2,1-2.2,2.2c0,1.2,1,2.2,2.2,2.2c1.2,0,2.2-1,2.2-2.2C-237.1,405.4-238.1,404.4-239.3,404.4z"/>
		</g>
		<g>
			<path d="M-248.3,418.9h-3.4c-0.9,0-1.7-0.8-1.7-1.7v-5h1.1v5c0,0.3,0.3,0.6,0.6,0.6h3.4V418.9z"/>
		</g>
		<g>
			<path d="M-252.2,426.8h-1.1v-5c0-0.9,0.8-1.7,1.7-1.7h3.4v1.1h-3.4c-0.3,0-0.6,0.3-0.6,0.6V426.8z"/>
		</g>
		<g>
			<path d="M-252.8,411.1c-2.5,0-4.5-2-4.5-4.5c0-2.5,2-4.5,4.5-4.5c2.5,0,4.5,2,4.5,4.5C-248.3,409.1-250.3,411.1-252.8,411.1z
				 M-252.8,403.3c-1.9,0-3.4,1.5-3.4,3.4s1.5,3.4,3.4,3.4c1.9,0,3.4-1.5,3.4-3.4S-250.9,403.3-252.8,403.3z"/>
		</g>
		<g>
			<path d="M-252.8,436.9c-2.5,0-4.5-2-4.5-4.5c0-2.5,2-4.5,4.5-4.5c2.5,0,4.5,2,4.5,4.5C-248.3,434.8-250.3,436.9-252.8,436.9z
				 M-252.8,429c-1.9,0-3.4,1.5-3.4,3.4s1.5,3.4,3.4,3.4c1.9,0,3.4-1.5,3.4-3.4S-250.9,429-252.8,429z"/>
		</g>
		<g>
			<path d="M-227,418.9h-3.4v-1.1h3.4c0.3,0,0.6-0.3,0.6-0.6v-5h1.1v5C-225.3,418.2-226.1,418.9-227,418.9z"/>
		</g>
		<g>
			<path d="M-241.6,432.9h-5.6v-1.1h5.6c0.3,0,0.6-0.3,0.6-0.6v-6.2h1.1v6.2C-239.9,432.2-240.6,432.9-241.6,432.9z"/>
		</g>
		<g>
			<path d="M-231.5,432.9h-5.6c-0.9,0-1.7-0.8-1.7-1.7v-6.2h1.1v6.2c0,0.3,0.3,0.6,0.6,0.6h5.6V432.9z"/>
		</g>
		<g>
			<path d="M-225.3,426.8h-1.1v-5c0-0.3-0.3-0.6-0.6-0.6h-3.4v-1.1h3.4c0.9,0,1.7,0.8,1.7,1.7V426.8z"/>
		</g>
		<g>
			<path d="M-225.9,411.1c-2.5,0-4.5-2-4.5-4.5c0-2.5,2-4.5,4.5-4.5c2.5,0,4.5,2,4.5,4.5C-221.4,409.1-223.4,411.1-225.9,411.1z
				 M-225.9,403.3c-1.9,0-3.4,1.5-3.4,3.4s1.5,3.4,3.4,3.4c1.9,0,3.4-1.5,3.4-3.4S-224,403.3-225.9,403.3z"/>
		</g>
		<g>
			<path d="M-225.9,436.9c-2.5,0-4.5-2-4.5-4.5c0-2.5,2-4.5,4.5-4.5c2.5,0,4.5,2,4.5,4.5C-221.4,434.8-223.4,436.9-225.9,436.9z
				 M-225.9,429c-1.9,0-3.4,1.5-3.4,3.4s1.5,3.4,3.4,3.4c1.9,0,3.4-1.5,3.4-3.4S-224,429-225.9,429z"/>
		</g>
		<g>
			<path d="M-225.9,408.9c-1.2,0-2.2-1-2.2-2.2c0-1.2,1-2.2,2.2-2.2c1.2,0,2.2,1,2.2,2.2C-223.6,407.8-224.6,408.9-225.9,408.9z
				 M-225.9,405.5c-0.6,0-1.1,0.5-1.1,1.1c0,0.6,0.5,1.1,1.1,1.1c0.6,0,1.1-0.5,1.1-1.1C-224.8,406-225.3,405.5-225.9,405.5z"/>
		</g>
		<g>
			<path d="M-225.9,434.6c-1.2,0-2.2-1-2.2-2.2c0-1.2,1-2.2,2.2-2.2c1.2,0,2.2,1,2.2,2.2C-223.6,433.6-224.6,434.6-225.9,434.6z
				 M-225.9,431.3c-0.6,0-1.1,0.5-1.1,1.1c0,0.6,0.5,1.1,1.1,1.1c0.6,0,1.1-0.5,1.1-1.1C-224.8,431.8-225.3,431.3-225.9,431.3z"/>
		</g>
		<g>
			<path d="M-252.8,408.9c-1.2,0-2.2-1-2.2-2.2c0-1.2,1-2.2,2.2-2.2c1.2,0,2.2,1,2.2,2.2C-250.5,407.8-251.5,408.9-252.8,408.9z
				 M-252.8,405.5c-0.6,0-1.1,0.5-1.1,1.1c0,0.6,0.5,1.1,1.1,1.1c0.6,0,1.1-0.5,1.1-1.1C-251.6,406-252.2,405.5-252.8,405.5z"/>
		</g>
		<g>
			<path d="M-252.8,434.6c-1.2,0-2.2-1-2.2-2.2c0-1.2,1-2.2,2.2-2.2c1.2,0,2.2,1,2.2,2.2C-250.5,433.6-251.5,434.6-252.8,434.6z
				 M-252.8,431.3c-0.6,0-1.1,0.5-1.1,1.1c0,0.6,0.5,1.1,1.1,1.1c0.6,0,1.1-0.5,1.1-1.1C-251.6,431.8-252.2,431.3-252.8,431.3z"/>
		</g>
		<g>
			<rect x="-239.9" y="418.9" width="1.1" height="1.1"/>
		</g>
		<g>
			<rect x="-242.1" y="418.9" width="1.1" height="1.1"/>
		</g>
		<g>
			<rect x="-237.6" y="418.9" width="1.1" height="1.1"/>
		</g>
	</g>
</g>
<g id="Layer_2">
	<circle class="st0" cx="-227.3" cy="434.1" r="10"/>
	<g>
		<path class="st1" d="M-228.5,436.7l0-0.5c-0.1-1,0.2-2,1.1-3.1c0.8-1,1.3-1.7,1.3-2.5c0-0.9-0.6-1.5-1.7-1.6
			c-0.6,0-1.4,0.2-1.8,0.6l-0.4-1.1c0.6-0.4,1.6-0.7,2.6-0.7c2.1,0,3,1.3,3,2.7c0,1.2-0.7,2.1-1.6,3.1c-0.8,0.9-1.1,1.7-1,2.7l0,0.5
			H-228.5z M-228.9,439.3c0-0.7,0.5-1.1,1.1-1.1c0.6,0,1.1,0.5,1.1,1.1c0,0.6-0.4,1.1-1.1,1.1C-228.4,440.4-228.9,439.9-228.9,439.3
			z"/>
	</g>
</g>
</svg>
