<?xml version="1.0" encoding="utf-8"?>
<!-- Generator: Adobe Illustrator 19.1.0, SVG Export Plug-In . SVG Version: 6.00 Build 0)  -->
<svg version="1.1" id="Layer_1" xmlns="http://www.w3.org/2000/svg" xmlns:xlink="http://www.w3.org/1999/xlink" x="0px" y="0px"
	 viewBox="-50 3.7 85 85" style="enable-background:new -50 3.7 85 85;" xml:space="preserve">
<style type="text/css">
	.st0{fill:#C0A963;}
	.st1{fill:none;stroke:#010101;stroke-width:1.7671;stroke-linecap:round;stroke-linejoin:round;stroke-miterlimit:10;}
</style>
<g>
	<g>
		<rect x="-39.5" y="13.6" class="st0" width="9.5" height="2.2"/>
		<rect x="-39.5" y="13.6" class="st0" width="2.2" height="9.5"/>
	</g>
	<g>
		<rect x="15.5" y="13.6" class="st0" width="9.5" height="2.2"/>
		<rect x="22.8" y="13.6" class="st0" width="2.2" height="9.5"/>
	</g>
	<g>
		<rect x="-39.5" y="76.4" class="st0" width="9.5" height="2.2"/>
		<rect x="-39.5" y="69.1" class="st0" width="2.2" height="9.5"/>
	</g>
	<g>
		<rect x="15.5" y="76.4" class="st0" width="9.5" height="2.2"/>
		<rect x="22.8" y="69.1" class="st0" width="2.2" height="9.5"/>
	</g>
</g>
<path class="st1" d="M-25.8,25.1c0,0,15.9,0.6,13.3,9.3c0,0,1.4,4.5,1.3,5.4c-0.1,0.9-1.1,1.8-1.1,1.8s5.7,7.6,3.6,7.7s-2.5,0-2.5,0
	s3.8,4.5-3.1,4.3c0,0,2.8,2.4,2.8,3.1c0,0.7-1,1-1,1s3.6,6-7.9,3.6c0,0-2.2,1-2.2,2.7h-3.1"/>
<polyline class="st1" points="-7.9,55.2 -6.1,55.2 -3.6,48.9 -0.4,61.7 2.8,43.1 6.8,58.8 10.3,47.5 13.5,60.2 "/>
</svg>
