<?xml version="1.0" encoding="utf-8"?>
<!-- Generator: Adobe Illustrator 19.1.0, SVG Export Plug-In . SVG Version: 6.00 Build 0)  -->
<svg version="1.1" xmlns="http://www.w3.org/2000/svg" xmlns:xlink="http://www.w3.org/1999/xlink" x="0px" y="0px"
	 viewBox="-269 392.2 56.7 56.7" style="enable-background:new -269 392.2 56.7 56.7;" xml:space="preserve">
<style type="text/css">
	.st0{fill:#C0A862;}
	.st1{fill:#FFFFFF;}
</style>
<g id="Layer_1">
	<g>
		<g>
			<polygon points="-225.3,432.7 -231.5,432.7 -231.5,431.9 -226.2,431.9 -226.2,407.1 -252.7,407.1 -252.7,431.9 -247.4,431.9 
				-247.4,432.7 -253.6,432.7 -253.6,406.2 -225.3,406.2 			"/>
		</g>
		<g>
			<rect x="-253.1" y="409.8" width="27.4" height="0.9"/>
		</g>
		<g>
			<rect x="-251.8" y="408" width="0.9" height="0.9"/>
		</g>
		<g>
			<rect x="-250.1" y="408" width="0.9" height="0.9"/>
		</g>
		<g>
			<rect x="-248.3" y="408" width="0.9" height="0.9"/>
		</g>
		<g>
			<rect x="-246.5" y="406.7" width="0.9" height="3.5"/>
		</g>
		<g>
			<rect x="-244.8" y="408" width="17.7" height="0.9"/>
		</g>
		<g>
			<polygon points="-227.1,431 -231.5,431 -231.5,430.1 -228,430.1 -228,412.4 -250.9,412.4 -250.9,430.1 -247.4,430.1 -247.4,431 
				-251.8,431 -251.8,411.5 -227.1,411.5 			"/>
		</g>
		<g>
			<g>
				<path d="M-231.1,422.6c-0.1,0-0.1,0-0.2-0.1l-8.2-4.3l-8.2,4.3c-0.1,0.1-0.3,0.1-0.4,0c-0.1-0.1-0.2-0.2-0.2-0.4v-2.2
					c0-0.2,0.1-0.3,0.2-0.4l8-4.4c0.1,0,0.1-0.1,0.2-0.1h0.9c0.1,0,0.1,0,0.2,0.1l8,4.4c0.1,0.1,0.2,0.2,0.2,0.4v2.2
					c0,0.2-0.1,0.3-0.2,0.4C-230.9,422.6-231,422.6-231.1,422.6z M-239.5,417.3c0.1,0,0.1,0,0.2,0.1l7.7,4.1v-1.2l-7.6-4.2h-0.7
					l-7.6,4.2v1.2l7.7-4.1C-239.6,417.3-239.5,417.3-239.5,417.3z"/>
			</g>
			<g>
				<polygon points="-232.4,432.7 -246.5,432.7 -246.5,421.3 -245.6,421.3 -245.6,431.9 -233.3,431.9 -233.3,421.3 -232.4,421.3 
									"/>
			</g>
			<g>
				<polygon points="-236.8,432.3 -237.7,432.3 -237.7,426.6 -241.2,426.6 -241.2,432.3 -242.1,432.3 -242.1,425.7 -236.8,425.7 
									"/>
			</g>
			<g>
				<path d="M-239.5,424.4c-1,0-1.8-0.8-1.8-1.8s0.8-1.8,1.8-1.8c1,0,1.8,0.8,1.8,1.8S-238.5,424.4-239.5,424.4z M-239.5,421.7
					c-0.5,0-0.9,0.4-0.9,0.9s0.4,0.9,0.9,0.9c0.5,0,0.9-0.4,0.9-0.9S-239,421.7-239.5,421.7z"/>
			</g>
			<g>
				<rect x="-244.8" y="415.1" width="0.9" height="2.7"/>
			</g>
			<g>
				<rect x="-238.6" y="428.8" width="1.3" height="0.9"/>
			</g>
		</g>
	</g>
</g>
<g id="Layer_3">
</g>
<g id="Layer_2">
	<circle class="st0" cx="-227.3" cy="434.1" r="10"/>
	<g>
		<path class="st1" d="M-228.5,436.7l0-0.5c-0.1-1,0.2-2,1.1-3.1c0.8-1,1.3-1.7,1.3-2.5c0-0.9-0.6-1.5-1.7-1.6
			c-0.6,0-1.4,0.2-1.8,0.6l-0.4-1.1c0.6-0.4,1.6-0.7,2.6-0.7c2.1,0,3,1.3,3,2.7c0,1.2-0.7,2.1-1.6,3.1c-0.8,0.9-1.1,1.7-1,2.7l0,0.5
			H-228.5z M-228.9,439.3c0-0.7,0.5-1.1,1.1-1.1c0.6,0,1.1,0.5,1.1,1.1c0,0.6-0.4,1.1-1.1,1.1C-228.4,440.4-228.9,439.9-228.9,439.3
			z"/>
	</g>
</g>
</svg>
