<?xml version="1.0" encoding="utf-8"?>
<!-- Generator: Adobe Illustrator 19.1.0, SVG Export Plug-In . SVG Version: 6.00 Build 0)  -->
<svg version="1.0" id="Layer_1" xmlns="http://www.w3.org/2000/svg" xmlns:xlink="http://www.w3.org/1999/xlink" x="0px" y="0px"
	 viewBox="-41 100.9 512 640" style="enable-background:new -41 100.9 512 640;" xml:space="preserve">
<style type="text/css">
	.st0{fill:#284B84;}
</style>
<g>
	<path class="st0" d="M444.1,300v-32.7h24.5v-37.8L215,102.9L-38.6,229.5v37.8h24.5V300h24.5v229.1h-24.5v32.7h-24.5v49.1h507.3
		v-49.1h-24.5v-32.7h-24.5V300H444.1z M427.7,283.6h-98.2v-16.4h98.2V283.6z M313.2,561.8h-32.7v-32.7H256V300h24.5v-32.7h32.7V300
		h24.5v229.1h-24.5V561.8z M116.8,267.3h32.7V300H174v229.1h-24.5v32.7h-32.7v-32.7H92.3V300h24.5V267.3z M239.5,529.1h-49.1V300
		h49.1V529.1z M165.9,283.6v-16.4h98.2v16.4H165.9z M165.9,545.4h98.2v16.4h-98.2L165.9,545.4L165.9,545.4z M-22.3,250.9v-11.3
		L215,121.2l237.3,118.4v11.3h-8.2H-22.3z M2.3,283.6v-16.4h98.2v16.4H2.3z M26.8,300h49.1v229.1H26.8V300z M2.3,545.4h98.2v16.4
		H2.3V545.4z M452.3,578.2v16.4H-22.3v-16.4H452.3z M427.7,545.4v16.4h-98.2v-16.4H427.7z M403.2,529.1h-49.1V300h49.1V529.1z"/>
	<path class="st0" d="M215,242.7c27.1,0,49.1-22,49.1-49.1s-22-49.1-49.1-49.1s-49.1,22-49.1,49.1S187.9,242.7,215,242.7z
		 M215,160.9c18,0,32.7,14.7,32.7,32.7S233,226.4,215,226.4s-32.7-14.7-32.7-32.7S197,160.9,215,160.9z"/>
</g>
</svg>
