<?xml version="1.0" encoding="utf-8"?>
<!-- Generator: Adobe Illustrator 19.1.0, SVG Export Plug-In . SVG Version: 6.00 Build 0)  -->
<svg version="1.1" id="Layer_1" xmlns="http://www.w3.org/2000/svg" xmlns:xlink="http://www.w3.org/1999/xlink" x="0px" y="0px"
	 viewBox="0 0 512 512" style="enable-background:new 0 0 512 512;" xml:space="preserve">
<style type="text/css">
	.st0{fill:#0BE370;}
	.st1{fill:#14C767;}
	.st2{fill:#32FC8D;}
	.st3{fill:#00AB6C;}
</style>
<path d="M121.8,317.2c0.6,0,0.9-0.2,1.2-0.7l13.8-25.8c1.6-3.1,3.3-6.5,4.1-8.1c0.1-0.3,0.4-0.2,0.4,0v45.8c0,0.5,0.3,0.8,0.8,0.8
	h8.6c0.5,0,0.8-0.3,0.8-0.8v-61.6c0-0.5-0.3-0.8-0.8-0.8h-11.3c-0.7,0-1.1,0.3-1.4,0.8l-17.9,35.2c-0.1,0.2-0.2,0.2-0.3,0
	l-17.9-35.2c-0.3-0.5-0.7-0.8-1.4-0.8H89.2c-0.5,0-0.8,0.3-0.8,0.8v61.6c0,0.5,0.3,0.8,0.8,0.8h8.6c0.5,0,0.8-0.3,0.8-0.8v-45.8
	c0-0.2,0.3-0.3,0.4,0c0.8,1.6,2.5,5,4.1,8.1l13.8,25.8c0.3,0.5,0.6,0.7,1.2,0.7H121.8z M256.8,264.4c0-0.5-0.3-0.8-0.8-0.8h-8.6
	c-0.5,0-0.8,0.3-0.8,0.8v20.2c0,0.3-0.1,0.4-0.4,0.3c-3.8-1.6-7.4-2.6-11.5-2.6c-12.7,0-22.1,8.6-22.1,23.4
	c0,16.6,9.9,24.2,21.3,24.2c5.3,0,9.5-1.4,13.8-4.5l7.1,3.6c1.2,0.6,2.1,0,2.1-1.1V264.4z M161.2,305.8c0,17.1,11.5,24.1,23,24.1
	c6.7,0,12.9-1.8,18.2-5.8c0.5-0.4,0.6-0.7,0.3-1.3l-2.8-5.2c-0.3-0.6-0.7-0.6-1.2-0.3c-4.9,2.9-9,4.2-13.9,4.2
	c-5.8,0-12.5-3-13.4-12.6c0-0.1,0-0.3,0.3-0.3h32.1c1,0,0.9-1.7,0.9-3.3c0-16.5-9.8-22.9-20.8-22.9
	C171,282.3,161.2,290.8,161.2,305.8L161.2,305.8z M310.1,321.4c-4.3,0-7.3-1.6-8.6-4.6c-0.6-1.3-0.9-3.1-0.9-5.7v-27.3
	c0-0.5-0.3-0.8-0.8-0.8h-8.6c-0.5,0-0.8,0.3-0.8,0.8v27.7c0,4.3,0.6,7.2,1.6,9.5c2.8,6,8.7,8.9,16.5,8.9c5.8,0,10.3-1.4,14.7-4.5
	l7.1,3.6c1.2,0.6,2.1,0,2.1-1.1v-44.1c0-0.5-0.3-0.8-0.8-0.8h-8.6c-0.5,0-0.8,0.3-0.8,0.8v28.4c0,2.6-0.1,3.7-1.7,5.3
	C317.1,320.6,313.7,321.4,310.1,321.4L310.1,321.4z M222.9,305.8c0-9.8,5.4-15,12.3-15c3.5,0,6.7,0.8,9.3,3.2
	c1.8,1.6,2.1,3.1,2.1,6.6v11.6c0,2.6-0.1,3.7-1.7,5.3c-3.2,3.1-6.6,3.9-9.6,3.9C229.7,321.4,222.9,317.9,222.9,305.8L222.9,305.8z
	 M268.8,328.3c0,0.5,0.3,0.8,0.8,0.8h8.6c0.5,0,0.8-0.3,0.8-0.8v-44.6c0-0.5-0.3-0.8-0.8-0.8h-8.6c-0.5,0-0.8,0.3-0.8,0.8V328.3z
	 M171.7,300c1-5.8,5.3-9.6,11.9-9.6s10.6,4.5,10.6,9.8c0,0.2-0.1,0.3-0.3,0.3H172C171.6,300.6,171.7,300.2,171.7,300L171.7,300z
	 M267.9,269.1c0,3.2,2.7,5.7,6,5.7c3.4,0,6-2.6,6-5.7s-2.7-5.7-6-5.7C270.5,263.3,267.9,265.9,267.9,269.1L267.9,269.1z
	 M404.7,328.3c0,0.5,0.3,0.8,0.8,0.8h8.6c0.5,0,0.8-0.3,0.8-0.8v-27.1c0-5.2-0.8-8.5-2.2-11.2c-2.9-5.4-8.4-7.8-15.2-7.8
	c-6.2,0-11.8,2.2-16.2,6.5c-3.3-4.3-8.1-6.5-13.9-6.5c-5.5,0-9.9,1.4-14.1,4.5l-7.1-3.6c-1.2-0.6-2.1,0-2.1,1.1v44
	c0,0.5,0.3,0.8,0.8,0.8h8.6c0.5,0,0.8-0.3,0.8-0.8V300c0-2.7,0.2-3.9,1.5-5.3c2.3-2.5,5.6-3.8,9.1-3.8c5.7,0,9.3,3.3,9.3,9.3v28.1
	c0,0.5,0.3,0.8,0.8,0.8h8.6c0.5,0,0.8-0.3,0.8-0.8V300c0-2.7,0.2-3.9,1.5-5.3c2.3-2.5,5.6-3.8,9.1-3.8c3.8,0,6.7,1.4,8.2,4.2
	c0.7,1.4,1.1,3.3,1.1,5.8V328.3z"/>
<g>
	<path d="M88.4,347.8h17.8c9,0,15.3,4.6,15.3,12.8c0,4.6-2.2,8.6-6,10.6v0.1c5.5,1.6,8.1,6.7,8.1,11.7c0,9.9-8,14.4-17.2,14.4h-18
		V347.8z M106.2,368.1c3.9,0,6.2-2.8,6.2-6.4s-2.1-6.2-6.3-6.2h-8.6v12.5H106.2z M107.1,389.7c4.6,0,7.2-3,7.2-7.2
		c0-4.1-2.7-7.1-7.2-7.1h-9.7v14.4H107.1z"/>
	<path d="M131.4,347.8h8.8V385c0,3.9,1.3,4.9,3.6,4.9c0.7,0,1.3-0.1,1.3-0.1v7.8c0,0-1.3,0.2-2.8,0.2c-4.9,0-11-1.3-11-11.5V347.8z"
		/>
	<path d="M168.7,360.9c10.9,0,19.7,7.8,19.7,18.7c0,11-8.8,18.7-19.6,18.7c-10.9,0-19.7-7.7-19.7-18.7
		C149.1,368.7,157.9,360.9,168.7,360.9z M168.8,390.7c5.7,0,10.6-4.5,10.6-11.1c0-6.6-4.8-11.1-10.6-11.1c-5.8,0-10.6,4.6-10.6,11.1
		C158.2,386.3,163,390.7,168.8,390.7z"/>
	<path d="M209.1,404.6c5.5,0,10.1-2.3,10.1-8.7v-2.1c0-0.8,0.1-1.9,0.1-1.9h-0.1c-2.1,3.2-5.2,4.8-9.9,4.8c-10.2,0-16-8.3-16-18.1
		s5.5-17.8,15.8-17.8c7.8,0,10.6,4.6,10.6,4.6h0.2c0,0-0.1-0.4-0.1-1v-2.7h8.3v33.5c0,12.3-9.5,16.9-18.8,16.9
		c-4.5,0-9.2-1.3-12.7-3.1l2.7-6.8C199.2,402.3,203.7,404.6,209.1,404.6z M219.3,378.8c0-8.1-4-10.3-8.8-10.3
		c-5.4,0-8.4,3.9-8.4,9.9c0,6.2,3.2,10.9,9,10.9C215.4,389.3,219.3,386.8,219.3,378.8z"/>
</g>
<g>
	<path class="st0" d="M248.2,130.1l-51-25.5c-0.2-0.1-0.5-0.2-0.7-0.2c0,0,0,0,0,0c-0.6,0-1.2,0.3-1.6,0.9l-31.4,51.1l35.1,57
		l50.2-81.6C249.1,131.2,248.8,130.4,248.2,130.1z"/>
	<polygon class="st1" points="146.8,138.4 146.8,193.4 195.7,217.9 	"/>
	<path class="st2" d="M200,220l44.9,22.5c2.5,1.2,4.5,0,4.5-2.8v-100L200,220z"/>
	<path class="st3" d="M141.4,130.3l-47.1-23.5l-3-1.5c-0.4-0.2-0.8-0.3-1.2-0.3c-0.5,0-1,0.2-1.3,0.6c-0.3,0.4-0.5,0.9-0.5,1.6
		v107.4c0,1.8,1.3,4,3,4.8l46.2,23.1c0.6,0.3,1.3,0.5,1.8,0.5c1.6,0,2.7-1.2,2.7-3.2V131.4C142,130.9,141.8,130.5,141.4,130.3z"/>
</g>
</svg>
