<?xml version="1.0" encoding="utf-8"?>
<!-- Generator: Adobe Illustrator 19.1.0, SVG Export Plug-In . SVG Version: 6.00 Build 0)  -->
<svg version="1.0" xmlns="http://www.w3.org/2000/svg" xmlns:xlink="http://www.w3.org/1999/xlink" x="0px" y="0px"
	 viewBox="-233 340.9 128 160" style="enable-background:new -233 340.9 128 160;" xml:space="preserve">
<style type="text/css">
	.st0{fill:#FFFFFF;}
	.st1{fill:#081A37;}
	.st2{fill:#C7A562;}
</style>
<g id="Layer_1">
	<g>
		<path class="st0" d="M-116.4,445.9c0.1-0.2,0.2-0.4,0.2-0.6l-1.1-5.5c-0.1-0.3-0.4-0.6-0.7-0.6h-6.1l-0.8-4.6
			c-0.1-0.4-0.4-0.6-0.7-0.6h-2.4c0.4-0.6,0.6-1.3,0.6-2v-0.6c0-1.7-1.2-3.1-2.9-3.4v-41.4h7.7c1.5,0,2.7-1.2,2.7-2.7v-0.4
			c0-1.5-1.2-2.7-2.7-2.7h-3.5l0,0l-43.6-26c-0.2-0.1-0.5-0.1-0.8,0l-43.6,26l0,0h-3.5c-1.5,0-2.7,1.2-2.7,2.7v0.4
			c0,1.5,1.2,2.7,2.7,2.7h7.6v41.3c-1.6,0.3-2.9,1.7-2.9,3.4v0.6c0,0.7,0.2,1.4,0.6,2h-2.4c-0.4,0-0.7,0.3-0.7,0.6l-0.8,4.6h-6.1
			c-0.3,0-0.7,0.2-0.7,0.6l-1.1,5.5c0,0.2,0,0.4,0.2,0.6c0.1,0.2,0.3,0.3,0.6,0.3H-117C-116.8,446.1-116.5,446-116.4,445.9z
			 M-128.9,431.4v0.6c0,1.1-0.9,2-2,2h-7.7c-1.1,0-2-0.9-2-2v-0.6c0-1.1,0.9-2,2-2h0.1h7.4h0.1
			C-129.8,429.4-128.9,430.3-128.9,431.4z M-201.2,428v-41.4h14.7v41.3c-1.6,0.3-2.9,1.7-2.9,3.4v0.6c0,0.7,0.2,1.4,0.6,2h-10.1
			c0.4-0.6,0.6-1.3,0.6-2v-0.6C-198.3,429.7-199.5,428.3-201.2,428z M-179,427.9h-6v-41.3h6V427.9z M-187.8,432v-0.6
			c0-1.1,0.9-2,2-2h0.1h7.4h0.1c1.1,0,2,0.9,2,2v0.6c0,1.1-0.9,2-2,2h-7.7C-186.9,434-187.8,433.1-187.8,432z M-177.6,428v-41.4
			h14.7v41.3c-1.6,0.3-2.9,1.7-2.9,3.4v0.6c0,0.7,0.2,1.4,0.6,2h-10.1c0.4-0.6,0.6-1.3,0.6-2v-0.6
			C-174.7,429.7-175.9,428.3-177.6,428z M-155.4,427.9h-5.9v-41.3h5.9V427.9z M-164.2,432v-0.6c0-1.1,0.9-2,2-2h0.1h7.4h0.1
			c1.1,0,2,0.9,2,2v0.6c0,1.1-0.9,2-2,2h-7.7C-163.3,434-164.2,433.1-164.2,432z M-153.9,428v-41.4h14.7v41.3
			c-1.6,0.3-2.9,1.7-2.9,3.4v0.6c0,0.7,0.2,1.4,0.6,2h-10.2c0.4-0.6,0.6-1.3,0.6-2v-0.6C-151.1,429.7-152.3,428.3-153.9,428z
			 M-131.8,427.9h-5.9v-41.3h5.9V427.9z M-170.2,356.2l41.2,24.5h-82.4L-170.2,356.2z M-219,383.9v-0.4c0-0.7,0.6-1.3,1.3-1.3h95.1
			c0.7,0,1.3,0.6,1.3,1.3v0.4c0,0.7-0.6,1.3-1.3,1.3h-8.4h-7.4h-16.3h-7.4h-16.2h-7.4h-16.2h-7.4h-8.4
			C-218.4,385.2-219,384.6-219,383.9z M-202.6,386.6v41.3h-5.9v-41.3H-202.6z M-211.4,432v-0.6c0-1.1,0.9-2,2-2h0.1h7.4h0.1
			c1.1,0,2,0.9,2,2v0.6c0,1.1-0.9,2-2,2h-7.7C-210.5,434-211.4,433.1-211.4,432z M-214,435.4h4.6h7.7h15.9h7.7h15.9h7.7h15.9h7.7
			h4.6l0.7,3.8h-89L-214,435.4z M-222.5,444.7l0.8-4h6.1h90.7h6.1l0.8,4H-222.5z"/>
		<path class="st0" d="M-170.2,363.7c-3.3,0-6,2.7-6,6s2.7,6,6,6s6-2.7,6-6S-166.9,363.7-170.2,363.7z M-170.2,374.2
			c-2.5,0-4.5-2-4.5-4.5s2-4.5,4.5-4.5s4.5,2,4.5,4.5S-167.7,374.2-170.2,374.2z"/>
	</g>
</g>
<g id="Layer_3">
	<rect x="-165.2" y="413.5" class="st1" width="36.3" height="45.7"/>
</g>
<g id="Layer_2">
	<g>
		<path class="st2" d="M-130.3,412.5h-32.6c-1.8,0-3.2,1.4-3.2,3.2v41.5c0,1.8,1.4,3.2,3.2,3.2h32.6c1.8,0,3.2-1.4,3.2-3.2v-41.5
			C-127.1,413.9-128.5,412.5-130.3,412.5z M-129.1,457.3c0,0.7-0.5,1.2-1.2,1.2h-32.6c-0.7,0-1.2-0.5-1.2-1.2v-4h35V457.3z
			 M-129.1,451.3h-35v-29.7h35V451.3z M-129.1,419.6h-35v-3.9c0-0.7,0.5-1.2,1.2-1.2h32.6c0.7,0,1.2,0.5,1.2,1.2V419.6z"/>
		<path class="st2" d="M-155.3,447.3h17.4c0.3,0,0.5-0.1,0.7-0.3c0.2-0.2,0.3-0.5,0.3-0.7c-0.1-5.2-4.5-9.5-9.7-9.5
			s-9.6,4.3-9.7,9.5c0,0.3,0.1,0.5,0.3,0.7C-155.8,447.2-155.6,447.3-155.3,447.3z M-146.6,438.8c3.8,0,7,2.8,7.6,6.5h-15.2
			C-153.6,441.6-150.4,438.8-146.6,438.8z"/>
		<path class="st2" d="M-146.6,435.3c2.6,0,4.8-2.1,4.8-4.8c0-2.6-2.1-4.8-4.8-4.8c-2.6,0-4.8,2.1-4.8,4.8
			C-151.4,433.1-149.2,435.3-146.6,435.3z M-146.6,427.7c1.5,0,2.8,1.3,2.8,2.8s-1.3,2.8-2.8,2.8s-2.8-1.3-2.8-2.8
			C-149.4,428.9-148.1,427.7-146.6,427.7z"/>
		<path class="st2" d="M-149.4,456.9h5.6c0.6,0,1-0.4,1-1c0-0.6-0.4-1-1-1h-5.6c-0.6,0-1,0.4-1,1
			C-150.4,456.5-149.9,456.9-149.4,456.9z"/>
		<path class="st2" d="M-157.4,416.4c0,0-0.1-0.1-0.2-0.1c0,0-0.1-0.1-0.2-0.1c-0.1,0-0.1-0.1-0.2-0.1s-0.3,0-0.4,0
			c-0.1,0-0.1,0-0.2,0.1c-0.1,0-0.1,0-0.2,0.1c0,0-0.1,0.1-0.2,0.1c-0.1,0.1-0.2,0.2-0.2,0.3s-0.1,0.3-0.1,0.4s0,0.1,0,0.2
			s0,0.1,0,0.2c0.3,0,0.3,0.1,0.3,0.1l0.1,0.1c0,0,0.1,0.1,0.2,0.1c0.1,0,0.1,0.1,0.2,0.1s0.1,0,0.2,0.1c0.1,0,0.1,0,0.2,0
			c0.3,0,0.5-0.1,0.7-0.3c0-0.1,0.1-0.1,0.1-0.1c0-0.1,0.1-0.1,0.1-0.2c0-0.1,0-0.1,0.1-0.2c0-0.1,0-0.1,0-0.2c0-0.1,0-0.3-0.1-0.4
			C-157.4,416.6-157.4,416.5-157.4,416.4z"/>
		<path class="st2" d="M-160.3,416.7c0-0.1-0.1-0.1-0.1-0.2c0-0.1-0.1-0.1-0.1-0.2c-0.1-0.1-0.2-0.2-0.3-0.2c-0.2,0-0.4-0.1-0.6,0
			c-0.1,0-0.1,0-0.2,0.1c-0.1,0-0.1,0-0.2,0.1c-0.1,0.1-0.1,0-0.1,0.1c-0.1,0-0.1,0.1-0.1,0.2c-0.1,0-0.1,0-0.1,0.1s0,0.1-0.1,0.2
			c0,0.1,0,0.1,0,0.2s0,0.1,0,0.2c0,0.1,0,0.1,0.1,0.2c0,0,0,0.1,0.1,0.1l0.1,0.1l0.1,0.1c0,0,0.1,0.1,0.2,0.1
			c0.1,0.1,0.2,0.1,0.2,0.1c0.1,0,0.1,0,0.2,0c0.1,0,0.3,0,0.4-0.1c0.1,0,0.2-0.1,0.3-0.2c0-0.1,0.1-0.1,0.1-0.1
			c0-0.1,0.1-0.1,0.1-0.2c0-0.1,0-0.1,0.1-0.2c0-0.1,0-0.1,0-0.2c0-0.1,0-0.1,0-0.2C-160.2,416.8-160.2,416.7-160.3,416.7z"/>
		<path class="st2" d="M-143.3,416.1h-6.6c-0.6,0-1,0.4-1,1s0.4,1,1,1h6.6c0.6,0,1-0.4,1-1S-142.7,416.1-143.3,416.1z"/>
	</g>
</g>
</svg>
