<?xml version="1.0" encoding="utf-8"?>
<!-- Generator: Adobe Illustrator 19.1.0, SVG Export Plug-In . SVG Version: 6.00 Build 0)  -->
<svg version="1.1" id="Layer_1" xmlns="http://www.w3.org/2000/svg" xmlns:xlink="http://www.w3.org/1999/xlink" x="0px" y="0px"
	 viewBox="245 -93 576 270" style="enable-background:new 245 -93 576 270;" xml:space="preserve">
<style type="text/css">
	.st0{fill:#E9A823;}
	.st1{fill:#3FB991;}
	.st2{fill:#E11765;}
	.st3{fill:#472A49;}
	.st4{fill:#CD2027;}
	.st5{fill:#71CBDC;}
	.st6{fill:#1D947E;}
	.st7{fill:#66873A;}
	.st8{fill:#3C444C;}
</style>
<g>
	<g>
		<path class="st0" d="M386.8-5.9c-1.9-5.7-8-8.8-13.7-7c-5.7,1.9-8.8,8-7,13.7l28.1,86.4c1.9,5.3,7.7,8.3,13.2,6.7
			c5.8-1.7,9.3-7.8,7.4-13.4C414.8,80.3,386.8-5.9,386.8-5.9z"/>
		<path class="st1" d="M343.3,8.2c-1.9-5.7-8-8.8-13.7-7c-5.7,1.9-8.8,8-7,13.7l28.1,86.4c1.9,5.3,7.7,8.3,13.2,6.7
			c5.8-1.7,9.3-7.8,7.4-13.4C371.3,94.4,343.3,8.2,343.3,8.2z"/>
		<path class="st2" d="M422.2,65.6c5.7-1.9,8.8-8,7-13.7c-1.9-5.7-8-8.8-13.7-7L329,73.1c-5.3,1.9-8.3,7.7-6.7,13.2
			c1.7,5.8,7.8,9.3,13.4,7.4C335.9,93.7,422.2,65.6,422.2,65.6z"/>
		<path class="st3" d="M347,90.1c5.6-1.8,12.9-4.2,20.7-6.7c-1.8-5.6-4.2-12.9-6.7-20.7l-20.7,6.7L347,90.1z"/>
		<path class="st4" d="M390.6,75.9c7.8-2.5,15.1-4.9,20.7-6.7c-1.8-5.6-4.2-12.9-6.7-20.7l-20.7,6.7L390.6,75.9z"/>
		<path class="st5" d="M408,22.1c5.7-1.9,8.8-8,7-13.7c-1.9-5.7-8-8.8-13.7-7l-86.4,28.1c-5.3,1.9-8.3,7.7-6.7,13.2
			c1.7,5.8,7.8,9.3,13.4,7.4C321.8,50.1,408,22.1,408,22.1z"/>
		<path class="st6" d="M332.9,46.5c5.6-1.8,12.9-4.2,20.7-6.7c-2.5-7.8-4.9-15.1-6.7-20.7l-20.7,6.7L332.9,46.5z"/>
		<path class="st7" d="M376.4,32.4c7.8-2.5,15.1-4.9,20.7-6.7c-2.5-7.8-4.9-15.1-6.7-20.7l-20.7,6.7L376.4,32.4z"/>
	</g>
</g>
<path class="st8" d="M509.8,16.8c3.8,1.7,4.1,2.9,1.1,8.6c-3.1,5.8-3.8,6.2-7.6,4.7c-4.7-2-10.8-3.5-14.7-3.5
	c-6.4,0-10.6,2.3-10.6,5.8c0,11.5,36.6,5.3,36.6,29.7c0,12.3-10.6,20.5-26.4,20.5c-8.3,0-18.6-2.8-25.7-6.4
	c-3.5-1.8-3.8-2.8-0.7-8.7c2.6-5.1,3.5-5.7,7.3-4.1c6,2.6,13.7,4.7,18.8,4.7c5.8,0,9.7-2.4,9.7-5.8c0-11.1-37.3-5.8-37.3-29.5
	c0-12.6,10.5-21,26.2-21C494.1,11.7,503.4,13.9,509.8,16.8z"/>
<path class="st8" d="M539.4-12.2V79c0,1.4-1.5,2.8-3.5,2.8h-9.6c-2.1,0-3.5-1.5-3.5-2.8v-91.2c0-4.5,1.3-4.9,8.3-4.9
	C539.1-17.2,539.4-16.6,539.4-12.2z"/>
<path class="st8" d="M607.6,39v39.3c0,2.1-1.5,3.5-3.5,3.5h-9.5c-2.2,0-3.7-1.6-3.5-3.8l0.1-4.2c-5.1,5.7-12.5,8.7-19.9,8.7
	c-14.3,0-23.9-8.3-23.9-20.6c0-13.1,10.8-22,27.1-22c6.2,0,11.8,1.1,16.4,3v-4.5c0-7.2-5.7-11.5-15.4-11.5c-4.5,0-10.1,1.8-14.5,4.4
	c-3.4,1.9-4.2,1.8-7.9-3.7c-3.6-5.5-3.5-6.5,0-8.8c6.7-4.3,15.7-7.1,24-7.1C595.8,11.7,607.6,21.8,607.6,39z M563.4,61.8
	c0,4.7,4,7.8,9.9,7.8c7.2,0,13.8-3.5,17.6-9.4v-6.1c-3.8-1.5-8.5-2.3-12.6-2.3C569.3,51.8,563.4,56,563.4,61.8z"/>
<path class="st8" d="M672.6,16.9c3.5,2,3.6,3.1-0.2,9c-3.6,5.6-4.2,5.9-8.1,4c-2.9-1.5-7.6-2.8-11.4-2.8c-12,0-20,7.9-20,19.9
	c0,12.4,8,20.8,20,20.8c4.2,0,9.4-1.6,12.8-3.5c3.5-2,4.2-1.9,7.9,3.5c3.3,5,3.3,6.2,0.3,8.3c-5.4,3.7-13.8,6.5-21.3,6.5
	c-22.2,0-37.1-14.2-37.1-35.6c0-21.2,14.9-35.3,37.3-35.3C659.6,11.7,667.6,14,672.6,16.9z"/>
<path class="st8" d="M745.2,73.2c2.8,3.5,1.7,4.8-5.3,7.3c-7.1,2.6-8.1,2.4-10.6-0.8l-19.9-26.5l-8.9,8.6V79c0,1.4-1.5,2.8-3.5,2.8
	h-9.6c-2.1,0-3.5-1.5-3.5-2.8v-91.2c0-4.5,1.3-4.9,8.3-4.9c8.1,0,8.3,0.6,8.3,4.9v51.8l27.2-26.1c3-2.8,4.7-2.6,10,0.9
	c5.9,3.8,6.3,4.9,3.5,7.6L721,41.8L745.2,73.2z"/>
</svg>
