<svg width="22" height="31" viewBox="0 0 22 31" xmlns="http://www.w3.org/2000/svg"><title>81A60B5C-D6E9-4DB5-A2EA-4BB4F0D35040</title><path d="M20.822 16.19c-.697-.927-1.749-1.563-3.155-1.91 1.79-.94 2.578-2.534 2.362-4.785-.073-.816-.292-1.523-.659-2.123a4.182 4.182 0 0 0-1.487-1.446 8.056 8.056 0 0 0-2.037-.835 15.659 15.659 0 0 0-2.524-.417V0h-2.776v4.544c-.48 0-1.214.012-2.2.037V0H5.57v4.674c-.396.012-.98.019-1.748.019L0 4.673v3.043h2c.914 0 1.45.42 1.605 1.26V14.3c.12 0 .217.006.289.018h-.289v7.456c-.096.63-.444.946-1.045.946h-2L0 26.114h3.606c.228 0 .558.003.991.009.433.006.757.01.973.01v4.728h2.777v-4.673c.505.012 1.238.018 2.2.018v4.655h2.775v-4.729c.986-.05 1.86-.142 2.623-.278.763-.136 1.494-.35 2.19-.64.697-.29 1.28-.652 1.749-1.085.469-.433.856-.983 1.163-1.65.306-.669.501-1.441.585-2.32.157-1.718-.113-3.04-.81-3.968zM8.4 7.92a129.542 129.542 0 0 0 1.686-.028c.258-.006.606.01 1.045.046.439.037.808.087 1.109.149.3.061.63.164.991.306.36.142.65.315.865.519.217.204.4.464.55.779.15.315.225.677.225 1.085 0 .346-.054.662-.162.946-.107.284-.27.522-.486.714a4.94 4.94 0 0 1-.667.5c-.229.143-.52.257-.875.344-.354.087-.664.155-.928.204-.264.05-.595.084-.991.102-.397.018-.698.031-.902.037a18.84 18.84 0 0 1-.838 0l-.622-.01V7.92zm7.58 12.63a2.651 2.651 0 0 1-.441.742c-.18.21-.418.396-.712.556-.295.161-.58.291-.857.39-.276.1-.61.185-1 .26-.391.074-.733.126-1.028.157-.294.031-.646.056-1.055.075a22.998 22.998 0 0 1-1.82.018c-.35-.006-.571-.009-.667-.009v-6.269c.096 0 .381-.006.856-.019.475-.012.862-.018 1.163-.018.3 0 .715.018 1.244.056.528.037.973.092 1.334.166.36.074.754.189 1.18.343.427.155.773.343 1.037.566.265.223.487.507.667.853.18.346.27.742.27 1.187 0 .347-.056.662-.17.946z" fill-rule="nonzero" fill="#FE931F"/></svg>