<svg width="15" height="28" viewBox="0 0 15 28" xmlns="http://www.w3.org/2000/svg"><title>549B1A6E-C485-4AD8-BF3D-20B1E58BEAFD</title><path d="M14.378.006L10.8 0C6.78 0 4.182 2.677 4.182 6.82v3.145H.585a.564.564 0 0 0-.563.565v4.557c0 .312.252.565.563.565h3.597v11.497c0 .312.252.565.563.565h4.694c.31 0 .562-.253.562-.565V15.652h4.207c.31 0 .562-.253.562-.565l.002-4.557a.567.567 0 0 0-.563-.565h-4.208V7.299c0-1.281.304-1.931 1.966-1.931l2.41-.001c.311 0 .563-.253.563-.565V.57a.564.564 0 0 0-.562-.565z" fill-rule="nonzero" fill="#3B5898"/></svg>