<svg width="30" height="27" viewBox="0 0 30 27" xmlns="http://www.w3.org/2000/svg"><title>CD4F4B26-11CE-4B2E-B170-9F92DBE019A5</title><g fill-rule="nonzero" fill="#303030"><path d="M27.26 7.42c.322-1.033.483-2.104.483-3.213 0-1.48-.304-2.87-.91-4.17-1.273 0-2.397.248-3.372.745-.975.498-2.087 1.27-3.336 2.315-1.57-.408-3.235-.612-4.995-.612a22.21 22.21 0 0 0-5.513.67C8.344 2.083 7.22 1.296 6.245.792 5.269.288 4.139.036 2.855.036a9.746 9.746 0 0 0-.91 4.17c0 1.123.16 2.207.482 3.252C.809 9.486 0 12.011 0 15.034c0 2.652.369 4.763 1.106 6.331a7.939 7.939 0 0 0 1.535 2.2 7.882 7.882 0 0 0 2.158 1.55c.81.395 1.624.724 2.445.985.82.261 1.727.452 2.72.573.994.122 1.87.201 2.632.24.761.038 1.605.057 2.534.057 1.094 0 2.086-.029 2.979-.086.892-.057 1.912-.198 3.06-.42 1.147-.224 2.159-.527 3.033-.91.874-.382 1.713-.93 2.516-1.644a7.654 7.654 0 0 0 1.882-2.544c.725-1.582 1.088-3.693 1.088-6.332 0-3.036-.81-5.573-2.427-7.614zm-2.14 13.916c-.38.836-.862 1.492-1.445 1.97-.583.48-1.308.861-2.176 1.149-.869.287-1.7.475-2.498.564-.797.089-1.683.133-2.659.133h-2.997a24 24 0 0 1-2.658-.133 12.35 12.35 0 0 1-2.498-.564c-.868-.288-1.594-.67-2.177-1.148-.583-.479-1.064-1.135-1.445-1.97-.38-.836-.57-1.815-.57-2.937 0-1.53.41-2.832 1.23-3.902.821-1.072 1.933-1.607 3.337-1.607.511 0 1.67.134 3.479.402.844.14 1.778.21 2.8.21 1.024 0 1.958-.07 2.802-.21 1.832-.268 2.991-.402 3.48-.402 1.403 0 2.515.536 3.335 1.607.821 1.07 1.231 2.371 1.231 3.902 0 1.122-.19 2.101-.57 2.936z"/><path d="M10.428 15.378c-.363-.434-.794-.651-1.293-.651-.5 0-.931.217-1.294.65a3.847 3.847 0 0 0-.767 1.454 5.848 5.848 0 0 0-.223 1.57c0 .509.074 1.032.223 1.568.148.535.404 1.02.767 1.453.363.434.794.65 1.294.65s.93-.217 1.293-.65c.363-.433.618-.918.767-1.453a5.854 5.854 0 0 0 .223-1.569 5.85 5.85 0 0 0-.223-1.57 3.848 3.848 0 0 0-.767-1.452zM21.847 15.378c-.363-.434-.794-.651-1.294-.651s-.93.217-1.293.65a3.842 3.842 0 0 0-.767 1.454 5.843 5.843 0 0 0-.224 1.57c0 .509.075 1.032.224 1.568a3.84 3.84 0 0 0 .767 1.453c.363.434.794.65 1.293.65.5 0 .93-.217 1.294-.65.362-.433.618-.918.767-1.453a5.856 5.856 0 0 0 .223-1.569 5.86 5.86 0 0 0-.223-1.57 3.855 3.855 0 0 0-.767-1.452z"/></g></svg>