<svg width="30" height="26" viewBox="0 0 30 26" xmlns="http://www.w3.org/2000/svg"><title>8239E6D8-15B5-4A7D-83A3-F4689AFB5FF5</title><g fill="#03B875" fill-rule="evenodd"><path d="M29.579 4.664c-.006-.005-.01-.01-.017-.014l-.01-.005L20.61.102a.916.916 0 0 0-.188-.068.978.978 0 0 0-.246-.034 1.02 1.02 0 0 0-.867.48L14.16 8.978l6.46 10.665L29.606 4.81a.112.112 0 0 0-.027-.145M11.329 7.194v9.675l8.464 4.3-8.464-13.975M20.958 21.695l6.967 3.54c.907.46 1.642.137 1.642-.72V7.481l-8.609 14.213M9.827 4.842L1.094.406A.99.99 0 0 0 .651.288c-.383 0-.651.3-.651.805v19.156c0 .513.37 1.12.82 1.35l7.692 3.907c.197.1.385.148.555.148.478 0 .813-.376.813-1.007V4.929c0-.036-.02-.07-.053-.087"/></g></svg>