<svg width="30" height="31" viewBox="0 0 30 31" xmlns="http://www.w3.org/2000/svg"><title>E5818C60-D7AD-4971-995F-34B379046B41</title><path d="M16.785.006a2.492 2.492 0 0 0-.999.15c-1.289.45-1.963 1.892-1.533 3.237l1.034 3.164-5.845 2.048-.963-3.052c-.43-1.347-1.812-2.051-3.1-1.601-1.29.45-2 1.893-1.569 3.238l.963 3.016-3.03 1.08c-1.29.45-1.964 1.93-1.534 3.275.431 1.346 1.813 2.052 3.1 1.602l3.03-1.043 1.96 6.068-2.923 1.006c-1.29.45-1.964 1.893-1.533 3.238.43 1.346 1.812 2.088 3.1 1.638l2.891-1.004 1.034 3.164c.43 1.347 1.848 2.051 3.136 1.601 1.29-.45 1.962-1.893 1.533-3.238l-.998-3.164 5.81-2.048.962 3.054c.43 1.347 1.812 2.051 3.1 1.601 1.29-.45 1.998-1.893 1.569-3.238l-.963-3.016 3.03-1.08c1.289-.45 1.963-1.93 1.532-3.276-.43-1.346-1.812-2.05-3.1-1.6l-3.029 1.042L21.49 9.8l2.923-1.006c1.29-.45 1.964-1.893 1.533-3.238-.431-1.347-1.812-2.088-3.1-1.638l-2.888 1.005-1.034-3.164C18.6.746 17.74.084 16.784.006zm.035 11.429l1.961 6.068-5.81 2.048-1.96-6.068 5.81-2.048z" fill-rule="nonzero" fill="#CE1E5B"/></svg>