<svg width="30" height="25" viewBox="0 0 30 25" xmlns="http://www.w3.org/2000/svg"><title>9A9E95B9-7780-4383-88A2-39636A464889</title><path d="M29.993 2.974c-1.104.5-2.288.84-3.533.992A6.303 6.303 0 0 0 29.165.483a12.229 12.229 0 0 1-3.91 1.53 6.07 6.07 0 0 0-4.49-1.99c-3.399 0-6.154 2.82-6.154 6.298 0 .493.055.975.16 1.436C9.658 7.494 5.124 4.985 2.09 1.174a6.368 6.368 0 0 0-.832 3.166 6.338 6.338 0 0 0 2.736 5.244 6.044 6.044 0 0 1-2.787-.79v.078c0 3.052 2.122 5.598 4.935 6.178a6.095 6.095 0 0 1-1.621.22c-.398 0-.782-.04-1.159-.116.784 2.504 3.055 4.326 5.747 4.376a12.162 12.162 0 0 1-7.641 2.692c-.497 0-.986-.03-1.468-.086a17.097 17.097 0 0 0 9.431 2.835c11.318 0 17.505-9.6 17.505-17.926l-.02-.816a12.453 12.453 0 0 0 3.077-3.255z" fill-rule="nonzero" fill="#1DA1F2"/></svg>