<?xml version="1.0" encoding="utf-8"?>
<!-- Generator: Adobe Illustrator 19.1.0, SVG Export Plug-In . SVG Version: 6.00 Build 0)  -->
<svg version="1.1" id="Layer_1" xmlns="http://www.w3.org/2000/svg" xmlns:xlink="http://www.w3.org/1999/xlink" x="0px" y="0px"
	 viewBox="0 0 184.3 90.7" style="enable-background:new 0 0 184.3 90.7;" xml:space="preserve">
<style type="text/css">
	.st0{fill:#004A94;}
	.st1{fill:#99CA49;}
</style>
<g>
	<path class="st0" d="M48.9,41.9c2.7,0,3.5,2.4,3.5,3.8c0,0-7.2,0-7.2,0C45.2,43.8,46.5,41.9,48.9,41.9z M56.6,53.2
		c-0.8,0.3-1.6,0.5-2.4,0.7c-0.9,0.2-1.9,0.3-2.9,0.3c-3.2,0-5.6-1.1-6.1-3.6h13.5c0.1-0.5,0.3-1.6,0.3-2.9
		c0-5.7-2.8-10.9-10.1-10.9c-7,0-10.8,5.5-10.8,11.7c0,7.1,5,11.2,11.9,11.2c1.8,0,3.1-0.2,4.1-0.4c1.1-0.2,2.3-0.6,3.4-1.1
		L56.6,53.2z"/>
	<path class="st0" d="M153.8,41.9c2.7,0,3.5,2.4,3.5,3.8c0,0-7.2,0-7.2,0C150.1,43.8,151.4,41.9,153.8,41.9z M161.5,53.2
		c-0.8,0.3-1.6,0.5-2.4,0.7c-0.9,0.2-1.9,0.3-2.9,0.3c-3.2,0-5.6-1.1-6.1-3.6h13.5c0.1-0.5,0.3-1.6,0.3-2.9
		c0-5.7-2.8-10.9-10.1-10.9c-7,0-10.8,5.5-10.8,11.7c0,7.1,5,11.2,11.9,11.2c1.8,0,3.1-0.2,4.1-0.4c1.1-0.2,2.3-0.6,3.4-1.1
		L161.5,53.2z"/>
	<path class="st0" d="M62.4,29.5v29.7h7.3V29.5H62.4z"/>
	<path class="st0" d="M84.5,54.2c-2.4,0-3.9-2.4-3.9-6c0-2.9,1-6,4-6c2.8,0,3.8,3.2,3.8,6C88.3,51.9,86.8,54.2,84.5,54.2z
		 M84.4,59.7c5.7,0,11.5-3.6,11.5-11.6c0-4.8-2.8-11.2-11.1-11.2C76.2,36.8,73,43,73,48.4C73,55.1,77.7,59.7,84.4,59.7z"/>
	<path class="st0" d="M99,37.3v21.9h7.3V37.3H99z"/>
	<path class="st0" d="M99,29.5v5.7h7.3v-5.7H99z"/>
	<path class="st0" d="M112.2,31.3v6h-2.8v5.4h2.8v9c0,4.9,2.3,8,7.4,8c1,0,2.1-0.1,3.1-0.2c0.9-0.1,1.8-0.3,2.1-0.4
		c0,0-0.1-5.7-0.1-5.7c-0.2,0.1-1.9,0.4-2.5,0.4c-0.6,0-1.5-0.1-2.1-0.7c-0.4-0.5-0.8-1.2-0.8-2.4v-7.8h4.7v-5.4c0,0-4.1,0-4.7,0
		c0-0.6,0-6.8,0-6.8L112.2,31.3z"/>
	<path class="st0" d="M129.1,31.3v6h-2.8v5.4h2.8v9c0,4.9,2.3,8,7.4,8c1,0,2.1-0.1,3.1-0.2c0.9-0.1,1.8-0.3,2.1-0.4
		c0,0-0.1-5.7-0.1-5.7c-0.2,0.1-1.9,0.4-2.5,0.4c-0.6,0-1.5-0.1-2.1-0.7c-0.4-0.5-0.8-1.2-0.8-2.4v-7.8h4.7v-5.4c0,0-4.1,0-4.7,0
		c0-0.6,0-6.8,0-6.8L129.1,31.3z"/>
	<circle class="st1" cx="171.2" cy="55.6" r="4.1"/>
	<path class="st0" d="M9.9,59.2h8.3c0.6,0,1.2,0,1.8,0C31.3,58.6,36,51.9,36,44.1C36,34.4,29.5,29,18.2,29c-2.9,0-5.5,0.1-8.3,0.3
		V59.2z M20.5,53.3c-0.3,0-0.8,0-1.1,0h-2.3c0,0,0-18.3,0-18.3c0.8-0.1,1.8-0.1,2.5-0.1c4.3,0,8.8,2.8,8.8,9.2
		C28.4,50.8,24.1,53,20.5,53.3z"/>
</g>
</svg>
