<?xml version="1.0" encoding="utf-8"?>
<!-- Generator: Adobe Illustrator 19.1.0, SVG Export Plug-In . SVG Version: 6.00 Build 0)  -->
<svg version="1.1" id="Layer_1" xmlns="http://www.w3.org/2000/svg" xmlns:xlink="http://www.w3.org/1999/xlink" x="0px" y="0px"
	 viewBox="0 0 184.3 90.7" style="enable-background:new 0 0 184.3 90.7;" xml:space="preserve">
<style type="text/css">
	.st0{fill:#CE1141;}
	.st1{fill:#FDB927;}
	.st2{fill:#0C7DBB;}
</style>
<g>
	<rect x="7" y="7.7" class="st0" width="75.8" height="75.2"/>
	<g>
		<g>
			<g>
				<g>
					<path class="st1" d="M55,42.5v-1.2h0.2c1,0,1.4-0.1,1.4-1l0-6.4c0-0.9-0.4-1-1.4-1h-0.7v-1.2H61v1.2l-0.8,0
						c-1.1,0-1.3,0.1-1.3,1v7.4h2.7c1.3,0,2.1-0.2,2.4-0.8c0.3-0.6,0.5-1.2,0.5-2.3c0.2,0,1.3,0,1.3,0v4.4H55 M42.7,42.5v-1.2h0.6
						c0.9,0,1.4-0.1,1.4-1l0-6.4c0-0.9-0.6-1-1.5-1h-0.6v-1.2h6.6v1.2l-0.8,0c-1.1,0-1.3,0.1-1.3,1v7.4h2.7c1.3,0,2.1-0.2,2.4-0.8
						c0.3-0.6,0.5-1.2,0.5-2.3c0.2,0,1.3,0,1.3,0v4.4H42.7z M29.7,42.5v-1.2l0.6,0c1,0,1.5-0.1,1.5-1c0-6.4,0,0,0-6.5
						c0-0.9-0.5-1-1.5-1h-0.6v-1.2c11.8,0,0,0,11.8,0v4.2h-1.3c-0.1-2.5-0.7-2.9-2.9-2.9h-3.1v3.3h0.8c1.4,0,1.6-0.5,1.7-2.1h1.3
						v5.5h-1.3c-0.1-1.9-0.3-2.1-1.6-2.1h-0.8v3.8h3.5c2,0,2.5-0.9,2.6-3.1h1.3v4.4H29.7z M30.2,32.8c-0.9,0-1.2,0.3-1.6,1.3
						l-3.1,8.4h-2L21,36.4l-2.4,6.1h-2l-3.3-8.2c-0.4-0.9-0.9-1.5-1.7-1.5h-0.3v-1.2h5.6v1.2h-0.5c-0.6,0-0.9,0.2-0.9,0.5
						c0,0.1,0,0.2,0,0.3c0,0,1.3,3,2.3,6c0.1,0,0.2,0,0.2,0l2.2-5.5c-0.1-0.9-0.4-1.4-1.3-1.4h-0.7v-1.2h5.9v1.2H23
						c-0.6,0-0.8,0.1-0.8,0.4c0,0.1,0,0.3,0.1,0.5c0,0,1.3,3.2,2.3,6c0.1,0,0.1,0,0.1,0l2.1-5.5c0.1-0.4,0.1-0.6,0.1-0.8
						c0-0.3-0.3-0.5-0.9-0.5h-0.8v-1.2h5.3v1.2H30.2z"/>
					<path class="st1" d="M77,39.3c0,2.5-2,3.4-4.9,3.4c-1.8,0-3.5-1-3.8-1.3l-0.4,1.1h-1.1v-4.4h1.3c0.3,2.1,1.8,3,3.8,3.1
						c1.7,0.1,3-0.4,3.1-1.6c0.2-1.4-1.4-1.3-2.6-1.5l-1.9-0.3c-2.8-0.5-3.7-1.3-3.8-3.1c-0.1-2,1.7-3.3,4.2-3.3
						c1.2,0,2.7,0.2,3.9,1.1l0.6-0.9h1v3.8H75c-0.3-2.1-2.4-2.8-4.1-2.7c-1.3,0-2.2,0.8-2.2,1.7c0,0.8,0.8,0.9,1.8,1.1l2.3,0.4
						C75.2,36.2,77,36.7,77,39.3L77,39.3"/>
					<path class="st1" d="M24.5,52.2c0-0.8-0.1-1.6-0.4-2.2c-0.4-0.6-1.1-0.7-2.4-0.7h-2.7v3.3h0.9c1.4,0,1.6-0.3,1.6-1.9h1v5.5
						l-1,0c0-1.8-0.2-2.2-1.6-2.2h-0.9v2.9c0,0.9,0.1,1,1.1,1h1.3v1.2h-6.7v-1.2l0.6,0c0.9,0,1.3-0.1,1.3-1c0-6.4,0,0,0-6.5
						c0-0.9-0.3-1-1.3-1h-0.6V48c11.2,0,0,0,11.2,0v4.2H24.5"/>
					<path class="st1" d="M31,58.9v-1.2h1.2c0.6,0,0.9-0.1,0.9-0.4c0-0.1-0.1-0.3-0.2-0.5l-0.5-1.3h-4.3l-0.6,1.4
						c-0.1,0.2-0.1,0.4-0.1,0.5c0,0.3,0.3,0.4,0.9,0.4h1.1v1.2h-5.7v-1.2h0.5c0.9,0,1.1-0.3,1.4-1.1l3.7-8.6h2.7l3.5,8.6
						c0.3,0.8,0.7,1.1,1.3,1.1h0.5v1.2H31 M30.4,49.9l-1.6,4.2h3.3L30.4,49.9z"/>
					<path class="st1" d="M49.8,56.4c0,2-0.9,2.8-2.2,2.8c-1.5,0-2.5-0.4-2.6-1.9l0-1.3c-0.1-1.8-0.7-2.2-2.5-2.2h-1.1v2.9
						c0,0.9,0.1,1,1.1,1h1v1.2h-6.7v-1.2h1c0.6,0,1.1-0.2,1.1-1v-6.5c0-0.9-0.1-1-1.1-1h-0.9V48h7.5c2.8,0,4.1,0.8,4.1,2.6
						c0,1.6-1.2,2.5-3.3,2.8c1.9,0.5,2.2,1.2,2.3,2.6c0,0.1,0,0.4,0,0.7c0,0.6,0.3,0.9,0.6,0.9c0.7,0,0.7-0.5,0.7-1.8h1
						C49.8,56,49.8,56.2,49.8,56.4L49.8,56.4 M45.9,50.9c0-1.3-0.7-1.6-2.3-1.6h-2.3v3.3l2.4,0C45.2,52.5,45.9,52,45.9,50.9
						L45.9,50.9z"/>
					<path class="st1" d="M59.5,51.5c-0.5-1.6-1.6-2.4-3.4-2.4c-1.8,0-3.2,1.5-3.2,4.2c0,2.8,1.1,4.4,3.2,4.4c1.5,0,2.8-0.7,2.8-2
						v-0.6c0-0.7-0.2-0.7-1.2-0.7h-0.5v-1.3h5.1v1.3h-0.4c-0.8,0-0.9-0.1-0.9,0.9v3.7H60L59.4,58c-1,0.8-2.4,1.2-3.7,1.2
						c-1.5,0-2.8-0.5-3.8-1.5c-1.1-1.1-1.7-2.5-1.7-4.3c0-1.7,0.6-3,1.6-4.1c0.9-0.9,2.4-1.5,3.9-1.4c1.2,0,2.7,0.3,3.5,1.2l0.6-1.1
						h0.9v3.7L59.5,51.5"/>
					<path class="st1" d="M69.6,59.1c-3.6,0-6.5-2.3-6.5-5.7c0-3.4,2.8-5.7,6.4-5.7c3.6,0,6.4,2.2,6.4,5.7
						C75.9,56.8,73.2,59.1,69.6,59.1 M73.2,53.4c0-2.9-1.6-4.4-3.7-4.4c-2.1,0-3.8,1.5-3.8,4.4c0,2.9,1.6,4.4,3.8,4.4
						C71.6,57.8,73.2,56.3,73.2,53.4L73.2,53.4z"/>
				</g>
			</g>
		</g>
	</g>
</g>
<path id="path2428" class="st2" d="M166.6,48.9h-8.5l3.5-4.6h-9.4l-3.4,4.4c-1.3,1.8-1.4,3.5-1.4,4.8v0.7c0,0.8,0.5,1.2,1.2,1.2h18
	c0.7,0,1.2-0.4,1.2-1.2v-4.1C167.8,49.3,167.3,48.9,166.6,48.9 M118.2,32.7c-0.1-0.8-0.7-1.1-1.3-1.1h-2.4c-2.5,0-4.7,1.3-5.9,3.3
	c0,0-2.3,3.7-4.9,7.8H120L118.2,32.7z M145.1,32.8c0-0.8-0.5-1.2-1.2-1.2H139c-0.7,0-1.2,0.4-1.2,1.2V42l-4.6-8.3
	c-0.9-1.5-2.5-2.1-4.3-2.2h-3.6c-0.7,0-1.2,0.4-1.2,1.2v9.9h6.1l0.9,1.7h-7v9.9c0,0.8,0.5,1.2,1.2,1.2h4.9c0.7,0,1.2-0.4,1.2-1.2
	l0-9.3l4.7,8.4c0.9,1.5,2.5,2.1,4.3,2.1h3.6c0.7,0,1.2-0.4,1.2-1.2v-9.9h-6l-0.9-1.7h7V32.8z M120.3,44.3h-8.1
	c0.2,1.1,1.7,9.5,1.8,10c0.1,0.8,0.6,1.1,1.3,1.1h5.5c0.5,0,0.8-0.2,1-0.4c0.2-0.2,0.2-0.5,0.2-1L120.3,44.3z M96.7,54
	c-0.2,0.4-0.2,0.8-0.1,1c0.2,0.3,0.5,0.5,0.9,0.5h5.8c0.7,0,1.4-0.4,1.7-1l6.3-10.2h-8.6C99.7,49.1,96.7,53.9,96.7,54 M148.8,38.1
	h8.1l-3.5,4.6h9.4l3.4-4.5c1.1-1.4,1.3-2.7,1.3-3.8v-1.6c0-0.8-0.5-1.2-1.2-1.2h-17.6c-0.7,0-1.2,0.4-1.2,1.2v4.1
	C147.6,37.7,148.1,38.1,148.8,38.1"/>
</svg>
