<?xml version="1.0" encoding="utf-8"?>
<!-- Generator: Adobe Illustrator 19.1.0, SVG Export Plug-In . SVG Version: 6.00 Build 0)  -->
<svg version="1.1" id="Layer_1" xmlns="http://www.w3.org/2000/svg" xmlns:xlink="http://www.w3.org/1999/xlink" x="0px" y="0px"
	 viewBox="0 0 184.3 90.7" style="enable-background:new 0 0 184.3 90.7;" xml:space="preserve">
<style type="text/css">
	.st0{fill:#002F87;}
	.st1{fill:#55565A;}
</style>
<path class="st0" d="M133.5,75.5L133.5,75.5l-0.1-0.1l-0.1-0.1l0,0l-0.4-0.4c-7.8,6.3-17.6,9.8-27.8,9.8c-11.6,0-22.5-4.4-30.7-12.4
	c-8.2-8-12.7-18.7-12.7-30c0-8.8,2.7-17.2,7.8-24.3c5-7,12-12.3,20.1-15.3l-0.3-0.8C81,4.9,73.9,10.3,68.8,17.4
	c-5.2,7.3-8,15.9-8,24.8c0,11.6,4.6,22.4,13,30.6c0.8,0.8,1.6,1.5,2.4,2.2l-1.1,1.3c8.3,7,19,10.9,30,10.9
	c10.8,0,21.2-3.7,29.5-10.4L133.5,75.5z"/>
<path class="st1" d="M68.8,17.5c0.4-0.5,0.7-1,1.1-1.5c-0.2-0.7-0.4-1.4-0.4-2.1c0-3.1,2.1-5.9,5.9-5.9c0.8,0,1.5,0.1,2.2,0.4
	c0.7-0.5,1.4-1,2.1-1.5C78.5,6,77,5.6,75.4,5.6c-4.6,0-8.5,3.7-8.5,8.3c0,1.6,0.5,3.1,1.3,4.4C68.4,18,68.6,17.7,68.8,17.5z
	 M81.3,13.9c0,3.2-2.4,5.9-5.9,5.9c-2,0-3.6-0.9-4.7-2.2c-0.2,0.3-0.4,0.5-0.6,0.8c-0.3,0.4-0.6,0.8-0.9,1.3
	c1.5,1.5,3.7,2.5,6.1,2.5c4.7,0,8.5-3.6,8.5-8.3c0-2.4-1.1-4.6-2.8-6.1c-0.7,0.4-1.3,0.9-2,1.4C80.6,10.3,81.3,12,81.3,13.9z
	 M62.5,40.9c0,0.5,0,0.9,0,1.4c0,0.4,0,0.7,0,1.1c3.6-0.9,6.3-4,6.3-8c0-2.9-1.6-5.4-3.9-6.9c-0.3,0.8-0.5,1.5-0.7,2.3
	c1.3,1.1,2.1,2.8,2.1,4.6C66.2,37.9,64.8,40,62.5,40.9z M60.8,43.6c0-0.5,0-0.9,0-1.4c0-0.3,0-0.7,0-1c-0.2,0-0.3,0-0.5,0
	c-3.5,0-5.9-2.7-5.9-5.9c0-3.1,2.1-5.9,5.9-5.9c0.9,0,1.7,0.2,2.3,0.4c0.2-0.7,0.5-1.5,0.7-2.2c-1-0.4-2-0.6-3.1-0.6
	c-4.6,0-8.5,3.7-8.5,8.3c0,4.7,3.8,8.3,8.5,8.3C60.5,43.6,60.6,43.6,60.8,43.6z M66.4,48.7c-1.2,0-2.3,0.2-3.3,0.7
	c0.1,0.8,0.3,1.5,0.5,2.3c0.8-0.4,1.7-0.6,2.8-0.6c3.8,0,5.9,2.8,5.9,5.9c0,2.7-1.7,5.1-4.3,5.7c0.4,0.7,0.8,1.4,1.3,2.1
	c3.3-1.1,5.6-4.1,5.6-7.8C74.9,52.4,71,48.7,66.4,48.7z M60.5,57c0-1.6,0.6-3.1,1.6-4.2c-0.2-0.8-0.4-1.7-0.6-2.5
	c-2.2,1.5-3.6,4-3.6,6.8c0,4.7,3.8,8.3,8.5,8.3c0.4,0,0.7,0,1.1-0.1c-0.5-0.7-0.9-1.5-1.4-2.3C62.8,62.7,60.5,60.1,60.5,57z
	 M107.6,58.6c0,2.2-0.7,4.3-3.6,4.3c-2.8,0-3.6-2.1-3.6-4.3v-9.6h-2.6v10c0,3.5,2.2,6.2,6.2,6.2c4,0,6.2-2.7,6.2-6.2v-10h-2.6V58.6z
	 M116.8,19.6h-7.1V6h-2.6v15.8h9.7V19.6z M22,43.3h9.3V41h-6.7v-5.2h6.5v-2.3h-6.5v-3.7h6.7v-2.3H22V43.3z M87.7,27.5h-2.6v10.3
	L74.2,26.7v16.7h2.6V32.9L87.7,44V27.5z M139.2,43.3h2.6V27.5h-2.6V43.3z M44.9,64.9h2.6v-7.5h5.6v-2.3h-5.6v-3.8h5.8v-2.3h-8.4
	V64.9z M53.2,10.5l5.6,11.9l4.4-16.5h-2.6l-2.5,9.9h0L53.2,5.6l-4.9,10.2h0l-2.5-9.9h-2.6l4.4,16.5L53.2,10.5z M118.5,33.4
	L118.5,33.4l4.9,10.2l4.9-10.2h0l2.5,9.9h2.6L129,26.8l-5.6,11.9l-5.6-11.9l-4.4,16.5h2.6L118.5,33.4z M124.9,60.3l-5.6-11.9
	l-4.4,16.5h2.6L120,55h0l4.9,10.2l4.9-10.2h0l2.5,9.9h2.6l-4.4-16.5L124.9,60.3z M91.3,53.6c0-1.5-0.8-3-2.1-3.8
	c-1.3-0.7-3-0.7-4.4-0.7h-4.3v15.8h2.6v-6.7h1.8l4.8,6.7h2.9L87.4,58C89.8,57.7,91.3,55.8,91.3,53.6z M84.3,56.1h-1.2v-4.9h1.1
	c2,0,4.6-0.1,4.6,2.4C88.8,56.2,86.3,56.1,84.3,56.1z M91.9,15.1h1.8l4.8,6.7h2.9l-5.1-6.9c2.3-0.3,3.9-2.2,3.9-4.4
	c0-1.5-0.8-3-2.1-3.8C96.8,6,95.1,6,93.7,6h-4.3v15.8h2.6V15.1z M91.9,8.1h1.1c2,0,4.6-0.1,4.6,2.4c0,2.5-2.4,2.5-4.5,2.5h-1.2V8.1z
	 M125.8,6h-4.3v15.8h4.3c5.1,0,9.2-2.5,9.2-8C134.9,8.4,130.8,6,125.8,6z M125.6,19.6H124V8.1h1.5c3.5,0,6.7,1.1,6.7,5.6
	C132.3,18.3,129,19.6,125.6,19.6z M159.1,40.6c-0.8,0.4-1.8,0.7-2.9,0.7c-3.5,0-5.9-2.7-5.9-5.9c0-3.1,2.1-5.9,5.9-5.9
	c1.1,0,2.1,0.2,2.9,0.7l1.3-1.9c-1.2-0.7-2.7-1.1-4.2-1.1c-4.6,0-8.5,3.7-8.5,8.3c0,4.7,3.8,8.3,8.5,8.3c1.5,0,3-0.4,4.3-1.1
	L159.1,40.6z M47.6,40.6c-0.8,0.4-1.8,0.7-2.9,0.7c-3.5,0-5.9-2.7-5.9-5.9c0-3.1,2.1-5.9,5.9-5.9c1.1,0,2.1,0.2,2.9,0.7l1.3-1.9
	c-1.2-0.7-2.7-1.1-4.2-1.1c-4.6,0-8.5,3.7-8.5,8.3c0,4.7,3.8,8.3,8.5,8.3c1.5,0,3-0.4,4.3-1.1L47.6,40.6z M110.1,35.4
	c0-4.5-3.9-8.3-8.5-8.3c-4.6,0-8.5,3.7-8.5,8.3c0,4.7,3.8,8.3,8.5,8.3C106.3,43.6,110.1,40.1,110.1,35.4z M95.7,35.4
	c0-3.1,2.1-5.9,5.9-5.9c3.8,0,5.9,2.8,5.9,5.9c0,3.2-2.4,5.9-5.9,5.9C98.1,41.3,95.7,38.6,95.7,35.4z"/>
</svg>
